G04 #@! TF.GenerationSoftware,KiCad,Pcbnew,5.1.7-a382d34a8~88~ubuntu18.04.1*
G04 #@! TF.CreationDate,2020-12-31T00:37:57+01:00*
G04 #@! TF.ProjectId,main-board,6d61696e-2d62-46f6-9172-642e6b696361,rev?*
G04 #@! TF.SameCoordinates,Original*
G04 #@! TF.FileFunction,Legend,Bot*
G04 #@! TF.FilePolarity,Positive*
%FSLAX46Y46*%
G04 Gerber Fmt 4.6, Leading zero omitted, Abs format (unit mm)*
G04 Created by KiCad (PCBNEW 5.1.7-a382d34a8~88~ubuntu18.04.1) date 2020-12-31 00:37:57*
%MOMM*%
%LPD*%
G01*
G04 APERTURE LIST*
%ADD10C,0.150000*%
%ADD11C,0.120000*%
G04 APERTURE END LIST*
D10*
X144846626Y-139148666D02*
X144799007Y-139196285D01*
X144751387Y-139291523D01*
X144751387Y-139529618D01*
X144799007Y-139624856D01*
X144846626Y-139672475D01*
X144941864Y-139720094D01*
X145037102Y-139720094D01*
X145179959Y-139672475D01*
X145751387Y-139101047D01*
X145751387Y-139720094D01*
X144751387Y-140339142D02*
X144751387Y-140434380D01*
X144799007Y-140529618D01*
X144846626Y-140577237D01*
X144941864Y-140624856D01*
X145132340Y-140672475D01*
X145370435Y-140672475D01*
X145560911Y-140624856D01*
X145656149Y-140577237D01*
X145703768Y-140529618D01*
X145751387Y-140434380D01*
X145751387Y-140339142D01*
X145703768Y-140243904D01*
X145656149Y-140196285D01*
X145560911Y-140148666D01*
X145370435Y-140101047D01*
X145132340Y-140101047D01*
X144941864Y-140148666D01*
X144846626Y-140196285D01*
X144799007Y-140243904D01*
X144751387Y-140339142D01*
X144846626Y-141053428D02*
X144799007Y-141101047D01*
X144751387Y-141196285D01*
X144751387Y-141434380D01*
X144799007Y-141529618D01*
X144846626Y-141577237D01*
X144941864Y-141624856D01*
X145037102Y-141624856D01*
X145179959Y-141577237D01*
X145751387Y-141005809D01*
X145751387Y-141624856D01*
X144751387Y-142243904D02*
X144751387Y-142339142D01*
X144799007Y-142434380D01*
X144846626Y-142481999D01*
X144941864Y-142529618D01*
X145132340Y-142577237D01*
X145370435Y-142577237D01*
X145560911Y-142529618D01*
X145656149Y-142481999D01*
X145703768Y-142434380D01*
X145751387Y-142339142D01*
X145751387Y-142243904D01*
X145703768Y-142148666D01*
X145656149Y-142101047D01*
X145560911Y-142053428D01*
X145370435Y-142005809D01*
X145132340Y-142005809D01*
X144941864Y-142053428D01*
X144846626Y-142101047D01*
X144799007Y-142148666D01*
X144751387Y-142243904D01*
X145751387Y-143529618D02*
X145751387Y-142958190D01*
X145751387Y-143243904D02*
X144751387Y-143243904D01*
X144894245Y-143148666D01*
X144989483Y-143053428D01*
X145037102Y-142958190D01*
X144846626Y-143910571D02*
X144799007Y-143958190D01*
X144751387Y-144053428D01*
X144751387Y-144291523D01*
X144799007Y-144386761D01*
X144846626Y-144434380D01*
X144941864Y-144481999D01*
X145037102Y-144481999D01*
X145179959Y-144434380D01*
X145751387Y-143862952D01*
X145751387Y-144481999D01*
X144751387Y-144815333D02*
X144751387Y-145434380D01*
X145132340Y-145101047D01*
X145132340Y-145243904D01*
X145179959Y-145339142D01*
X145227578Y-145386761D01*
X145322816Y-145434380D01*
X145560911Y-145434380D01*
X145656149Y-145386761D01*
X145703768Y-145339142D01*
X145751387Y-145243904D01*
X145751387Y-144958190D01*
X145703768Y-144862952D01*
X145656149Y-144815333D01*
X145751387Y-146386761D02*
X145751387Y-145815333D01*
X145751387Y-146101047D02*
X144751387Y-146101047D01*
X144894245Y-146005809D01*
X144989483Y-145910571D01*
X145037102Y-145815333D01*
X145084721Y-105653809D02*
X145894245Y-105653809D01*
X145989483Y-105606190D01*
X146037102Y-105558571D01*
X146084721Y-105463333D01*
X146084721Y-105320475D01*
X146037102Y-105225237D01*
X145703768Y-105653809D02*
X145751387Y-105558571D01*
X145751387Y-105368094D01*
X145703768Y-105272856D01*
X145656149Y-105225237D01*
X145560911Y-105177618D01*
X145275197Y-105177618D01*
X145179959Y-105225237D01*
X145132340Y-105272856D01*
X145084721Y-105368094D01*
X145084721Y-105558571D01*
X145132340Y-105653809D01*
X145751387Y-106129999D02*
X145084721Y-106129999D01*
X144751387Y-106129999D02*
X144799007Y-106082380D01*
X144846626Y-106129999D01*
X144799007Y-106177618D01*
X144751387Y-106129999D01*
X144846626Y-106129999D01*
X145084721Y-106463333D02*
X145084721Y-106844285D01*
X144751387Y-106606190D02*
X145608530Y-106606190D01*
X145703768Y-106653809D01*
X145751387Y-106749047D01*
X145751387Y-106844285D01*
X145751387Y-107177618D02*
X144751387Y-107177618D01*
X145751387Y-107606190D02*
X145227578Y-107606190D01*
X145132340Y-107558571D01*
X145084721Y-107463333D01*
X145084721Y-107320475D01*
X145132340Y-107225237D01*
X145179959Y-107177618D01*
X145084721Y-108510952D02*
X145751387Y-108510952D01*
X145084721Y-108082380D02*
X145608530Y-108082380D01*
X145703768Y-108129999D01*
X145751387Y-108225237D01*
X145751387Y-108368094D01*
X145703768Y-108463333D01*
X145656149Y-108510952D01*
X145751387Y-108987142D02*
X144751387Y-108987142D01*
X145132340Y-108987142D02*
X145084721Y-109082380D01*
X145084721Y-109272856D01*
X145132340Y-109368094D01*
X145179959Y-109415714D01*
X145275197Y-109463333D01*
X145560911Y-109463333D01*
X145656149Y-109415714D01*
X145703768Y-109368094D01*
X145751387Y-109272856D01*
X145751387Y-109082380D01*
X145703768Y-108987142D01*
X145656149Y-109891904D02*
X145703768Y-109939523D01*
X145751387Y-109891904D01*
X145703768Y-109844285D01*
X145656149Y-109891904D01*
X145751387Y-109891904D01*
X145703768Y-110796666D02*
X145751387Y-110701428D01*
X145751387Y-110510952D01*
X145703768Y-110415714D01*
X145656149Y-110368094D01*
X145560911Y-110320475D01*
X145275197Y-110320475D01*
X145179959Y-110368094D01*
X145132340Y-110415714D01*
X145084721Y-110510952D01*
X145084721Y-110701428D01*
X145132340Y-110796666D01*
X145751387Y-111368094D02*
X145703768Y-111272856D01*
X145656149Y-111225237D01*
X145560911Y-111177618D01*
X145275197Y-111177618D01*
X145179959Y-111225237D01*
X145132340Y-111272856D01*
X145084721Y-111368094D01*
X145084721Y-111510952D01*
X145132340Y-111606190D01*
X145179959Y-111653809D01*
X145275197Y-111701428D01*
X145560911Y-111701428D01*
X145656149Y-111653809D01*
X145703768Y-111606190D01*
X145751387Y-111510952D01*
X145751387Y-111368094D01*
X145751387Y-112129999D02*
X145084721Y-112129999D01*
X145179959Y-112129999D02*
X145132340Y-112177618D01*
X145084721Y-112272856D01*
X145084721Y-112415714D01*
X145132340Y-112510952D01*
X145227578Y-112558571D01*
X145751387Y-112558571D01*
X145227578Y-112558571D02*
X145132340Y-112606190D01*
X145084721Y-112701428D01*
X145084721Y-112844285D01*
X145132340Y-112939523D01*
X145227578Y-112987142D01*
X145751387Y-112987142D01*
X144703768Y-114177618D02*
X145989483Y-113320475D01*
X145703768Y-114939523D02*
X145751387Y-114844285D01*
X145751387Y-114653809D01*
X145703768Y-114558571D01*
X145656149Y-114510952D01*
X145560911Y-114463333D01*
X145275197Y-114463333D01*
X145179959Y-114510952D01*
X145132340Y-114558571D01*
X145084721Y-114653809D01*
X145084721Y-114844285D01*
X145132340Y-114939523D01*
X145751387Y-115510952D02*
X145703768Y-115415714D01*
X145608530Y-115368094D01*
X144751387Y-115368094D01*
X145084721Y-115796666D02*
X145751387Y-116034761D01*
X145084721Y-116272856D01*
X145751387Y-117129999D02*
X145751387Y-116653809D01*
X144751387Y-116653809D01*
X145751387Y-117891904D02*
X145227578Y-117891904D01*
X145132340Y-117844285D01*
X145084721Y-117749047D01*
X145084721Y-117558571D01*
X145132340Y-117463333D01*
X145703768Y-117891904D02*
X145751387Y-117796666D01*
X145751387Y-117558571D01*
X145703768Y-117463333D01*
X145608530Y-117415714D01*
X145513292Y-117415714D01*
X145418054Y-117463333D01*
X145370435Y-117558571D01*
X145370435Y-117796666D01*
X145322816Y-117891904D01*
X145751387Y-118368094D02*
X144751387Y-118368094D01*
X145132340Y-118368094D02*
X145084721Y-118463333D01*
X145084721Y-118653809D01*
X145132340Y-118749047D01*
X145179959Y-118796666D01*
X145275197Y-118844285D01*
X145560911Y-118844285D01*
X145656149Y-118796666D01*
X145703768Y-118749047D01*
X145751387Y-118653809D01*
X145751387Y-118463333D01*
X145703768Y-118368094D01*
X145703768Y-119225237D02*
X145751387Y-119320475D01*
X145751387Y-119510952D01*
X145703768Y-119606190D01*
X145608530Y-119653809D01*
X145560911Y-119653809D01*
X145465673Y-119606190D01*
X145418054Y-119510952D01*
X145418054Y-119368094D01*
X145370435Y-119272856D01*
X145275197Y-119225237D01*
X145227578Y-119225237D01*
X145132340Y-119272856D01*
X145084721Y-119368094D01*
X145084721Y-119510952D01*
X145132340Y-119606190D01*
X144703768Y-120796666D02*
X145989483Y-119939523D01*
X145084721Y-121558571D02*
X145894245Y-121558571D01*
X145989483Y-121510952D01*
X146037102Y-121463333D01*
X146084721Y-121368094D01*
X146084721Y-121225237D01*
X146037102Y-121129999D01*
X145703768Y-121558571D02*
X145751387Y-121463333D01*
X145751387Y-121272856D01*
X145703768Y-121177618D01*
X145656149Y-121129999D01*
X145560911Y-121082380D01*
X145275197Y-121082380D01*
X145179959Y-121129999D01*
X145132340Y-121177618D01*
X145084721Y-121272856D01*
X145084721Y-121463333D01*
X145132340Y-121558571D01*
X145751387Y-122463333D02*
X145227578Y-122463333D01*
X145132340Y-122415714D01*
X145084721Y-122320475D01*
X145084721Y-122129999D01*
X145132340Y-122034761D01*
X145703768Y-122463333D02*
X145751387Y-122368094D01*
X145751387Y-122129999D01*
X145703768Y-122034761D01*
X145608530Y-121987142D01*
X145513292Y-121987142D01*
X145418054Y-122034761D01*
X145370435Y-122129999D01*
X145370435Y-122368094D01*
X145322816Y-122463333D01*
X145703768Y-122891904D02*
X145751387Y-122987142D01*
X145751387Y-123177618D01*
X145703768Y-123272856D01*
X145608530Y-123320475D01*
X145560911Y-123320475D01*
X145465673Y-123272856D01*
X145418054Y-123177618D01*
X145418054Y-123034761D01*
X145370435Y-122939523D01*
X145275197Y-122891904D01*
X145227578Y-122891904D01*
X145132340Y-122939523D01*
X145084721Y-123034761D01*
X145084721Y-123177618D01*
X145132340Y-123272856D01*
X145370435Y-123749047D02*
X145370435Y-124510952D01*
X145751387Y-125129999D02*
X145703768Y-125034761D01*
X145656149Y-124987142D01*
X145560911Y-124939523D01*
X145275197Y-124939523D01*
X145179959Y-124987142D01*
X145132340Y-125034761D01*
X145084721Y-125129999D01*
X145084721Y-125272856D01*
X145132340Y-125368094D01*
X145179959Y-125415714D01*
X145275197Y-125463333D01*
X145560911Y-125463333D01*
X145656149Y-125415714D01*
X145703768Y-125368094D01*
X145751387Y-125272856D01*
X145751387Y-125129999D01*
X145751387Y-125891904D02*
X145084721Y-125891904D01*
X144751387Y-125891904D02*
X144799007Y-125844285D01*
X144846626Y-125891904D01*
X144799007Y-125939523D01*
X144751387Y-125891904D01*
X144846626Y-125891904D01*
X145751387Y-126510952D02*
X145703768Y-126415714D01*
X145608530Y-126368094D01*
X144751387Y-126368094D01*
X145370435Y-126891904D02*
X145370435Y-127653809D01*
X145084721Y-127987142D02*
X145084721Y-128368094D01*
X144751387Y-128129999D02*
X145608530Y-128129999D01*
X145703768Y-128177618D01*
X145751387Y-128272856D01*
X145751387Y-128368094D01*
X145751387Y-129129999D02*
X145227578Y-129129999D01*
X145132340Y-129082380D01*
X145084721Y-128987142D01*
X145084721Y-128796666D01*
X145132340Y-128701428D01*
X145703768Y-129129999D02*
X145751387Y-129034761D01*
X145751387Y-128796666D01*
X145703768Y-128701428D01*
X145608530Y-128653809D01*
X145513292Y-128653809D01*
X145418054Y-128701428D01*
X145370435Y-128796666D01*
X145370435Y-129034761D01*
X145322816Y-129129999D01*
X145084721Y-129606190D02*
X145751387Y-129606190D01*
X145179959Y-129606190D02*
X145132340Y-129653809D01*
X145084721Y-129749047D01*
X145084721Y-129891904D01*
X145132340Y-129987142D01*
X145227578Y-130034761D01*
X145751387Y-130034761D01*
X145751387Y-130510952D02*
X144751387Y-130510952D01*
X145370435Y-130606190D02*
X145751387Y-130891904D01*
X145084721Y-130891904D02*
X145465673Y-130510952D01*
X145370435Y-131320475D02*
X145370435Y-132082380D01*
X145751387Y-132701428D02*
X145703768Y-132606190D01*
X145608530Y-132558571D01*
X144751387Y-132558571D01*
X145703768Y-133463333D02*
X145751387Y-133368094D01*
X145751387Y-133177618D01*
X145703768Y-133082380D01*
X145608530Y-133034761D01*
X145227578Y-133034761D01*
X145132340Y-133082380D01*
X145084721Y-133177618D01*
X145084721Y-133368094D01*
X145132340Y-133463333D01*
X145227578Y-133510952D01*
X145322816Y-133510952D01*
X145418054Y-133034761D01*
X145084721Y-133844285D02*
X145751387Y-134082380D01*
X145084721Y-134320475D01*
X145703768Y-135082380D02*
X145751387Y-134987142D01*
X145751387Y-134796666D01*
X145703768Y-134701428D01*
X145608530Y-134653809D01*
X145227578Y-134653809D01*
X145132340Y-134701428D01*
X145084721Y-134796666D01*
X145084721Y-134987142D01*
X145132340Y-135082380D01*
X145227578Y-135129999D01*
X145322816Y-135129999D01*
X145418054Y-134653809D01*
X145751387Y-135701428D02*
X145703768Y-135606190D01*
X145608530Y-135558571D01*
X144751387Y-135558571D01*
X105121255Y-109963210D02*
X105121255Y-110439400D01*
X105406969Y-109867972D02*
X104406969Y-110201305D01*
X105406969Y-110534638D01*
X105406969Y-110867972D02*
X104740303Y-110867972D01*
X104930779Y-110867972D02*
X104835541Y-110915591D01*
X104787922Y-110963210D01*
X104740303Y-111058448D01*
X104740303Y-111153686D01*
X105406969Y-111915591D02*
X104406969Y-111915591D01*
X105359350Y-111915591D02*
X105406969Y-111820353D01*
X105406969Y-111629876D01*
X105359350Y-111534638D01*
X105311731Y-111487019D01*
X105216493Y-111439400D01*
X104930779Y-111439400D01*
X104835541Y-111487019D01*
X104787922Y-111534638D01*
X104740303Y-111629876D01*
X104740303Y-111820353D01*
X104787922Y-111915591D01*
X104740303Y-112820353D02*
X105406969Y-112820353D01*
X104740303Y-112391781D02*
X105264112Y-112391781D01*
X105359350Y-112439400D01*
X105406969Y-112534638D01*
X105406969Y-112677495D01*
X105359350Y-112772733D01*
X105311731Y-112820353D01*
X105406969Y-113296543D02*
X104740303Y-113296543D01*
X104406969Y-113296543D02*
X104454589Y-113248924D01*
X104502208Y-113296543D01*
X104454589Y-113344162D01*
X104406969Y-113296543D01*
X104502208Y-113296543D01*
X104740303Y-113772733D02*
X105406969Y-113772733D01*
X104835541Y-113772733D02*
X104787922Y-113820353D01*
X104740303Y-113915591D01*
X104740303Y-114058448D01*
X104787922Y-114153686D01*
X104883160Y-114201305D01*
X105406969Y-114201305D01*
X105406969Y-114820353D02*
X105359350Y-114725114D01*
X105311731Y-114677495D01*
X105216493Y-114629876D01*
X104930779Y-114629876D01*
X104835541Y-114677495D01*
X104787922Y-114725114D01*
X104740303Y-114820353D01*
X104740303Y-114963210D01*
X104787922Y-115058448D01*
X104835541Y-115106067D01*
X104930779Y-115153686D01*
X105216493Y-115153686D01*
X105311731Y-115106067D01*
X105359350Y-115058448D01*
X105406969Y-114963210D01*
X105406969Y-114820353D01*
X105406969Y-116344162D02*
X104406969Y-116344162D01*
X105406969Y-116915591D01*
X104406969Y-116915591D01*
X105406969Y-117820353D02*
X104883160Y-117820353D01*
X104787922Y-117772733D01*
X104740303Y-117677495D01*
X104740303Y-117487019D01*
X104787922Y-117391781D01*
X105359350Y-117820353D02*
X105406969Y-117725114D01*
X105406969Y-117487019D01*
X105359350Y-117391781D01*
X105264112Y-117344162D01*
X105168874Y-117344162D01*
X105073636Y-117391781D01*
X105026017Y-117487019D01*
X105026017Y-117725114D01*
X104978398Y-117820353D01*
X104740303Y-118296543D02*
X105406969Y-118296543D01*
X104835541Y-118296543D02*
X104787922Y-118344162D01*
X104740303Y-118439400D01*
X104740303Y-118582257D01*
X104787922Y-118677495D01*
X104883160Y-118725114D01*
X105406969Y-118725114D01*
X105406969Y-119344162D02*
X105359350Y-119248924D01*
X105311731Y-119201305D01*
X105216493Y-119153686D01*
X104930779Y-119153686D01*
X104835541Y-119201305D01*
X104787922Y-119248924D01*
X104740303Y-119344162D01*
X104740303Y-119487019D01*
X104787922Y-119582257D01*
X104835541Y-119629876D01*
X104930779Y-119677495D01*
X105216493Y-119677495D01*
X105311731Y-119629876D01*
X105359350Y-119582257D01*
X105406969Y-119487019D01*
X105406969Y-119344162D01*
X55337255Y-109963210D02*
X55337255Y-110439400D01*
X55622969Y-109867972D02*
X54622969Y-110201305D01*
X55622969Y-110534638D01*
X55622969Y-110867972D02*
X54956303Y-110867972D01*
X55146779Y-110867972D02*
X55051541Y-110915591D01*
X55003922Y-110963210D01*
X54956303Y-111058448D01*
X54956303Y-111153686D01*
X55622969Y-111915591D02*
X54622969Y-111915591D01*
X55575350Y-111915591D02*
X55622969Y-111820353D01*
X55622969Y-111629876D01*
X55575350Y-111534638D01*
X55527731Y-111487019D01*
X55432493Y-111439400D01*
X55146779Y-111439400D01*
X55051541Y-111487019D01*
X55003922Y-111534638D01*
X54956303Y-111629876D01*
X54956303Y-111820353D01*
X55003922Y-111915591D01*
X54956303Y-112820353D02*
X55622969Y-112820353D01*
X54956303Y-112391781D02*
X55480112Y-112391781D01*
X55575350Y-112439400D01*
X55622969Y-112534638D01*
X55622969Y-112677495D01*
X55575350Y-112772733D01*
X55527731Y-112820353D01*
X55622969Y-113296543D02*
X54956303Y-113296543D01*
X54622969Y-113296543D02*
X54670589Y-113248924D01*
X54718208Y-113296543D01*
X54670589Y-113344162D01*
X54622969Y-113296543D01*
X54718208Y-113296543D01*
X54956303Y-113772733D02*
X55622969Y-113772733D01*
X55051541Y-113772733D02*
X55003922Y-113820353D01*
X54956303Y-113915591D01*
X54956303Y-114058448D01*
X55003922Y-114153686D01*
X55099160Y-114201305D01*
X55622969Y-114201305D01*
X55622969Y-114820353D02*
X55575350Y-114725114D01*
X55527731Y-114677495D01*
X55432493Y-114629876D01*
X55146779Y-114629876D01*
X55051541Y-114677495D01*
X55003922Y-114725114D01*
X54956303Y-114820353D01*
X54956303Y-114963210D01*
X55003922Y-115058448D01*
X55051541Y-115106067D01*
X55146779Y-115153686D01*
X55432493Y-115153686D01*
X55527731Y-115106067D01*
X55575350Y-115058448D01*
X55622969Y-114963210D01*
X55622969Y-114820353D01*
X55622969Y-116344162D02*
X54622969Y-116344162D01*
X55622969Y-116915591D01*
X54622969Y-116915591D01*
X55622969Y-117820353D02*
X55099160Y-117820353D01*
X55003922Y-117772733D01*
X54956303Y-117677495D01*
X54956303Y-117487019D01*
X55003922Y-117391781D01*
X55575350Y-117820353D02*
X55622969Y-117725114D01*
X55622969Y-117487019D01*
X55575350Y-117391781D01*
X55480112Y-117344162D01*
X55384874Y-117344162D01*
X55289636Y-117391781D01*
X55242017Y-117487019D01*
X55242017Y-117725114D01*
X55194398Y-117820353D01*
X54956303Y-118296543D02*
X55622969Y-118296543D01*
X55051541Y-118296543D02*
X55003922Y-118344162D01*
X54956303Y-118439400D01*
X54956303Y-118582257D01*
X55003922Y-118677495D01*
X55099160Y-118725114D01*
X55622969Y-118725114D01*
X55622969Y-119344162D02*
X55575350Y-119248924D01*
X55527731Y-119201305D01*
X55432493Y-119153686D01*
X55146779Y-119153686D01*
X55051541Y-119201305D01*
X55003922Y-119248924D01*
X54956303Y-119344162D01*
X54956303Y-119487019D01*
X55003922Y-119582257D01*
X55051541Y-119629876D01*
X55146779Y-119677495D01*
X55432493Y-119677495D01*
X55527731Y-119629876D01*
X55575350Y-119582257D01*
X55622969Y-119487019D01*
X55622969Y-119344162D01*
X95062626Y-139148666D02*
X95015007Y-139196285D01*
X94967387Y-139291523D01*
X94967387Y-139529618D01*
X95015007Y-139624856D01*
X95062626Y-139672475D01*
X95157864Y-139720094D01*
X95253102Y-139720094D01*
X95395959Y-139672475D01*
X95967387Y-139101047D01*
X95967387Y-139720094D01*
X94967387Y-140339142D02*
X94967387Y-140434380D01*
X95015007Y-140529618D01*
X95062626Y-140577237D01*
X95157864Y-140624856D01*
X95348340Y-140672475D01*
X95586435Y-140672475D01*
X95776911Y-140624856D01*
X95872149Y-140577237D01*
X95919768Y-140529618D01*
X95967387Y-140434380D01*
X95967387Y-140339142D01*
X95919768Y-140243904D01*
X95872149Y-140196285D01*
X95776911Y-140148666D01*
X95586435Y-140101047D01*
X95348340Y-140101047D01*
X95157864Y-140148666D01*
X95062626Y-140196285D01*
X95015007Y-140243904D01*
X94967387Y-140339142D01*
X95062626Y-141053428D02*
X95015007Y-141101047D01*
X94967387Y-141196285D01*
X94967387Y-141434380D01*
X95015007Y-141529618D01*
X95062626Y-141577237D01*
X95157864Y-141624856D01*
X95253102Y-141624856D01*
X95395959Y-141577237D01*
X95967387Y-141005809D01*
X95967387Y-141624856D01*
X94967387Y-142243904D02*
X94967387Y-142339142D01*
X95015007Y-142434380D01*
X95062626Y-142481999D01*
X95157864Y-142529618D01*
X95348340Y-142577237D01*
X95586435Y-142577237D01*
X95776911Y-142529618D01*
X95872149Y-142481999D01*
X95919768Y-142434380D01*
X95967387Y-142339142D01*
X95967387Y-142243904D01*
X95919768Y-142148666D01*
X95872149Y-142101047D01*
X95776911Y-142053428D01*
X95586435Y-142005809D01*
X95348340Y-142005809D01*
X95157864Y-142053428D01*
X95062626Y-142101047D01*
X95015007Y-142148666D01*
X94967387Y-142243904D01*
X95967387Y-143529618D02*
X95967387Y-142958190D01*
X95967387Y-143243904D02*
X94967387Y-143243904D01*
X95110245Y-143148666D01*
X95205483Y-143053428D01*
X95253102Y-142958190D01*
X95062626Y-143910571D02*
X95015007Y-143958190D01*
X94967387Y-144053428D01*
X94967387Y-144291523D01*
X95015007Y-144386761D01*
X95062626Y-144434380D01*
X95157864Y-144481999D01*
X95253102Y-144481999D01*
X95395959Y-144434380D01*
X95967387Y-143862952D01*
X95967387Y-144481999D01*
X94967387Y-144815333D02*
X94967387Y-145434380D01*
X95348340Y-145101047D01*
X95348340Y-145243904D01*
X95395959Y-145339142D01*
X95443578Y-145386761D01*
X95538816Y-145434380D01*
X95776911Y-145434380D01*
X95872149Y-145386761D01*
X95919768Y-145339142D01*
X95967387Y-145243904D01*
X95967387Y-144958190D01*
X95919768Y-144862952D01*
X95872149Y-144815333D01*
X95967387Y-146386761D02*
X95967387Y-145815333D01*
X95967387Y-146101047D02*
X94967387Y-146101047D01*
X95110245Y-146005809D01*
X95205483Y-145910571D01*
X95253102Y-145815333D01*
X95300721Y-105653809D02*
X96110245Y-105653809D01*
X96205483Y-105606190D01*
X96253102Y-105558571D01*
X96300721Y-105463333D01*
X96300721Y-105320475D01*
X96253102Y-105225237D01*
X95919768Y-105653809D02*
X95967387Y-105558571D01*
X95967387Y-105368094D01*
X95919768Y-105272856D01*
X95872149Y-105225237D01*
X95776911Y-105177618D01*
X95491197Y-105177618D01*
X95395959Y-105225237D01*
X95348340Y-105272856D01*
X95300721Y-105368094D01*
X95300721Y-105558571D01*
X95348340Y-105653809D01*
X95967387Y-106129999D02*
X95300721Y-106129999D01*
X94967387Y-106129999D02*
X95015007Y-106082380D01*
X95062626Y-106129999D01*
X95015007Y-106177618D01*
X94967387Y-106129999D01*
X95062626Y-106129999D01*
X95300721Y-106463333D02*
X95300721Y-106844285D01*
X94967387Y-106606190D02*
X95824530Y-106606190D01*
X95919768Y-106653809D01*
X95967387Y-106749047D01*
X95967387Y-106844285D01*
X95967387Y-107177618D02*
X94967387Y-107177618D01*
X95967387Y-107606190D02*
X95443578Y-107606190D01*
X95348340Y-107558571D01*
X95300721Y-107463333D01*
X95300721Y-107320475D01*
X95348340Y-107225237D01*
X95395959Y-107177618D01*
X95300721Y-108510952D02*
X95967387Y-108510952D01*
X95300721Y-108082380D02*
X95824530Y-108082380D01*
X95919768Y-108129999D01*
X95967387Y-108225237D01*
X95967387Y-108368094D01*
X95919768Y-108463333D01*
X95872149Y-108510952D01*
X95967387Y-108987142D02*
X94967387Y-108987142D01*
X95348340Y-108987142D02*
X95300721Y-109082380D01*
X95300721Y-109272856D01*
X95348340Y-109368094D01*
X95395959Y-109415714D01*
X95491197Y-109463333D01*
X95776911Y-109463333D01*
X95872149Y-109415714D01*
X95919768Y-109368094D01*
X95967387Y-109272856D01*
X95967387Y-109082380D01*
X95919768Y-108987142D01*
X95872149Y-109891904D02*
X95919768Y-109939523D01*
X95967387Y-109891904D01*
X95919768Y-109844285D01*
X95872149Y-109891904D01*
X95967387Y-109891904D01*
X95919768Y-110796666D02*
X95967387Y-110701428D01*
X95967387Y-110510952D01*
X95919768Y-110415714D01*
X95872149Y-110368094D01*
X95776911Y-110320475D01*
X95491197Y-110320475D01*
X95395959Y-110368094D01*
X95348340Y-110415714D01*
X95300721Y-110510952D01*
X95300721Y-110701428D01*
X95348340Y-110796666D01*
X95967387Y-111368094D02*
X95919768Y-111272856D01*
X95872149Y-111225237D01*
X95776911Y-111177618D01*
X95491197Y-111177618D01*
X95395959Y-111225237D01*
X95348340Y-111272856D01*
X95300721Y-111368094D01*
X95300721Y-111510952D01*
X95348340Y-111606190D01*
X95395959Y-111653809D01*
X95491197Y-111701428D01*
X95776911Y-111701428D01*
X95872149Y-111653809D01*
X95919768Y-111606190D01*
X95967387Y-111510952D01*
X95967387Y-111368094D01*
X95967387Y-112129999D02*
X95300721Y-112129999D01*
X95395959Y-112129999D02*
X95348340Y-112177618D01*
X95300721Y-112272856D01*
X95300721Y-112415714D01*
X95348340Y-112510952D01*
X95443578Y-112558571D01*
X95967387Y-112558571D01*
X95443578Y-112558571D02*
X95348340Y-112606190D01*
X95300721Y-112701428D01*
X95300721Y-112844285D01*
X95348340Y-112939523D01*
X95443578Y-112987142D01*
X95967387Y-112987142D01*
X94919768Y-114177618D02*
X96205483Y-113320475D01*
X95919768Y-114939523D02*
X95967387Y-114844285D01*
X95967387Y-114653809D01*
X95919768Y-114558571D01*
X95872149Y-114510952D01*
X95776911Y-114463333D01*
X95491197Y-114463333D01*
X95395959Y-114510952D01*
X95348340Y-114558571D01*
X95300721Y-114653809D01*
X95300721Y-114844285D01*
X95348340Y-114939523D01*
X95967387Y-115510952D02*
X95919768Y-115415714D01*
X95824530Y-115368094D01*
X94967387Y-115368094D01*
X95300721Y-115796666D02*
X95967387Y-116034761D01*
X95300721Y-116272856D01*
X95967387Y-117129999D02*
X95967387Y-116653809D01*
X94967387Y-116653809D01*
X95967387Y-117891904D02*
X95443578Y-117891904D01*
X95348340Y-117844285D01*
X95300721Y-117749047D01*
X95300721Y-117558571D01*
X95348340Y-117463333D01*
X95919768Y-117891904D02*
X95967387Y-117796666D01*
X95967387Y-117558571D01*
X95919768Y-117463333D01*
X95824530Y-117415714D01*
X95729292Y-117415714D01*
X95634054Y-117463333D01*
X95586435Y-117558571D01*
X95586435Y-117796666D01*
X95538816Y-117891904D01*
X95967387Y-118368094D02*
X94967387Y-118368094D01*
X95348340Y-118368094D02*
X95300721Y-118463333D01*
X95300721Y-118653809D01*
X95348340Y-118749047D01*
X95395959Y-118796666D01*
X95491197Y-118844285D01*
X95776911Y-118844285D01*
X95872149Y-118796666D01*
X95919768Y-118749047D01*
X95967387Y-118653809D01*
X95967387Y-118463333D01*
X95919768Y-118368094D01*
X95919768Y-119225237D02*
X95967387Y-119320475D01*
X95967387Y-119510952D01*
X95919768Y-119606190D01*
X95824530Y-119653809D01*
X95776911Y-119653809D01*
X95681673Y-119606190D01*
X95634054Y-119510952D01*
X95634054Y-119368094D01*
X95586435Y-119272856D01*
X95491197Y-119225237D01*
X95443578Y-119225237D01*
X95348340Y-119272856D01*
X95300721Y-119368094D01*
X95300721Y-119510952D01*
X95348340Y-119606190D01*
X94919768Y-120796666D02*
X96205483Y-119939523D01*
X95300721Y-121558571D02*
X96110245Y-121558571D01*
X96205483Y-121510952D01*
X96253102Y-121463333D01*
X96300721Y-121368094D01*
X96300721Y-121225237D01*
X96253102Y-121129999D01*
X95919768Y-121558571D02*
X95967387Y-121463333D01*
X95967387Y-121272856D01*
X95919768Y-121177618D01*
X95872149Y-121129999D01*
X95776911Y-121082380D01*
X95491197Y-121082380D01*
X95395959Y-121129999D01*
X95348340Y-121177618D01*
X95300721Y-121272856D01*
X95300721Y-121463333D01*
X95348340Y-121558571D01*
X95967387Y-122463333D02*
X95443578Y-122463333D01*
X95348340Y-122415714D01*
X95300721Y-122320475D01*
X95300721Y-122129999D01*
X95348340Y-122034761D01*
X95919768Y-122463333D02*
X95967387Y-122368094D01*
X95967387Y-122129999D01*
X95919768Y-122034761D01*
X95824530Y-121987142D01*
X95729292Y-121987142D01*
X95634054Y-122034761D01*
X95586435Y-122129999D01*
X95586435Y-122368094D01*
X95538816Y-122463333D01*
X95919768Y-122891904D02*
X95967387Y-122987142D01*
X95967387Y-123177618D01*
X95919768Y-123272856D01*
X95824530Y-123320475D01*
X95776911Y-123320475D01*
X95681673Y-123272856D01*
X95634054Y-123177618D01*
X95634054Y-123034761D01*
X95586435Y-122939523D01*
X95491197Y-122891904D01*
X95443578Y-122891904D01*
X95348340Y-122939523D01*
X95300721Y-123034761D01*
X95300721Y-123177618D01*
X95348340Y-123272856D01*
X95586435Y-123749047D02*
X95586435Y-124510952D01*
X95967387Y-125129999D02*
X95919768Y-125034761D01*
X95872149Y-124987142D01*
X95776911Y-124939523D01*
X95491197Y-124939523D01*
X95395959Y-124987142D01*
X95348340Y-125034761D01*
X95300721Y-125129999D01*
X95300721Y-125272856D01*
X95348340Y-125368094D01*
X95395959Y-125415714D01*
X95491197Y-125463333D01*
X95776911Y-125463333D01*
X95872149Y-125415714D01*
X95919768Y-125368094D01*
X95967387Y-125272856D01*
X95967387Y-125129999D01*
X95967387Y-125891904D02*
X95300721Y-125891904D01*
X94967387Y-125891904D02*
X95015007Y-125844285D01*
X95062626Y-125891904D01*
X95015007Y-125939523D01*
X94967387Y-125891904D01*
X95062626Y-125891904D01*
X95967387Y-126510952D02*
X95919768Y-126415714D01*
X95824530Y-126368094D01*
X94967387Y-126368094D01*
X95586435Y-126891904D02*
X95586435Y-127653809D01*
X95300721Y-127987142D02*
X95300721Y-128368094D01*
X94967387Y-128129999D02*
X95824530Y-128129999D01*
X95919768Y-128177618D01*
X95967387Y-128272856D01*
X95967387Y-128368094D01*
X95967387Y-129129999D02*
X95443578Y-129129999D01*
X95348340Y-129082380D01*
X95300721Y-128987142D01*
X95300721Y-128796666D01*
X95348340Y-128701428D01*
X95919768Y-129129999D02*
X95967387Y-129034761D01*
X95967387Y-128796666D01*
X95919768Y-128701428D01*
X95824530Y-128653809D01*
X95729292Y-128653809D01*
X95634054Y-128701428D01*
X95586435Y-128796666D01*
X95586435Y-129034761D01*
X95538816Y-129129999D01*
X95300721Y-129606190D02*
X95967387Y-129606190D01*
X95395959Y-129606190D02*
X95348340Y-129653809D01*
X95300721Y-129749047D01*
X95300721Y-129891904D01*
X95348340Y-129987142D01*
X95443578Y-130034761D01*
X95967387Y-130034761D01*
X95967387Y-130510952D02*
X94967387Y-130510952D01*
X95586435Y-130606190D02*
X95967387Y-130891904D01*
X95300721Y-130891904D02*
X95681673Y-130510952D01*
X95586435Y-131320475D02*
X95586435Y-132082380D01*
X95967387Y-132701428D02*
X95919768Y-132606190D01*
X95824530Y-132558571D01*
X94967387Y-132558571D01*
X95919768Y-133463333D02*
X95967387Y-133368094D01*
X95967387Y-133177618D01*
X95919768Y-133082380D01*
X95824530Y-133034761D01*
X95443578Y-133034761D01*
X95348340Y-133082380D01*
X95300721Y-133177618D01*
X95300721Y-133368094D01*
X95348340Y-133463333D01*
X95443578Y-133510952D01*
X95538816Y-133510952D01*
X95634054Y-133034761D01*
X95300721Y-133844285D02*
X95967387Y-134082380D01*
X95300721Y-134320475D01*
X95919768Y-135082380D02*
X95967387Y-134987142D01*
X95967387Y-134796666D01*
X95919768Y-134701428D01*
X95824530Y-134653809D01*
X95443578Y-134653809D01*
X95348340Y-134701428D01*
X95300721Y-134796666D01*
X95300721Y-134987142D01*
X95348340Y-135082380D01*
X95443578Y-135129999D01*
X95538816Y-135129999D01*
X95634054Y-134653809D01*
X95967387Y-135701428D02*
X95919768Y-135606190D01*
X95824530Y-135558571D01*
X94967387Y-135558571D01*
X105121255Y-60687210D02*
X105121255Y-61163400D01*
X105406969Y-60591972D02*
X104406969Y-60925305D01*
X105406969Y-61258638D01*
X105406969Y-61591972D02*
X104740303Y-61591972D01*
X104930779Y-61591972D02*
X104835541Y-61639591D01*
X104787922Y-61687210D01*
X104740303Y-61782448D01*
X104740303Y-61877686D01*
X105406969Y-62639591D02*
X104406969Y-62639591D01*
X105359350Y-62639591D02*
X105406969Y-62544353D01*
X105406969Y-62353876D01*
X105359350Y-62258638D01*
X105311731Y-62211019D01*
X105216493Y-62163400D01*
X104930779Y-62163400D01*
X104835541Y-62211019D01*
X104787922Y-62258638D01*
X104740303Y-62353876D01*
X104740303Y-62544353D01*
X104787922Y-62639591D01*
X104740303Y-63544353D02*
X105406969Y-63544353D01*
X104740303Y-63115781D02*
X105264112Y-63115781D01*
X105359350Y-63163400D01*
X105406969Y-63258638D01*
X105406969Y-63401495D01*
X105359350Y-63496733D01*
X105311731Y-63544353D01*
X105406969Y-64020543D02*
X104740303Y-64020543D01*
X104406969Y-64020543D02*
X104454589Y-63972924D01*
X104502208Y-64020543D01*
X104454589Y-64068162D01*
X104406969Y-64020543D01*
X104502208Y-64020543D01*
X104740303Y-64496733D02*
X105406969Y-64496733D01*
X104835541Y-64496733D02*
X104787922Y-64544353D01*
X104740303Y-64639591D01*
X104740303Y-64782448D01*
X104787922Y-64877686D01*
X104883160Y-64925305D01*
X105406969Y-64925305D01*
X105406969Y-65544353D02*
X105359350Y-65449114D01*
X105311731Y-65401495D01*
X105216493Y-65353876D01*
X104930779Y-65353876D01*
X104835541Y-65401495D01*
X104787922Y-65449114D01*
X104740303Y-65544353D01*
X104740303Y-65687210D01*
X104787922Y-65782448D01*
X104835541Y-65830067D01*
X104930779Y-65877686D01*
X105216493Y-65877686D01*
X105311731Y-65830067D01*
X105359350Y-65782448D01*
X105406969Y-65687210D01*
X105406969Y-65544353D01*
X105406969Y-67068162D02*
X104406969Y-67068162D01*
X105406969Y-67639591D01*
X104406969Y-67639591D01*
X105406969Y-68544353D02*
X104883160Y-68544353D01*
X104787922Y-68496733D01*
X104740303Y-68401495D01*
X104740303Y-68211019D01*
X104787922Y-68115781D01*
X105359350Y-68544353D02*
X105406969Y-68449114D01*
X105406969Y-68211019D01*
X105359350Y-68115781D01*
X105264112Y-68068162D01*
X105168874Y-68068162D01*
X105073636Y-68115781D01*
X105026017Y-68211019D01*
X105026017Y-68449114D01*
X104978398Y-68544353D01*
X104740303Y-69020543D02*
X105406969Y-69020543D01*
X104835541Y-69020543D02*
X104787922Y-69068162D01*
X104740303Y-69163400D01*
X104740303Y-69306257D01*
X104787922Y-69401495D01*
X104883160Y-69449114D01*
X105406969Y-69449114D01*
X105406969Y-70068162D02*
X105359350Y-69972924D01*
X105311731Y-69925305D01*
X105216493Y-69877686D01*
X104930779Y-69877686D01*
X104835541Y-69925305D01*
X104787922Y-69972924D01*
X104740303Y-70068162D01*
X104740303Y-70211019D01*
X104787922Y-70306257D01*
X104835541Y-70353876D01*
X104930779Y-70401495D01*
X105216493Y-70401495D01*
X105311731Y-70353876D01*
X105359350Y-70306257D01*
X105406969Y-70211019D01*
X105406969Y-70068162D01*
X144846626Y-89872666D02*
X144799007Y-89920285D01*
X144751387Y-90015523D01*
X144751387Y-90253618D01*
X144799007Y-90348856D01*
X144846626Y-90396475D01*
X144941864Y-90444094D01*
X145037102Y-90444094D01*
X145179959Y-90396475D01*
X145751387Y-89825047D01*
X145751387Y-90444094D01*
X144751387Y-91063142D02*
X144751387Y-91158380D01*
X144799007Y-91253618D01*
X144846626Y-91301237D01*
X144941864Y-91348856D01*
X145132340Y-91396475D01*
X145370435Y-91396475D01*
X145560911Y-91348856D01*
X145656149Y-91301237D01*
X145703768Y-91253618D01*
X145751387Y-91158380D01*
X145751387Y-91063142D01*
X145703768Y-90967904D01*
X145656149Y-90920285D01*
X145560911Y-90872666D01*
X145370435Y-90825047D01*
X145132340Y-90825047D01*
X144941864Y-90872666D01*
X144846626Y-90920285D01*
X144799007Y-90967904D01*
X144751387Y-91063142D01*
X144846626Y-91777428D02*
X144799007Y-91825047D01*
X144751387Y-91920285D01*
X144751387Y-92158380D01*
X144799007Y-92253618D01*
X144846626Y-92301237D01*
X144941864Y-92348856D01*
X145037102Y-92348856D01*
X145179959Y-92301237D01*
X145751387Y-91729809D01*
X145751387Y-92348856D01*
X144751387Y-92967904D02*
X144751387Y-93063142D01*
X144799007Y-93158380D01*
X144846626Y-93205999D01*
X144941864Y-93253618D01*
X145132340Y-93301237D01*
X145370435Y-93301237D01*
X145560911Y-93253618D01*
X145656149Y-93205999D01*
X145703768Y-93158380D01*
X145751387Y-93063142D01*
X145751387Y-92967904D01*
X145703768Y-92872666D01*
X145656149Y-92825047D01*
X145560911Y-92777428D01*
X145370435Y-92729809D01*
X145132340Y-92729809D01*
X144941864Y-92777428D01*
X144846626Y-92825047D01*
X144799007Y-92872666D01*
X144751387Y-92967904D01*
X145751387Y-94253618D02*
X145751387Y-93682190D01*
X145751387Y-93967904D02*
X144751387Y-93967904D01*
X144894245Y-93872666D01*
X144989483Y-93777428D01*
X145037102Y-93682190D01*
X144846626Y-94634571D02*
X144799007Y-94682190D01*
X144751387Y-94777428D01*
X144751387Y-95015523D01*
X144799007Y-95110761D01*
X144846626Y-95158380D01*
X144941864Y-95205999D01*
X145037102Y-95205999D01*
X145179959Y-95158380D01*
X145751387Y-94586952D01*
X145751387Y-95205999D01*
X144751387Y-95539333D02*
X144751387Y-96158380D01*
X145132340Y-95825047D01*
X145132340Y-95967904D01*
X145179959Y-96063142D01*
X145227578Y-96110761D01*
X145322816Y-96158380D01*
X145560911Y-96158380D01*
X145656149Y-96110761D01*
X145703768Y-96063142D01*
X145751387Y-95967904D01*
X145751387Y-95682190D01*
X145703768Y-95586952D01*
X145656149Y-95539333D01*
X145751387Y-97110761D02*
X145751387Y-96539333D01*
X145751387Y-96825047D02*
X144751387Y-96825047D01*
X144894245Y-96729809D01*
X144989483Y-96634571D01*
X145037102Y-96539333D01*
X145084721Y-56377809D02*
X145894245Y-56377809D01*
X145989483Y-56330190D01*
X146037102Y-56282571D01*
X146084721Y-56187333D01*
X146084721Y-56044475D01*
X146037102Y-55949237D01*
X145703768Y-56377809D02*
X145751387Y-56282571D01*
X145751387Y-56092094D01*
X145703768Y-55996856D01*
X145656149Y-55949237D01*
X145560911Y-55901618D01*
X145275197Y-55901618D01*
X145179959Y-55949237D01*
X145132340Y-55996856D01*
X145084721Y-56092094D01*
X145084721Y-56282571D01*
X145132340Y-56377809D01*
X145751387Y-56853999D02*
X145084721Y-56853999D01*
X144751387Y-56853999D02*
X144799007Y-56806380D01*
X144846626Y-56853999D01*
X144799007Y-56901618D01*
X144751387Y-56853999D01*
X144846626Y-56853999D01*
X145084721Y-57187333D02*
X145084721Y-57568285D01*
X144751387Y-57330190D02*
X145608530Y-57330190D01*
X145703768Y-57377809D01*
X145751387Y-57473047D01*
X145751387Y-57568285D01*
X145751387Y-57901618D02*
X144751387Y-57901618D01*
X145751387Y-58330190D02*
X145227578Y-58330190D01*
X145132340Y-58282571D01*
X145084721Y-58187333D01*
X145084721Y-58044475D01*
X145132340Y-57949237D01*
X145179959Y-57901618D01*
X145084721Y-59234952D02*
X145751387Y-59234952D01*
X145084721Y-58806380D02*
X145608530Y-58806380D01*
X145703768Y-58853999D01*
X145751387Y-58949237D01*
X145751387Y-59092094D01*
X145703768Y-59187333D01*
X145656149Y-59234952D01*
X145751387Y-59711142D02*
X144751387Y-59711142D01*
X145132340Y-59711142D02*
X145084721Y-59806380D01*
X145084721Y-59996856D01*
X145132340Y-60092094D01*
X145179959Y-60139714D01*
X145275197Y-60187333D01*
X145560911Y-60187333D01*
X145656149Y-60139714D01*
X145703768Y-60092094D01*
X145751387Y-59996856D01*
X145751387Y-59806380D01*
X145703768Y-59711142D01*
X145656149Y-60615904D02*
X145703768Y-60663523D01*
X145751387Y-60615904D01*
X145703768Y-60568285D01*
X145656149Y-60615904D01*
X145751387Y-60615904D01*
X145703768Y-61520666D02*
X145751387Y-61425428D01*
X145751387Y-61234952D01*
X145703768Y-61139714D01*
X145656149Y-61092094D01*
X145560911Y-61044475D01*
X145275197Y-61044475D01*
X145179959Y-61092094D01*
X145132340Y-61139714D01*
X145084721Y-61234952D01*
X145084721Y-61425428D01*
X145132340Y-61520666D01*
X145751387Y-62092094D02*
X145703768Y-61996856D01*
X145656149Y-61949237D01*
X145560911Y-61901618D01*
X145275197Y-61901618D01*
X145179959Y-61949237D01*
X145132340Y-61996856D01*
X145084721Y-62092094D01*
X145084721Y-62234952D01*
X145132340Y-62330190D01*
X145179959Y-62377809D01*
X145275197Y-62425428D01*
X145560911Y-62425428D01*
X145656149Y-62377809D01*
X145703768Y-62330190D01*
X145751387Y-62234952D01*
X145751387Y-62092094D01*
X145751387Y-62853999D02*
X145084721Y-62853999D01*
X145179959Y-62853999D02*
X145132340Y-62901618D01*
X145084721Y-62996856D01*
X145084721Y-63139714D01*
X145132340Y-63234952D01*
X145227578Y-63282571D01*
X145751387Y-63282571D01*
X145227578Y-63282571D02*
X145132340Y-63330190D01*
X145084721Y-63425428D01*
X145084721Y-63568285D01*
X145132340Y-63663523D01*
X145227578Y-63711142D01*
X145751387Y-63711142D01*
X144703768Y-64901618D02*
X145989483Y-64044475D01*
X145703768Y-65663523D02*
X145751387Y-65568285D01*
X145751387Y-65377809D01*
X145703768Y-65282571D01*
X145656149Y-65234952D01*
X145560911Y-65187333D01*
X145275197Y-65187333D01*
X145179959Y-65234952D01*
X145132340Y-65282571D01*
X145084721Y-65377809D01*
X145084721Y-65568285D01*
X145132340Y-65663523D01*
X145751387Y-66234952D02*
X145703768Y-66139714D01*
X145608530Y-66092094D01*
X144751387Y-66092094D01*
X145084721Y-66520666D02*
X145751387Y-66758761D01*
X145084721Y-66996856D01*
X145751387Y-67853999D02*
X145751387Y-67377809D01*
X144751387Y-67377809D01*
X145751387Y-68615904D02*
X145227578Y-68615904D01*
X145132340Y-68568285D01*
X145084721Y-68473047D01*
X145084721Y-68282571D01*
X145132340Y-68187333D01*
X145703768Y-68615904D02*
X145751387Y-68520666D01*
X145751387Y-68282571D01*
X145703768Y-68187333D01*
X145608530Y-68139714D01*
X145513292Y-68139714D01*
X145418054Y-68187333D01*
X145370435Y-68282571D01*
X145370435Y-68520666D01*
X145322816Y-68615904D01*
X145751387Y-69092094D02*
X144751387Y-69092094D01*
X145132340Y-69092094D02*
X145084721Y-69187333D01*
X145084721Y-69377809D01*
X145132340Y-69473047D01*
X145179959Y-69520666D01*
X145275197Y-69568285D01*
X145560911Y-69568285D01*
X145656149Y-69520666D01*
X145703768Y-69473047D01*
X145751387Y-69377809D01*
X145751387Y-69187333D01*
X145703768Y-69092094D01*
X145703768Y-69949237D02*
X145751387Y-70044475D01*
X145751387Y-70234952D01*
X145703768Y-70330190D01*
X145608530Y-70377809D01*
X145560911Y-70377809D01*
X145465673Y-70330190D01*
X145418054Y-70234952D01*
X145418054Y-70092094D01*
X145370435Y-69996856D01*
X145275197Y-69949237D01*
X145227578Y-69949237D01*
X145132340Y-69996856D01*
X145084721Y-70092094D01*
X145084721Y-70234952D01*
X145132340Y-70330190D01*
X144703768Y-71520666D02*
X145989483Y-70663523D01*
X145084721Y-72282571D02*
X145894245Y-72282571D01*
X145989483Y-72234952D01*
X146037102Y-72187333D01*
X146084721Y-72092094D01*
X146084721Y-71949237D01*
X146037102Y-71853999D01*
X145703768Y-72282571D02*
X145751387Y-72187333D01*
X145751387Y-71996856D01*
X145703768Y-71901618D01*
X145656149Y-71853999D01*
X145560911Y-71806380D01*
X145275197Y-71806380D01*
X145179959Y-71853999D01*
X145132340Y-71901618D01*
X145084721Y-71996856D01*
X145084721Y-72187333D01*
X145132340Y-72282571D01*
X145751387Y-73187333D02*
X145227578Y-73187333D01*
X145132340Y-73139714D01*
X145084721Y-73044475D01*
X145084721Y-72853999D01*
X145132340Y-72758761D01*
X145703768Y-73187333D02*
X145751387Y-73092094D01*
X145751387Y-72853999D01*
X145703768Y-72758761D01*
X145608530Y-72711142D01*
X145513292Y-72711142D01*
X145418054Y-72758761D01*
X145370435Y-72853999D01*
X145370435Y-73092094D01*
X145322816Y-73187333D01*
X145703768Y-73615904D02*
X145751387Y-73711142D01*
X145751387Y-73901618D01*
X145703768Y-73996856D01*
X145608530Y-74044475D01*
X145560911Y-74044475D01*
X145465673Y-73996856D01*
X145418054Y-73901618D01*
X145418054Y-73758761D01*
X145370435Y-73663523D01*
X145275197Y-73615904D01*
X145227578Y-73615904D01*
X145132340Y-73663523D01*
X145084721Y-73758761D01*
X145084721Y-73901618D01*
X145132340Y-73996856D01*
X145370435Y-74473047D02*
X145370435Y-75234952D01*
X145751387Y-75853999D02*
X145703768Y-75758761D01*
X145656149Y-75711142D01*
X145560911Y-75663523D01*
X145275197Y-75663523D01*
X145179959Y-75711142D01*
X145132340Y-75758761D01*
X145084721Y-75853999D01*
X145084721Y-75996856D01*
X145132340Y-76092094D01*
X145179959Y-76139714D01*
X145275197Y-76187333D01*
X145560911Y-76187333D01*
X145656149Y-76139714D01*
X145703768Y-76092094D01*
X145751387Y-75996856D01*
X145751387Y-75853999D01*
X145751387Y-76615904D02*
X145084721Y-76615904D01*
X144751387Y-76615904D02*
X144799007Y-76568285D01*
X144846626Y-76615904D01*
X144799007Y-76663523D01*
X144751387Y-76615904D01*
X144846626Y-76615904D01*
X145751387Y-77234952D02*
X145703768Y-77139714D01*
X145608530Y-77092094D01*
X144751387Y-77092094D01*
X145370435Y-77615904D02*
X145370435Y-78377809D01*
X145084721Y-78711142D02*
X145084721Y-79092094D01*
X144751387Y-78853999D02*
X145608530Y-78853999D01*
X145703768Y-78901618D01*
X145751387Y-78996856D01*
X145751387Y-79092094D01*
X145751387Y-79853999D02*
X145227578Y-79853999D01*
X145132340Y-79806380D01*
X145084721Y-79711142D01*
X145084721Y-79520666D01*
X145132340Y-79425428D01*
X145703768Y-79853999D02*
X145751387Y-79758761D01*
X145751387Y-79520666D01*
X145703768Y-79425428D01*
X145608530Y-79377809D01*
X145513292Y-79377809D01*
X145418054Y-79425428D01*
X145370435Y-79520666D01*
X145370435Y-79758761D01*
X145322816Y-79853999D01*
X145084721Y-80330190D02*
X145751387Y-80330190D01*
X145179959Y-80330190D02*
X145132340Y-80377809D01*
X145084721Y-80473047D01*
X145084721Y-80615904D01*
X145132340Y-80711142D01*
X145227578Y-80758761D01*
X145751387Y-80758761D01*
X145751387Y-81234952D02*
X144751387Y-81234952D01*
X145370435Y-81330190D02*
X145751387Y-81615904D01*
X145084721Y-81615904D02*
X145465673Y-81234952D01*
X145370435Y-82044475D02*
X145370435Y-82806380D01*
X145751387Y-83425428D02*
X145703768Y-83330190D01*
X145608530Y-83282571D01*
X144751387Y-83282571D01*
X145703768Y-84187333D02*
X145751387Y-84092094D01*
X145751387Y-83901618D01*
X145703768Y-83806380D01*
X145608530Y-83758761D01*
X145227578Y-83758761D01*
X145132340Y-83806380D01*
X145084721Y-83901618D01*
X145084721Y-84092094D01*
X145132340Y-84187333D01*
X145227578Y-84234952D01*
X145322816Y-84234952D01*
X145418054Y-83758761D01*
X145084721Y-84568285D02*
X145751387Y-84806380D01*
X145084721Y-85044475D01*
X145703768Y-85806380D02*
X145751387Y-85711142D01*
X145751387Y-85520666D01*
X145703768Y-85425428D01*
X145608530Y-85377809D01*
X145227578Y-85377809D01*
X145132340Y-85425428D01*
X145084721Y-85520666D01*
X145084721Y-85711142D01*
X145132340Y-85806380D01*
X145227578Y-85853999D01*
X145322816Y-85853999D01*
X145418054Y-85377809D01*
X145751387Y-86425428D02*
X145703768Y-86330190D01*
X145608530Y-86282571D01*
X144751387Y-86282571D01*
X95300721Y-56377809D02*
X96110245Y-56377809D01*
X96205483Y-56330190D01*
X96253102Y-56282571D01*
X96300721Y-56187333D01*
X96300721Y-56044475D01*
X96253102Y-55949237D01*
X95919768Y-56377809D02*
X95967387Y-56282571D01*
X95967387Y-56092094D01*
X95919768Y-55996856D01*
X95872149Y-55949237D01*
X95776911Y-55901618D01*
X95491197Y-55901618D01*
X95395959Y-55949237D01*
X95348340Y-55996856D01*
X95300721Y-56092094D01*
X95300721Y-56282571D01*
X95348340Y-56377809D01*
X95967387Y-56853999D02*
X95300721Y-56853999D01*
X94967387Y-56853999D02*
X95015007Y-56806380D01*
X95062626Y-56853999D01*
X95015007Y-56901618D01*
X94967387Y-56853999D01*
X95062626Y-56853999D01*
X95300721Y-57187333D02*
X95300721Y-57568285D01*
X94967387Y-57330190D02*
X95824530Y-57330190D01*
X95919768Y-57377809D01*
X95967387Y-57473047D01*
X95967387Y-57568285D01*
X95967387Y-57901618D02*
X94967387Y-57901618D01*
X95967387Y-58330190D02*
X95443578Y-58330190D01*
X95348340Y-58282571D01*
X95300721Y-58187333D01*
X95300721Y-58044475D01*
X95348340Y-57949237D01*
X95395959Y-57901618D01*
X95300721Y-59234952D02*
X95967387Y-59234952D01*
X95300721Y-58806380D02*
X95824530Y-58806380D01*
X95919768Y-58853999D01*
X95967387Y-58949237D01*
X95967387Y-59092094D01*
X95919768Y-59187333D01*
X95872149Y-59234952D01*
X95967387Y-59711142D02*
X94967387Y-59711142D01*
X95348340Y-59711142D02*
X95300721Y-59806380D01*
X95300721Y-59996856D01*
X95348340Y-60092094D01*
X95395959Y-60139714D01*
X95491197Y-60187333D01*
X95776911Y-60187333D01*
X95872149Y-60139714D01*
X95919768Y-60092094D01*
X95967387Y-59996856D01*
X95967387Y-59806380D01*
X95919768Y-59711142D01*
X95872149Y-60615904D02*
X95919768Y-60663523D01*
X95967387Y-60615904D01*
X95919768Y-60568285D01*
X95872149Y-60615904D01*
X95967387Y-60615904D01*
X95919768Y-61520666D02*
X95967387Y-61425428D01*
X95967387Y-61234952D01*
X95919768Y-61139714D01*
X95872149Y-61092094D01*
X95776911Y-61044475D01*
X95491197Y-61044475D01*
X95395959Y-61092094D01*
X95348340Y-61139714D01*
X95300721Y-61234952D01*
X95300721Y-61425428D01*
X95348340Y-61520666D01*
X95967387Y-62092094D02*
X95919768Y-61996856D01*
X95872149Y-61949237D01*
X95776911Y-61901618D01*
X95491197Y-61901618D01*
X95395959Y-61949237D01*
X95348340Y-61996856D01*
X95300721Y-62092094D01*
X95300721Y-62234952D01*
X95348340Y-62330190D01*
X95395959Y-62377809D01*
X95491197Y-62425428D01*
X95776911Y-62425428D01*
X95872149Y-62377809D01*
X95919768Y-62330190D01*
X95967387Y-62234952D01*
X95967387Y-62092094D01*
X95967387Y-62853999D02*
X95300721Y-62853999D01*
X95395959Y-62853999D02*
X95348340Y-62901618D01*
X95300721Y-62996856D01*
X95300721Y-63139714D01*
X95348340Y-63234952D01*
X95443578Y-63282571D01*
X95967387Y-63282571D01*
X95443578Y-63282571D02*
X95348340Y-63330190D01*
X95300721Y-63425428D01*
X95300721Y-63568285D01*
X95348340Y-63663523D01*
X95443578Y-63711142D01*
X95967387Y-63711142D01*
X94919768Y-64901618D02*
X96205483Y-64044475D01*
X95919768Y-65663523D02*
X95967387Y-65568285D01*
X95967387Y-65377809D01*
X95919768Y-65282571D01*
X95872149Y-65234952D01*
X95776911Y-65187333D01*
X95491197Y-65187333D01*
X95395959Y-65234952D01*
X95348340Y-65282571D01*
X95300721Y-65377809D01*
X95300721Y-65568285D01*
X95348340Y-65663523D01*
X95967387Y-66234952D02*
X95919768Y-66139714D01*
X95824530Y-66092094D01*
X94967387Y-66092094D01*
X95300721Y-66520666D02*
X95967387Y-66758761D01*
X95300721Y-66996856D01*
X95967387Y-67853999D02*
X95967387Y-67377809D01*
X94967387Y-67377809D01*
X95967387Y-68615904D02*
X95443578Y-68615904D01*
X95348340Y-68568285D01*
X95300721Y-68473047D01*
X95300721Y-68282571D01*
X95348340Y-68187333D01*
X95919768Y-68615904D02*
X95967387Y-68520666D01*
X95967387Y-68282571D01*
X95919768Y-68187333D01*
X95824530Y-68139714D01*
X95729292Y-68139714D01*
X95634054Y-68187333D01*
X95586435Y-68282571D01*
X95586435Y-68520666D01*
X95538816Y-68615904D01*
X95967387Y-69092094D02*
X94967387Y-69092094D01*
X95348340Y-69092094D02*
X95300721Y-69187333D01*
X95300721Y-69377809D01*
X95348340Y-69473047D01*
X95395959Y-69520666D01*
X95491197Y-69568285D01*
X95776911Y-69568285D01*
X95872149Y-69520666D01*
X95919768Y-69473047D01*
X95967387Y-69377809D01*
X95967387Y-69187333D01*
X95919768Y-69092094D01*
X95919768Y-69949237D02*
X95967387Y-70044475D01*
X95967387Y-70234952D01*
X95919768Y-70330190D01*
X95824530Y-70377809D01*
X95776911Y-70377809D01*
X95681673Y-70330190D01*
X95634054Y-70234952D01*
X95634054Y-70092094D01*
X95586435Y-69996856D01*
X95491197Y-69949237D01*
X95443578Y-69949237D01*
X95348340Y-69996856D01*
X95300721Y-70092094D01*
X95300721Y-70234952D01*
X95348340Y-70330190D01*
X94919768Y-71520666D02*
X96205483Y-70663523D01*
X95300721Y-72282571D02*
X96110245Y-72282571D01*
X96205483Y-72234952D01*
X96253102Y-72187333D01*
X96300721Y-72092094D01*
X96300721Y-71949237D01*
X96253102Y-71853999D01*
X95919768Y-72282571D02*
X95967387Y-72187333D01*
X95967387Y-71996856D01*
X95919768Y-71901618D01*
X95872149Y-71853999D01*
X95776911Y-71806380D01*
X95491197Y-71806380D01*
X95395959Y-71853999D01*
X95348340Y-71901618D01*
X95300721Y-71996856D01*
X95300721Y-72187333D01*
X95348340Y-72282571D01*
X95967387Y-73187333D02*
X95443578Y-73187333D01*
X95348340Y-73139714D01*
X95300721Y-73044475D01*
X95300721Y-72853999D01*
X95348340Y-72758761D01*
X95919768Y-73187333D02*
X95967387Y-73092094D01*
X95967387Y-72853999D01*
X95919768Y-72758761D01*
X95824530Y-72711142D01*
X95729292Y-72711142D01*
X95634054Y-72758761D01*
X95586435Y-72853999D01*
X95586435Y-73092094D01*
X95538816Y-73187333D01*
X95919768Y-73615904D02*
X95967387Y-73711142D01*
X95967387Y-73901618D01*
X95919768Y-73996856D01*
X95824530Y-74044475D01*
X95776911Y-74044475D01*
X95681673Y-73996856D01*
X95634054Y-73901618D01*
X95634054Y-73758761D01*
X95586435Y-73663523D01*
X95491197Y-73615904D01*
X95443578Y-73615904D01*
X95348340Y-73663523D01*
X95300721Y-73758761D01*
X95300721Y-73901618D01*
X95348340Y-73996856D01*
X95586435Y-74473047D02*
X95586435Y-75234952D01*
X95967387Y-75853999D02*
X95919768Y-75758761D01*
X95872149Y-75711142D01*
X95776911Y-75663523D01*
X95491197Y-75663523D01*
X95395959Y-75711142D01*
X95348340Y-75758761D01*
X95300721Y-75853999D01*
X95300721Y-75996856D01*
X95348340Y-76092094D01*
X95395959Y-76139714D01*
X95491197Y-76187333D01*
X95776911Y-76187333D01*
X95872149Y-76139714D01*
X95919768Y-76092094D01*
X95967387Y-75996856D01*
X95967387Y-75853999D01*
X95967387Y-76615904D02*
X95300721Y-76615904D01*
X94967387Y-76615904D02*
X95015007Y-76568285D01*
X95062626Y-76615904D01*
X95015007Y-76663523D01*
X94967387Y-76615904D01*
X95062626Y-76615904D01*
X95967387Y-77234952D02*
X95919768Y-77139714D01*
X95824530Y-77092094D01*
X94967387Y-77092094D01*
X95586435Y-77615904D02*
X95586435Y-78377809D01*
X95300721Y-78711142D02*
X95300721Y-79092094D01*
X94967387Y-78853999D02*
X95824530Y-78853999D01*
X95919768Y-78901618D01*
X95967387Y-78996856D01*
X95967387Y-79092094D01*
X95967387Y-79853999D02*
X95443578Y-79853999D01*
X95348340Y-79806380D01*
X95300721Y-79711142D01*
X95300721Y-79520666D01*
X95348340Y-79425428D01*
X95919768Y-79853999D02*
X95967387Y-79758761D01*
X95967387Y-79520666D01*
X95919768Y-79425428D01*
X95824530Y-79377809D01*
X95729292Y-79377809D01*
X95634054Y-79425428D01*
X95586435Y-79520666D01*
X95586435Y-79758761D01*
X95538816Y-79853999D01*
X95300721Y-80330190D02*
X95967387Y-80330190D01*
X95395959Y-80330190D02*
X95348340Y-80377809D01*
X95300721Y-80473047D01*
X95300721Y-80615904D01*
X95348340Y-80711142D01*
X95443578Y-80758761D01*
X95967387Y-80758761D01*
X95967387Y-81234952D02*
X94967387Y-81234952D01*
X95586435Y-81330190D02*
X95967387Y-81615904D01*
X95300721Y-81615904D02*
X95681673Y-81234952D01*
X95586435Y-82044475D02*
X95586435Y-82806380D01*
X95967387Y-83425428D02*
X95919768Y-83330190D01*
X95824530Y-83282571D01*
X94967387Y-83282571D01*
X95919768Y-84187333D02*
X95967387Y-84092094D01*
X95967387Y-83901618D01*
X95919768Y-83806380D01*
X95824530Y-83758761D01*
X95443578Y-83758761D01*
X95348340Y-83806380D01*
X95300721Y-83901618D01*
X95300721Y-84092094D01*
X95348340Y-84187333D01*
X95443578Y-84234952D01*
X95538816Y-84234952D01*
X95634054Y-83758761D01*
X95300721Y-84568285D02*
X95967387Y-84806380D01*
X95300721Y-85044475D01*
X95919768Y-85806380D02*
X95967387Y-85711142D01*
X95967387Y-85520666D01*
X95919768Y-85425428D01*
X95824530Y-85377809D01*
X95443578Y-85377809D01*
X95348340Y-85425428D01*
X95300721Y-85520666D01*
X95300721Y-85711142D01*
X95348340Y-85806380D01*
X95443578Y-85853999D01*
X95538816Y-85853999D01*
X95634054Y-85377809D01*
X95967387Y-86425428D02*
X95919768Y-86330190D01*
X95824530Y-86282571D01*
X94967387Y-86282571D01*
X95062626Y-89872666D02*
X95015007Y-89920285D01*
X94967387Y-90015523D01*
X94967387Y-90253618D01*
X95015007Y-90348856D01*
X95062626Y-90396475D01*
X95157864Y-90444094D01*
X95253102Y-90444094D01*
X95395959Y-90396475D01*
X95967387Y-89825047D01*
X95967387Y-90444094D01*
X94967387Y-91063142D02*
X94967387Y-91158380D01*
X95015007Y-91253618D01*
X95062626Y-91301237D01*
X95157864Y-91348856D01*
X95348340Y-91396475D01*
X95586435Y-91396475D01*
X95776911Y-91348856D01*
X95872149Y-91301237D01*
X95919768Y-91253618D01*
X95967387Y-91158380D01*
X95967387Y-91063142D01*
X95919768Y-90967904D01*
X95872149Y-90920285D01*
X95776911Y-90872666D01*
X95586435Y-90825047D01*
X95348340Y-90825047D01*
X95157864Y-90872666D01*
X95062626Y-90920285D01*
X95015007Y-90967904D01*
X94967387Y-91063142D01*
X95062626Y-91777428D02*
X95015007Y-91825047D01*
X94967387Y-91920285D01*
X94967387Y-92158380D01*
X95015007Y-92253618D01*
X95062626Y-92301237D01*
X95157864Y-92348856D01*
X95253102Y-92348856D01*
X95395959Y-92301237D01*
X95967387Y-91729809D01*
X95967387Y-92348856D01*
X94967387Y-92967904D02*
X94967387Y-93063142D01*
X95015007Y-93158380D01*
X95062626Y-93205999D01*
X95157864Y-93253618D01*
X95348340Y-93301237D01*
X95586435Y-93301237D01*
X95776911Y-93253618D01*
X95872149Y-93205999D01*
X95919768Y-93158380D01*
X95967387Y-93063142D01*
X95967387Y-92967904D01*
X95919768Y-92872666D01*
X95872149Y-92825047D01*
X95776911Y-92777428D01*
X95586435Y-92729809D01*
X95348340Y-92729809D01*
X95157864Y-92777428D01*
X95062626Y-92825047D01*
X95015007Y-92872666D01*
X94967387Y-92967904D01*
X95967387Y-94253618D02*
X95967387Y-93682190D01*
X95967387Y-93967904D02*
X94967387Y-93967904D01*
X95110245Y-93872666D01*
X95205483Y-93777428D01*
X95253102Y-93682190D01*
X95062626Y-94634571D02*
X95015007Y-94682190D01*
X94967387Y-94777428D01*
X94967387Y-95015523D01*
X95015007Y-95110761D01*
X95062626Y-95158380D01*
X95157864Y-95205999D01*
X95253102Y-95205999D01*
X95395959Y-95158380D01*
X95967387Y-94586952D01*
X95967387Y-95205999D01*
X94967387Y-95539333D02*
X94967387Y-96158380D01*
X95348340Y-95825047D01*
X95348340Y-95967904D01*
X95395959Y-96063142D01*
X95443578Y-96110761D01*
X95538816Y-96158380D01*
X95776911Y-96158380D01*
X95872149Y-96110761D01*
X95919768Y-96063142D01*
X95967387Y-95967904D01*
X95967387Y-95682190D01*
X95919768Y-95586952D01*
X95872149Y-95539333D01*
X95967387Y-97110761D02*
X95967387Y-96539333D01*
X95967387Y-96825047D02*
X94967387Y-96825047D01*
X95110245Y-96729809D01*
X95205483Y-96634571D01*
X95253102Y-96539333D01*
X55337255Y-60687210D02*
X55337255Y-61163400D01*
X55622969Y-60591972D02*
X54622969Y-60925305D01*
X55622969Y-61258638D01*
X55622969Y-61591972D02*
X54956303Y-61591972D01*
X55146779Y-61591972D02*
X55051541Y-61639591D01*
X55003922Y-61687210D01*
X54956303Y-61782448D01*
X54956303Y-61877686D01*
X55622969Y-62639591D02*
X54622969Y-62639591D01*
X55575350Y-62639591D02*
X55622969Y-62544353D01*
X55622969Y-62353876D01*
X55575350Y-62258638D01*
X55527731Y-62211019D01*
X55432493Y-62163400D01*
X55146779Y-62163400D01*
X55051541Y-62211019D01*
X55003922Y-62258638D01*
X54956303Y-62353876D01*
X54956303Y-62544353D01*
X55003922Y-62639591D01*
X54956303Y-63544353D02*
X55622969Y-63544353D01*
X54956303Y-63115781D02*
X55480112Y-63115781D01*
X55575350Y-63163400D01*
X55622969Y-63258638D01*
X55622969Y-63401495D01*
X55575350Y-63496733D01*
X55527731Y-63544353D01*
X55622969Y-64020543D02*
X54956303Y-64020543D01*
X54622969Y-64020543D02*
X54670589Y-63972924D01*
X54718208Y-64020543D01*
X54670589Y-64068162D01*
X54622969Y-64020543D01*
X54718208Y-64020543D01*
X54956303Y-64496733D02*
X55622969Y-64496733D01*
X55051541Y-64496733D02*
X55003922Y-64544353D01*
X54956303Y-64639591D01*
X54956303Y-64782448D01*
X55003922Y-64877686D01*
X55099160Y-64925305D01*
X55622969Y-64925305D01*
X55622969Y-65544353D02*
X55575350Y-65449114D01*
X55527731Y-65401495D01*
X55432493Y-65353876D01*
X55146779Y-65353876D01*
X55051541Y-65401495D01*
X55003922Y-65449114D01*
X54956303Y-65544353D01*
X54956303Y-65687210D01*
X55003922Y-65782448D01*
X55051541Y-65830067D01*
X55146779Y-65877686D01*
X55432493Y-65877686D01*
X55527731Y-65830067D01*
X55575350Y-65782448D01*
X55622969Y-65687210D01*
X55622969Y-65544353D01*
X55622969Y-67068162D02*
X54622969Y-67068162D01*
X55622969Y-67639591D01*
X54622969Y-67639591D01*
X55622969Y-68544353D02*
X55099160Y-68544353D01*
X55003922Y-68496733D01*
X54956303Y-68401495D01*
X54956303Y-68211019D01*
X55003922Y-68115781D01*
X55575350Y-68544353D02*
X55622969Y-68449114D01*
X55622969Y-68211019D01*
X55575350Y-68115781D01*
X55480112Y-68068162D01*
X55384874Y-68068162D01*
X55289636Y-68115781D01*
X55242017Y-68211019D01*
X55242017Y-68449114D01*
X55194398Y-68544353D01*
X54956303Y-69020543D02*
X55622969Y-69020543D01*
X55051541Y-69020543D02*
X55003922Y-69068162D01*
X54956303Y-69163400D01*
X54956303Y-69306257D01*
X55003922Y-69401495D01*
X55099160Y-69449114D01*
X55622969Y-69449114D01*
X55622969Y-70068162D02*
X55575350Y-69972924D01*
X55527731Y-69925305D01*
X55432493Y-69877686D01*
X55146779Y-69877686D01*
X55051541Y-69925305D01*
X55003922Y-69972924D01*
X54956303Y-70068162D01*
X54956303Y-70211019D01*
X55003922Y-70306257D01*
X55051541Y-70353876D01*
X55146779Y-70401495D01*
X55432493Y-70401495D01*
X55527731Y-70353876D01*
X55575350Y-70306257D01*
X55622969Y-70211019D01*
X55622969Y-70068162D01*
D11*
X131583007Y-134379075D02*
X131583007Y-135069075D01*
X131583007Y-144999075D02*
X131583007Y-144309075D01*
X133303007Y-135069075D02*
X133303007Y-144309075D01*
X129863007Y-135069075D02*
X133303007Y-135069075D01*
X129863007Y-144309075D02*
X129863007Y-135069075D01*
X133303007Y-144309075D02*
X129863007Y-144309075D01*
X106818589Y-106323075D02*
X124858589Y-106323075D01*
X106818589Y-149763075D02*
X106818589Y-106323075D01*
X124858589Y-149763075D02*
X106818589Y-149763075D01*
X122188589Y-147093075D02*
X124858589Y-147093075D01*
X122188589Y-111533075D02*
X122188589Y-147093075D01*
X122188589Y-111533075D02*
X124858589Y-111533075D01*
X109488589Y-147093075D02*
X106818589Y-147093075D01*
X109488589Y-108993075D02*
X109488589Y-147093075D01*
X109488589Y-108993075D02*
X106818589Y-108993075D01*
X124858589Y-106323075D02*
X124858589Y-108993075D01*
X124858589Y-111533075D02*
X124858589Y-149763075D01*
X122188589Y-108993075D02*
X124858589Y-108993075D01*
X122188589Y-111533075D02*
X122188589Y-108993075D01*
X129026589Y-115645075D02*
X125586589Y-115645075D01*
X125586589Y-115645075D02*
X125586589Y-106405075D01*
X125586589Y-106405075D02*
X129026589Y-106405075D01*
X129026589Y-106405075D02*
X129026589Y-115645075D01*
X127306589Y-116335075D02*
X127306589Y-115645075D01*
X127306589Y-105715075D02*
X127306589Y-106405075D01*
X127306589Y-134379075D02*
X127306589Y-135069075D01*
X127306589Y-144999075D02*
X127306589Y-144309075D01*
X129026589Y-135069075D02*
X129026589Y-144309075D01*
X125586589Y-135069075D02*
X129026589Y-135069075D01*
X125586589Y-144309075D02*
X125586589Y-135069075D01*
X129026589Y-144309075D02*
X125586589Y-144309075D01*
X81294589Y-105715075D02*
X81294589Y-106405075D01*
X81294589Y-116335075D02*
X81294589Y-115645075D01*
X83014589Y-106405075D02*
X83014589Y-115645075D01*
X79574589Y-106405075D02*
X83014589Y-106405075D01*
X79574589Y-115645075D02*
X79574589Y-106405075D01*
X83014589Y-115645075D02*
X79574589Y-115645075D01*
X77522589Y-134379075D02*
X77522589Y-135069075D01*
X77522589Y-144999075D02*
X77522589Y-144309075D01*
X79242589Y-135069075D02*
X79242589Y-144309075D01*
X75802589Y-135069075D02*
X79242589Y-135069075D01*
X75802589Y-144309075D02*
X75802589Y-135069075D01*
X79242589Y-144309075D02*
X75802589Y-144309075D01*
X57034589Y-106323075D02*
X75074589Y-106323075D01*
X57034589Y-149763075D02*
X57034589Y-106323075D01*
X75074589Y-149763075D02*
X57034589Y-149763075D01*
X72404589Y-147093075D02*
X75074589Y-147093075D01*
X72404589Y-111533075D02*
X72404589Y-147093075D01*
X72404589Y-111533075D02*
X75074589Y-111533075D01*
X59704589Y-147093075D02*
X57034589Y-147093075D01*
X59704589Y-108993075D02*
X59704589Y-147093075D01*
X59704589Y-108993075D02*
X57034589Y-108993075D01*
X75074589Y-106323075D02*
X75074589Y-108993075D01*
X75074589Y-111533075D02*
X75074589Y-149763075D01*
X72404589Y-108993075D02*
X75074589Y-108993075D01*
X72404589Y-111533075D02*
X72404589Y-108993075D01*
X79242589Y-115645075D02*
X75802589Y-115645075D01*
X75802589Y-115645075D02*
X75802589Y-106405075D01*
X75802589Y-106405075D02*
X79242589Y-106405075D01*
X79242589Y-106405075D02*
X79242589Y-115645075D01*
X77522589Y-116335075D02*
X77522589Y-115645075D01*
X77522589Y-105715075D02*
X77522589Y-106405075D01*
X81799007Y-134379075D02*
X81799007Y-135069075D01*
X81799007Y-144999075D02*
X81799007Y-144309075D01*
X83519007Y-135069075D02*
X83519007Y-144309075D01*
X80079007Y-135069075D02*
X83519007Y-135069075D01*
X80079007Y-144309075D02*
X80079007Y-135069075D01*
X83519007Y-144309075D02*
X80079007Y-144309075D01*
X131078589Y-105715075D02*
X131078589Y-106405075D01*
X131078589Y-116335075D02*
X131078589Y-115645075D01*
X132798589Y-106405075D02*
X132798589Y-115645075D01*
X129358589Y-106405075D02*
X132798589Y-106405075D01*
X129358589Y-115645075D02*
X129358589Y-106405075D01*
X132798589Y-115645075D02*
X129358589Y-115645075D01*
X131078589Y-56439075D02*
X131078589Y-57129075D01*
X131078589Y-67059075D02*
X131078589Y-66369075D01*
X132798589Y-57129075D02*
X132798589Y-66369075D01*
X129358589Y-57129075D02*
X132798589Y-57129075D01*
X129358589Y-66369075D02*
X129358589Y-57129075D01*
X132798589Y-66369075D02*
X129358589Y-66369075D01*
X127306589Y-85103075D02*
X127306589Y-85793075D01*
X127306589Y-95723075D02*
X127306589Y-95033075D01*
X129026589Y-85793075D02*
X129026589Y-95033075D01*
X125586589Y-85793075D02*
X129026589Y-85793075D01*
X125586589Y-95033075D02*
X125586589Y-85793075D01*
X129026589Y-95033075D02*
X125586589Y-95033075D01*
X106818589Y-57047075D02*
X124858589Y-57047075D01*
X106818589Y-100487075D02*
X106818589Y-57047075D01*
X124858589Y-100487075D02*
X106818589Y-100487075D01*
X122188589Y-97817075D02*
X124858589Y-97817075D01*
X122188589Y-62257075D02*
X122188589Y-97817075D01*
X122188589Y-62257075D02*
X124858589Y-62257075D01*
X109488589Y-97817075D02*
X106818589Y-97817075D01*
X109488589Y-59717075D02*
X109488589Y-97817075D01*
X109488589Y-59717075D02*
X106818589Y-59717075D01*
X124858589Y-57047075D02*
X124858589Y-59717075D01*
X124858589Y-62257075D02*
X124858589Y-100487075D01*
X122188589Y-59717075D02*
X124858589Y-59717075D01*
X122188589Y-62257075D02*
X122188589Y-59717075D01*
X129026589Y-66369075D02*
X125586589Y-66369075D01*
X125586589Y-66369075D02*
X125586589Y-57129075D01*
X125586589Y-57129075D02*
X129026589Y-57129075D01*
X129026589Y-57129075D02*
X129026589Y-66369075D01*
X127306589Y-67059075D02*
X127306589Y-66369075D01*
X127306589Y-56439075D02*
X127306589Y-57129075D01*
X131583007Y-85103075D02*
X131583007Y-85793075D01*
X131583007Y-95723075D02*
X131583007Y-95033075D01*
X133303007Y-85793075D02*
X133303007Y-95033075D01*
X129863007Y-85793075D02*
X133303007Y-85793075D01*
X129863007Y-95033075D02*
X129863007Y-85793075D01*
X133303007Y-95033075D02*
X129863007Y-95033075D01*
X57034589Y-57047075D02*
X75074589Y-57047075D01*
X57034589Y-100487075D02*
X57034589Y-57047075D01*
X75074589Y-100487075D02*
X57034589Y-100487075D01*
X72404589Y-97817075D02*
X75074589Y-97817075D01*
X72404589Y-62257075D02*
X72404589Y-97817075D01*
X72404589Y-62257075D02*
X75074589Y-62257075D01*
X59704589Y-97817075D02*
X57034589Y-97817075D01*
X59704589Y-59717075D02*
X59704589Y-97817075D01*
X59704589Y-59717075D02*
X57034589Y-59717075D01*
X75074589Y-57047075D02*
X75074589Y-59717075D01*
X75074589Y-62257075D02*
X75074589Y-100487075D01*
X72404589Y-59717075D02*
X75074589Y-59717075D01*
X72404589Y-62257075D02*
X72404589Y-59717075D01*
X77522589Y-85103075D02*
X77522589Y-85793075D01*
X77522589Y-95723075D02*
X77522589Y-95033075D01*
X79242589Y-85793075D02*
X79242589Y-95033075D01*
X75802589Y-85793075D02*
X79242589Y-85793075D01*
X75802589Y-95033075D02*
X75802589Y-85793075D01*
X79242589Y-95033075D02*
X75802589Y-95033075D01*
X81799007Y-85103075D02*
X81799007Y-85793075D01*
X81799007Y-95723075D02*
X81799007Y-95033075D01*
X83519007Y-85793075D02*
X83519007Y-95033075D01*
X80079007Y-85793075D02*
X83519007Y-85793075D01*
X80079007Y-95033075D02*
X80079007Y-85793075D01*
X83519007Y-95033075D02*
X80079007Y-95033075D01*
X79242589Y-66369075D02*
X75802589Y-66369075D01*
X75802589Y-66369075D02*
X75802589Y-57129075D01*
X75802589Y-57129075D02*
X79242589Y-57129075D01*
X79242589Y-57129075D02*
X79242589Y-66369075D01*
X77522589Y-67059075D02*
X77522589Y-66369075D01*
X77522589Y-56439075D02*
X77522589Y-57129075D01*
X81294589Y-56439075D02*
X81294589Y-57129075D01*
X81294589Y-67059075D02*
X81294589Y-66369075D01*
X83014589Y-57129075D02*
X83014589Y-66369075D01*
X79574589Y-57129075D02*
X83014589Y-57129075D01*
X79574589Y-66369075D02*
X79574589Y-57129075D01*
X83014589Y-66369075D02*
X79574589Y-66369075D01*
D10*
X131756416Y-132191076D02*
X132089750Y-131714886D01*
X132327845Y-132191076D02*
X132327845Y-131191076D01*
X131946892Y-131191076D01*
X131851654Y-131238696D01*
X131804035Y-131286315D01*
X131756416Y-131381553D01*
X131756416Y-131524410D01*
X131804035Y-131619648D01*
X131851654Y-131667267D01*
X131946892Y-131714886D01*
X132327845Y-131714886D01*
X130899273Y-131524410D02*
X130899273Y-132191076D01*
X131137369Y-131143457D02*
X131375464Y-131857743D01*
X130756416Y-131857743D01*
X105121255Y-106994067D02*
X105121255Y-107470257D01*
X105406969Y-106898829D02*
X104406969Y-107232162D01*
X105406969Y-107565495D01*
X105406969Y-108422638D02*
X105406969Y-107851210D01*
X105406969Y-108136924D02*
X104406969Y-108136924D01*
X104549827Y-108041686D01*
X104645065Y-107946448D01*
X104692684Y-107851210D01*
X127364353Y-103072355D02*
X127697687Y-102596165D01*
X127935782Y-103072355D02*
X127935782Y-102072355D01*
X127554829Y-102072355D01*
X127459591Y-102119975D01*
X127411972Y-102167594D01*
X127364353Y-102262832D01*
X127364353Y-102405689D01*
X127411972Y-102500927D01*
X127459591Y-102548546D01*
X127554829Y-102596165D01*
X127935782Y-102596165D01*
X126411972Y-103072355D02*
X126983401Y-103072355D01*
X126697687Y-103072355D02*
X126697687Y-102072355D01*
X126792925Y-102215213D01*
X126888163Y-102310451D01*
X126983401Y-102358070D01*
X127479998Y-132191076D02*
X127813332Y-131714886D01*
X128051427Y-132191076D02*
X128051427Y-131191076D01*
X127670474Y-131191076D01*
X127575236Y-131238696D01*
X127527617Y-131286315D01*
X127479998Y-131381553D01*
X127479998Y-131524410D01*
X127527617Y-131619648D01*
X127575236Y-131667267D01*
X127670474Y-131714886D01*
X128051427Y-131714886D01*
X127146665Y-131191076D02*
X126527617Y-131191076D01*
X126860951Y-131572029D01*
X126718093Y-131572029D01*
X126622855Y-131619648D01*
X126575236Y-131667267D01*
X126527617Y-131762505D01*
X126527617Y-132000600D01*
X126575236Y-132095838D01*
X126622855Y-132143457D01*
X126718093Y-132191076D01*
X127003808Y-132191076D01*
X127099046Y-132143457D01*
X127146665Y-132095838D01*
X81457673Y-103088094D02*
X81791007Y-102611904D01*
X82029102Y-103088094D02*
X82029102Y-102088094D01*
X81648149Y-102088094D01*
X81552911Y-102135714D01*
X81505292Y-102183333D01*
X81457673Y-102278571D01*
X81457673Y-102421428D01*
X81505292Y-102516666D01*
X81552911Y-102564285D01*
X81648149Y-102611904D01*
X82029102Y-102611904D01*
X81076721Y-102183333D02*
X81029102Y-102135714D01*
X80933864Y-102088094D01*
X80695768Y-102088094D01*
X80600530Y-102135714D01*
X80552911Y-102183333D01*
X80505292Y-102278571D01*
X80505292Y-102373809D01*
X80552911Y-102516666D01*
X81124340Y-103088094D01*
X80505292Y-103088094D01*
X77695998Y-132191076D02*
X78029332Y-131714886D01*
X78267427Y-132191076D02*
X78267427Y-131191076D01*
X77886474Y-131191076D01*
X77791236Y-131238696D01*
X77743617Y-131286315D01*
X77695998Y-131381553D01*
X77695998Y-131524410D01*
X77743617Y-131619648D01*
X77791236Y-131667267D01*
X77886474Y-131714886D01*
X78267427Y-131714886D01*
X77362665Y-131191076D02*
X76743617Y-131191076D01*
X77076951Y-131572029D01*
X76934093Y-131572029D01*
X76838855Y-131619648D01*
X76791236Y-131667267D01*
X76743617Y-131762505D01*
X76743617Y-132000600D01*
X76791236Y-132095838D01*
X76838855Y-132143457D01*
X76934093Y-132191076D01*
X77219808Y-132191076D01*
X77315046Y-132143457D01*
X77362665Y-132095838D01*
X55337255Y-106994067D02*
X55337255Y-107470257D01*
X55622969Y-106898829D02*
X54622969Y-107232162D01*
X55622969Y-107565495D01*
X55622969Y-108422638D02*
X55622969Y-107851210D01*
X55622969Y-108136924D02*
X54622969Y-108136924D01*
X54765827Y-108041686D01*
X54861065Y-107946448D01*
X54908684Y-107851210D01*
X77580353Y-103072355D02*
X77913687Y-102596165D01*
X78151782Y-103072355D02*
X78151782Y-102072355D01*
X77770829Y-102072355D01*
X77675591Y-102119975D01*
X77627972Y-102167594D01*
X77580353Y-102262832D01*
X77580353Y-102405689D01*
X77627972Y-102500927D01*
X77675591Y-102548546D01*
X77770829Y-102596165D01*
X78151782Y-102596165D01*
X76627972Y-103072355D02*
X77199401Y-103072355D01*
X76913687Y-103072355D02*
X76913687Y-102072355D01*
X77008925Y-102215213D01*
X77104163Y-102310451D01*
X77199401Y-102358070D01*
X81972416Y-132191076D02*
X82305750Y-131714886D01*
X82543845Y-132191076D02*
X82543845Y-131191076D01*
X82162892Y-131191076D01*
X82067654Y-131238696D01*
X82020035Y-131286315D01*
X81972416Y-131381553D01*
X81972416Y-131524410D01*
X82020035Y-131619648D01*
X82067654Y-131667267D01*
X82162892Y-131714886D01*
X82543845Y-131714886D01*
X81115273Y-131524410D02*
X81115273Y-132191076D01*
X81353369Y-131143457D02*
X81591464Y-131857743D01*
X80972416Y-131857743D01*
X131241673Y-103088094D02*
X131575007Y-102611904D01*
X131813102Y-103088094D02*
X131813102Y-102088094D01*
X131432149Y-102088094D01*
X131336911Y-102135714D01*
X131289292Y-102183333D01*
X131241673Y-102278571D01*
X131241673Y-102421428D01*
X131289292Y-102516666D01*
X131336911Y-102564285D01*
X131432149Y-102611904D01*
X131813102Y-102611904D01*
X130860721Y-102183333D02*
X130813102Y-102135714D01*
X130717864Y-102088094D01*
X130479768Y-102088094D01*
X130384530Y-102135714D01*
X130336911Y-102183333D01*
X130289292Y-102278571D01*
X130289292Y-102373809D01*
X130336911Y-102516666D01*
X130908340Y-103088094D01*
X130289292Y-103088094D01*
X131241673Y-53812094D02*
X131575007Y-53335904D01*
X131813102Y-53812094D02*
X131813102Y-52812094D01*
X131432149Y-52812094D01*
X131336911Y-52859714D01*
X131289292Y-52907333D01*
X131241673Y-53002571D01*
X131241673Y-53145428D01*
X131289292Y-53240666D01*
X131336911Y-53288285D01*
X131432149Y-53335904D01*
X131813102Y-53335904D01*
X130860721Y-52907333D02*
X130813102Y-52859714D01*
X130717864Y-52812094D01*
X130479768Y-52812094D01*
X130384530Y-52859714D01*
X130336911Y-52907333D01*
X130289292Y-53002571D01*
X130289292Y-53097809D01*
X130336911Y-53240666D01*
X130908340Y-53812094D01*
X130289292Y-53812094D01*
X127479998Y-82915076D02*
X127813332Y-82438886D01*
X128051427Y-82915076D02*
X128051427Y-81915076D01*
X127670474Y-81915076D01*
X127575236Y-81962696D01*
X127527617Y-82010315D01*
X127479998Y-82105553D01*
X127479998Y-82248410D01*
X127527617Y-82343648D01*
X127575236Y-82391267D01*
X127670474Y-82438886D01*
X128051427Y-82438886D01*
X127146665Y-81915076D02*
X126527617Y-81915076D01*
X126860951Y-82296029D01*
X126718093Y-82296029D01*
X126622855Y-82343648D01*
X126575236Y-82391267D01*
X126527617Y-82486505D01*
X126527617Y-82724600D01*
X126575236Y-82819838D01*
X126622855Y-82867457D01*
X126718093Y-82915076D01*
X127003808Y-82915076D01*
X127099046Y-82867457D01*
X127146665Y-82819838D01*
X105121255Y-57718067D02*
X105121255Y-58194257D01*
X105406969Y-57622829D02*
X104406969Y-57956162D01*
X105406969Y-58289495D01*
X105406969Y-59146638D02*
X105406969Y-58575210D01*
X105406969Y-58860924D02*
X104406969Y-58860924D01*
X104549827Y-58765686D01*
X104645065Y-58670448D01*
X104692684Y-58575210D01*
X127364353Y-53796355D02*
X127697687Y-53320165D01*
X127935782Y-53796355D02*
X127935782Y-52796355D01*
X127554829Y-52796355D01*
X127459591Y-52843975D01*
X127411972Y-52891594D01*
X127364353Y-52986832D01*
X127364353Y-53129689D01*
X127411972Y-53224927D01*
X127459591Y-53272546D01*
X127554829Y-53320165D01*
X127935782Y-53320165D01*
X126411972Y-53796355D02*
X126983401Y-53796355D01*
X126697687Y-53796355D02*
X126697687Y-52796355D01*
X126792925Y-52939213D01*
X126888163Y-53034451D01*
X126983401Y-53082070D01*
X131756416Y-82915076D02*
X132089750Y-82438886D01*
X132327845Y-82915076D02*
X132327845Y-81915076D01*
X131946892Y-81915076D01*
X131851654Y-81962696D01*
X131804035Y-82010315D01*
X131756416Y-82105553D01*
X131756416Y-82248410D01*
X131804035Y-82343648D01*
X131851654Y-82391267D01*
X131946892Y-82438886D01*
X132327845Y-82438886D01*
X130899273Y-82248410D02*
X130899273Y-82915076D01*
X131137369Y-81867457D02*
X131375464Y-82581743D01*
X130756416Y-82581743D01*
X55337255Y-57718067D02*
X55337255Y-58194257D01*
X55622969Y-57622829D02*
X54622969Y-57956162D01*
X55622969Y-58289495D01*
X55622969Y-59146638D02*
X55622969Y-58575210D01*
X55622969Y-58860924D02*
X54622969Y-58860924D01*
X54765827Y-58765686D01*
X54861065Y-58670448D01*
X54908684Y-58575210D01*
X77695998Y-82915076D02*
X78029332Y-82438886D01*
X78267427Y-82915076D02*
X78267427Y-81915076D01*
X77886474Y-81915076D01*
X77791236Y-81962696D01*
X77743617Y-82010315D01*
X77695998Y-82105553D01*
X77695998Y-82248410D01*
X77743617Y-82343648D01*
X77791236Y-82391267D01*
X77886474Y-82438886D01*
X78267427Y-82438886D01*
X77362665Y-81915076D02*
X76743617Y-81915076D01*
X77076951Y-82296029D01*
X76934093Y-82296029D01*
X76838855Y-82343648D01*
X76791236Y-82391267D01*
X76743617Y-82486505D01*
X76743617Y-82724600D01*
X76791236Y-82819838D01*
X76838855Y-82867457D01*
X76934093Y-82915076D01*
X77219808Y-82915076D01*
X77315046Y-82867457D01*
X77362665Y-82819838D01*
X81972416Y-82915076D02*
X82305750Y-82438886D01*
X82543845Y-82915076D02*
X82543845Y-81915076D01*
X82162892Y-81915076D01*
X82067654Y-81962696D01*
X82020035Y-82010315D01*
X81972416Y-82105553D01*
X81972416Y-82248410D01*
X82020035Y-82343648D01*
X82067654Y-82391267D01*
X82162892Y-82438886D01*
X82543845Y-82438886D01*
X81115273Y-82248410D02*
X81115273Y-82915076D01*
X81353369Y-81867457D02*
X81591464Y-82581743D01*
X80972416Y-82581743D01*
X77580353Y-53796355D02*
X77913687Y-53320165D01*
X78151782Y-53796355D02*
X78151782Y-52796355D01*
X77770829Y-52796355D01*
X77675591Y-52843975D01*
X77627972Y-52891594D01*
X77580353Y-52986832D01*
X77580353Y-53129689D01*
X77627972Y-53224927D01*
X77675591Y-53272546D01*
X77770829Y-53320165D01*
X78151782Y-53320165D01*
X76627972Y-53796355D02*
X77199401Y-53796355D01*
X76913687Y-53796355D02*
X76913687Y-52796355D01*
X77008925Y-52939213D01*
X77104163Y-53034451D01*
X77199401Y-53082070D01*
X81457673Y-53812094D02*
X81791007Y-53335904D01*
X82029102Y-53812094D02*
X82029102Y-52812094D01*
X81648149Y-52812094D01*
X81552911Y-52859714D01*
X81505292Y-52907333D01*
X81457673Y-53002571D01*
X81457673Y-53145428D01*
X81505292Y-53240666D01*
X81552911Y-53288285D01*
X81648149Y-53335904D01*
X82029102Y-53335904D01*
X81076721Y-52907333D02*
X81029102Y-52859714D01*
X80933864Y-52812094D01*
X80695768Y-52812094D01*
X80600530Y-52859714D01*
X80552911Y-52907333D01*
X80505292Y-53002571D01*
X80505292Y-53097809D01*
X80552911Y-53240666D01*
X81124340Y-53812094D01*
X80505292Y-53812094D01*
M02*
