G04 #@! TF.GenerationSoftware,KiCad,Pcbnew,5.1.7-a382d34a8~88~ubuntu18.04.1*
G04 #@! TF.CreationDate,2020-12-31T00:37:57+01:00*
G04 #@! TF.ProjectId,main-board,6d61696e-2d62-46f6-9172-642e6b696361,rev?*
G04 #@! TF.SameCoordinates,Original*
G04 #@! TF.FileFunction,Legend,Top*
G04 #@! TF.FilePolarity,Positive*
%FSLAX46Y46*%
G04 Gerber Fmt 4.6, Leading zero omitted, Abs format (unit mm)*
G04 Created by KiCad (PCBNEW 5.1.7-a382d34a8~88~ubuntu18.04.1) date 2020-12-31 00:37:57*
%MOMM*%
%LPD*%
G01*
G04 APERTURE LIST*
%ADD10C,0.120000*%
%ADD11C,0.150000*%
%ADD12C,0.100000*%
G04 APERTURE END LIST*
D10*
X132132016Y-101556044D02*
X132132016Y-106556044D01*
D11*
X103195859Y-139718289D02*
X103243478Y-139575432D01*
X103243478Y-139337337D01*
X103195859Y-139242099D01*
X103148240Y-139194480D01*
X103053002Y-139146861D01*
X102957764Y-139146861D01*
X102862526Y-139194480D01*
X102814907Y-139242099D01*
X102767288Y-139337337D01*
X102719669Y-139527813D01*
X102672050Y-139623051D01*
X102624431Y-139670670D01*
X102529193Y-139718289D01*
X102433955Y-139718289D01*
X102338717Y-139670670D01*
X102291098Y-139623051D01*
X102243478Y-139527813D01*
X102243478Y-139289718D01*
X102291098Y-139146861D01*
X102719669Y-138718289D02*
X102719669Y-138384956D01*
X103243478Y-138242099D02*
X103243478Y-138718289D01*
X102243478Y-138718289D01*
X102243478Y-138242099D01*
X103243478Y-137813527D02*
X102243478Y-137813527D01*
X103243478Y-137242099D01*
X102243478Y-137242099D01*
X103195859Y-136813527D02*
X103243478Y-136670670D01*
X103243478Y-136432575D01*
X103195859Y-136337337D01*
X103148240Y-136289718D01*
X103053002Y-136242099D01*
X102957764Y-136242099D01*
X102862526Y-136289718D01*
X102814907Y-136337337D01*
X102767288Y-136432575D01*
X102719669Y-136623051D01*
X102672050Y-136718289D01*
X102624431Y-136765908D01*
X102529193Y-136813527D01*
X102433955Y-136813527D01*
X102338717Y-136765908D01*
X102291098Y-136718289D01*
X102243478Y-136623051D01*
X102243478Y-136384956D01*
X102291098Y-136242099D01*
X102243478Y-135623051D02*
X102243478Y-135432575D01*
X102291098Y-135337337D01*
X102386336Y-135242099D01*
X102576812Y-135194480D01*
X102910145Y-135194480D01*
X103100621Y-135242099D01*
X103195859Y-135337337D01*
X103243478Y-135432575D01*
X103243478Y-135623051D01*
X103195859Y-135718289D01*
X103100621Y-135813527D01*
X102910145Y-135861146D01*
X102576812Y-135861146D01*
X102386336Y-135813527D01*
X102291098Y-135718289D01*
X102243478Y-135623051D01*
X103243478Y-134194480D02*
X102767288Y-134527813D01*
X103243478Y-134765908D02*
X102243478Y-134765908D01*
X102243478Y-134384956D01*
X102291098Y-134289718D01*
X102338717Y-134242099D01*
X102433955Y-134194480D01*
X102576812Y-134194480D01*
X102672050Y-134242099D01*
X102719669Y-134289718D01*
X102767288Y-134384956D01*
X102767288Y-134765908D01*
D10*
X104145001Y-130854839D02*
X107145001Y-130854839D01*
X104145001Y-125854839D02*
X104145001Y-130854839D01*
X127085001Y-130854839D02*
X132085001Y-130854839D01*
D11*
X102973669Y-140362122D02*
X102973669Y-141124027D01*
X102592717Y-140743075D02*
X103354621Y-140743075D01*
D10*
X132125825Y-125852367D02*
X132125825Y-130852367D01*
X104151192Y-101558516D02*
X109151192Y-101558516D01*
D11*
X136282054Y-145694511D02*
X137043959Y-145694511D01*
X141631959Y-146268094D02*
X141822435Y-146268094D01*
X141917673Y-146220475D01*
X141965292Y-146172856D01*
X142060530Y-146029999D01*
X142108149Y-145839523D01*
X142108149Y-145458571D01*
X142060530Y-145363333D01*
X142012911Y-145315714D01*
X141917673Y-145268094D01*
X141727197Y-145268094D01*
X141631959Y-145315714D01*
X141584340Y-145363333D01*
X141536721Y-145458571D01*
X141536721Y-145696666D01*
X141584340Y-145791904D01*
X141631959Y-145839523D01*
X141727197Y-145887142D01*
X141917673Y-145887142D01*
X142012911Y-145839523D01*
X142060530Y-145791904D01*
X142108149Y-145696666D01*
X142393864Y-145268094D02*
X142727197Y-146268094D01*
X143060530Y-145268094D01*
X119466208Y-104851455D02*
X119656684Y-104851455D01*
X119751922Y-104899075D01*
X119847160Y-104994313D01*
X119894779Y-105184789D01*
X119894779Y-105518122D01*
X119847160Y-105708598D01*
X119751922Y-105803836D01*
X119656684Y-105851455D01*
X119466208Y-105851455D01*
X119370969Y-105803836D01*
X119275731Y-105708598D01*
X119228112Y-105518122D01*
X119228112Y-105184789D01*
X119275731Y-104994313D01*
X119370969Y-104899075D01*
X119466208Y-104851455D01*
X120799541Y-105851455D02*
X120323350Y-105851455D01*
X120323350Y-104851455D01*
X121132874Y-105327646D02*
X121466208Y-105327646D01*
X121609065Y-105851455D02*
X121132874Y-105851455D01*
X121132874Y-104851455D01*
X121609065Y-104851455D01*
X122037636Y-105851455D02*
X122037636Y-104851455D01*
X122275731Y-104851455D01*
X122418589Y-104899075D01*
X122513827Y-104994313D01*
X122561446Y-105089551D01*
X122609065Y-105280027D01*
X122609065Y-105422884D01*
X122561446Y-105613360D01*
X122513827Y-105708598D01*
X122418589Y-105803836D01*
X122275731Y-105851455D01*
X122037636Y-105851455D01*
X117743541Y-105551087D02*
X116981636Y-105551087D01*
X115203541Y-105551087D02*
X114441636Y-105551087D01*
X114822589Y-105170135D02*
X114822589Y-105932039D01*
X53189669Y-132742122D02*
X53189669Y-133504027D01*
X69682208Y-104851455D02*
X69872684Y-104851455D01*
X69967922Y-104899075D01*
X70063160Y-104994313D01*
X70110779Y-105184789D01*
X70110779Y-105518122D01*
X70063160Y-105708598D01*
X69967922Y-105803836D01*
X69872684Y-105851455D01*
X69682208Y-105851455D01*
X69586969Y-105803836D01*
X69491731Y-105708598D01*
X69444112Y-105518122D01*
X69444112Y-105184789D01*
X69491731Y-104994313D01*
X69586969Y-104899075D01*
X69682208Y-104851455D01*
X71015541Y-105851455D02*
X70539350Y-105851455D01*
X70539350Y-104851455D01*
X71348874Y-105327646D02*
X71682208Y-105327646D01*
X71825065Y-105851455D02*
X71348874Y-105851455D01*
X71348874Y-104851455D01*
X71825065Y-104851455D01*
X72253636Y-105851455D02*
X72253636Y-104851455D01*
X72491731Y-104851455D01*
X72634589Y-104899075D01*
X72729827Y-104994313D01*
X72777446Y-105089551D01*
X72825065Y-105280027D01*
X72825065Y-105422884D01*
X72777446Y-105613360D01*
X72729827Y-105708598D01*
X72634589Y-105803836D01*
X72491731Y-105851455D01*
X72253636Y-105851455D01*
X67959541Y-105551087D02*
X67197636Y-105551087D01*
X65419541Y-105551087D02*
X64657636Y-105551087D01*
X65038589Y-105170135D02*
X65038589Y-105932039D01*
X91847959Y-146268094D02*
X92038435Y-146268094D01*
X92133673Y-146220475D01*
X92181292Y-146172856D01*
X92276530Y-146029999D01*
X92324149Y-145839523D01*
X92324149Y-145458571D01*
X92276530Y-145363333D01*
X92228911Y-145315714D01*
X92133673Y-145268094D01*
X91943197Y-145268094D01*
X91847959Y-145315714D01*
X91800340Y-145363333D01*
X91752721Y-145458571D01*
X91752721Y-145696666D01*
X91800340Y-145791904D01*
X91847959Y-145839523D01*
X91943197Y-145887142D01*
X92133673Y-145887142D01*
X92228911Y-145839523D01*
X92276530Y-145791904D01*
X92324149Y-145696666D01*
X92609864Y-145268094D02*
X92943197Y-146268094D01*
X93276530Y-145268094D01*
X89038054Y-145694511D02*
X89799959Y-145694511D01*
X89419007Y-146075463D02*
X89419007Y-145313559D01*
X86498054Y-145694511D02*
X87259959Y-145694511D01*
X102973669Y-132742122D02*
X102973669Y-133504027D01*
X138822054Y-145694511D02*
X139583959Y-145694511D01*
X139203007Y-146075463D02*
X139203007Y-145313559D01*
X53189669Y-140362122D02*
X53189669Y-141124027D01*
X52808717Y-140743075D02*
X53570621Y-140743075D01*
D10*
X77307192Y-101558516D02*
X82307192Y-101558516D01*
X54361001Y-130854839D02*
X57361001Y-130854839D01*
X54361001Y-125854839D02*
X54361001Y-130854839D01*
X82348016Y-101556044D02*
X82348016Y-106556044D01*
X77301001Y-130854839D02*
X82301001Y-130854839D01*
X82341825Y-125852367D02*
X82341825Y-130852367D01*
X54367192Y-101558516D02*
X54367192Y-106558516D01*
X54367192Y-101558516D02*
X59367192Y-101558516D01*
D11*
X53411859Y-139718289D02*
X53459478Y-139575432D01*
X53459478Y-139337337D01*
X53411859Y-139242099D01*
X53364240Y-139194480D01*
X53269002Y-139146861D01*
X53173764Y-139146861D01*
X53078526Y-139194480D01*
X53030907Y-139242099D01*
X52983288Y-139337337D01*
X52935669Y-139527813D01*
X52888050Y-139623051D01*
X52840431Y-139670670D01*
X52745193Y-139718289D01*
X52649955Y-139718289D01*
X52554717Y-139670670D01*
X52507098Y-139623051D01*
X52459478Y-139527813D01*
X52459478Y-139289718D01*
X52507098Y-139146861D01*
X52935669Y-138718289D02*
X52935669Y-138384956D01*
X53459478Y-138242099D02*
X53459478Y-138718289D01*
X52459478Y-138718289D01*
X52459478Y-138242099D01*
X53459478Y-137813527D02*
X52459478Y-137813527D01*
X53459478Y-137242099D01*
X52459478Y-137242099D01*
X53411859Y-136813527D02*
X53459478Y-136670670D01*
X53459478Y-136432575D01*
X53411859Y-136337337D01*
X53364240Y-136289718D01*
X53269002Y-136242099D01*
X53173764Y-136242099D01*
X53078526Y-136289718D01*
X53030907Y-136337337D01*
X52983288Y-136432575D01*
X52935669Y-136623051D01*
X52888050Y-136718289D01*
X52840431Y-136765908D01*
X52745193Y-136813527D01*
X52649955Y-136813527D01*
X52554717Y-136765908D01*
X52507098Y-136718289D01*
X52459478Y-136623051D01*
X52459478Y-136384956D01*
X52507098Y-136242099D01*
X52459478Y-135623051D02*
X52459478Y-135432575D01*
X52507098Y-135337337D01*
X52602336Y-135242099D01*
X52792812Y-135194480D01*
X53126145Y-135194480D01*
X53316621Y-135242099D01*
X53411859Y-135337337D01*
X53459478Y-135432575D01*
X53459478Y-135623051D01*
X53411859Y-135718289D01*
X53316621Y-135813527D01*
X53126145Y-135861146D01*
X52792812Y-135861146D01*
X52602336Y-135813527D01*
X52507098Y-135718289D01*
X52459478Y-135623051D01*
X53459478Y-134194480D02*
X52983288Y-134527813D01*
X53459478Y-134765908D02*
X52459478Y-134765908D01*
X52459478Y-134384956D01*
X52507098Y-134289718D01*
X52554717Y-134242099D01*
X52649955Y-134194480D01*
X52792812Y-134194480D01*
X52888050Y-134242099D01*
X52935669Y-134289718D01*
X52983288Y-134384956D01*
X52983288Y-134765908D01*
D10*
X127091192Y-101558516D02*
X132091192Y-101558516D01*
X104151192Y-101558516D02*
X104151192Y-106558516D01*
D11*
X102973669Y-83466122D02*
X102973669Y-84228027D01*
X119466208Y-55575455D02*
X119656684Y-55575455D01*
X119751922Y-55623075D01*
X119847160Y-55718313D01*
X119894779Y-55908789D01*
X119894779Y-56242122D01*
X119847160Y-56432598D01*
X119751922Y-56527836D01*
X119656684Y-56575455D01*
X119466208Y-56575455D01*
X119370969Y-56527836D01*
X119275731Y-56432598D01*
X119228112Y-56242122D01*
X119228112Y-55908789D01*
X119275731Y-55718313D01*
X119370969Y-55623075D01*
X119466208Y-55575455D01*
X120799541Y-56575455D02*
X120323350Y-56575455D01*
X120323350Y-55575455D01*
X121132874Y-56051646D02*
X121466208Y-56051646D01*
X121609065Y-56575455D02*
X121132874Y-56575455D01*
X121132874Y-55575455D01*
X121609065Y-55575455D01*
X122037636Y-56575455D02*
X122037636Y-55575455D01*
X122275731Y-55575455D01*
X122418589Y-55623075D01*
X122513827Y-55718313D01*
X122561446Y-55813551D01*
X122609065Y-56004027D01*
X122609065Y-56146884D01*
X122561446Y-56337360D01*
X122513827Y-56432598D01*
X122418589Y-56527836D01*
X122275731Y-56575455D01*
X122037636Y-56575455D01*
X117743541Y-56275087D02*
X116981636Y-56275087D01*
X115203541Y-56275087D02*
X114441636Y-56275087D01*
X114822589Y-55894135D02*
X114822589Y-56656039D01*
X141631959Y-96992094D02*
X141822435Y-96992094D01*
X141917673Y-96944475D01*
X141965292Y-96896856D01*
X142060530Y-96753999D01*
X142108149Y-96563523D01*
X142108149Y-96182571D01*
X142060530Y-96087333D01*
X142012911Y-96039714D01*
X141917673Y-95992094D01*
X141727197Y-95992094D01*
X141631959Y-96039714D01*
X141584340Y-96087333D01*
X141536721Y-96182571D01*
X141536721Y-96420666D01*
X141584340Y-96515904D01*
X141631959Y-96563523D01*
X141727197Y-96611142D01*
X141917673Y-96611142D01*
X142012911Y-96563523D01*
X142060530Y-96515904D01*
X142108149Y-96420666D01*
X142393864Y-95992094D02*
X142727197Y-96992094D01*
X143060530Y-95992094D01*
X138822054Y-96418511D02*
X139583959Y-96418511D01*
X139203007Y-96799463D02*
X139203007Y-96037559D01*
X136282054Y-96418511D02*
X137043959Y-96418511D01*
X102973669Y-91086122D02*
X102973669Y-91848027D01*
X102592717Y-91467075D02*
X103354621Y-91467075D01*
D10*
X127091192Y-52282516D02*
X132091192Y-52282516D01*
X104145001Y-81578839D02*
X107145001Y-81578839D01*
X104145001Y-76578839D02*
X104145001Y-81578839D01*
X132132016Y-52280044D02*
X132132016Y-57280044D01*
X127085001Y-81578839D02*
X132085001Y-81578839D01*
X132125825Y-76576367D02*
X132125825Y-81576367D01*
X104151192Y-52282516D02*
X104151192Y-57282516D01*
X104151192Y-52282516D02*
X109151192Y-52282516D01*
D11*
X103195859Y-90442289D02*
X103243478Y-90299432D01*
X103243478Y-90061337D01*
X103195859Y-89966099D01*
X103148240Y-89918480D01*
X103053002Y-89870861D01*
X102957764Y-89870861D01*
X102862526Y-89918480D01*
X102814907Y-89966099D01*
X102767288Y-90061337D01*
X102719669Y-90251813D01*
X102672050Y-90347051D01*
X102624431Y-90394670D01*
X102529193Y-90442289D01*
X102433955Y-90442289D01*
X102338717Y-90394670D01*
X102291098Y-90347051D01*
X102243478Y-90251813D01*
X102243478Y-90013718D01*
X102291098Y-89870861D01*
X102719669Y-89442289D02*
X102719669Y-89108956D01*
X103243478Y-88966099D02*
X103243478Y-89442289D01*
X102243478Y-89442289D01*
X102243478Y-88966099D01*
X103243478Y-88537527D02*
X102243478Y-88537527D01*
X103243478Y-87966099D01*
X102243478Y-87966099D01*
X103195859Y-87537527D02*
X103243478Y-87394670D01*
X103243478Y-87156575D01*
X103195859Y-87061337D01*
X103148240Y-87013718D01*
X103053002Y-86966099D01*
X102957764Y-86966099D01*
X102862526Y-87013718D01*
X102814907Y-87061337D01*
X102767288Y-87156575D01*
X102719669Y-87347051D01*
X102672050Y-87442289D01*
X102624431Y-87489908D01*
X102529193Y-87537527D01*
X102433955Y-87537527D01*
X102338717Y-87489908D01*
X102291098Y-87442289D01*
X102243478Y-87347051D01*
X102243478Y-87108956D01*
X102291098Y-86966099D01*
X102243478Y-86347051D02*
X102243478Y-86156575D01*
X102291098Y-86061337D01*
X102386336Y-85966099D01*
X102576812Y-85918480D01*
X102910145Y-85918480D01*
X103100621Y-85966099D01*
X103195859Y-86061337D01*
X103243478Y-86156575D01*
X103243478Y-86347051D01*
X103195859Y-86442289D01*
X103100621Y-86537527D01*
X102910145Y-86585146D01*
X102576812Y-86585146D01*
X102386336Y-86537527D01*
X102291098Y-86442289D01*
X102243478Y-86347051D01*
X103243478Y-84918480D02*
X102767288Y-85251813D01*
X103243478Y-85489908D02*
X102243478Y-85489908D01*
X102243478Y-85108956D01*
X102291098Y-85013718D01*
X102338717Y-84966099D01*
X102433955Y-84918480D01*
X102576812Y-84918480D01*
X102672050Y-84966099D01*
X102719669Y-85013718D01*
X102767288Y-85108956D01*
X102767288Y-85489908D01*
D10*
X82341825Y-76576367D02*
X82341825Y-81576367D01*
X77301001Y-81578839D02*
X82301001Y-81578839D01*
X82348016Y-52280044D02*
X82348016Y-57280044D01*
X54361001Y-76578839D02*
X54361001Y-81578839D01*
X54361001Y-81578839D02*
X57361001Y-81578839D01*
X77307192Y-52282516D02*
X82307192Y-52282516D01*
D11*
X86498054Y-96418511D02*
X87259959Y-96418511D01*
X89038054Y-96418511D02*
X89799959Y-96418511D01*
X89419007Y-96799463D02*
X89419007Y-96037559D01*
X91847959Y-96992094D02*
X92038435Y-96992094D01*
X92133673Y-96944475D01*
X92181292Y-96896856D01*
X92276530Y-96753999D01*
X92324149Y-96563523D01*
X92324149Y-96182571D01*
X92276530Y-96087333D01*
X92228911Y-96039714D01*
X92133673Y-95992094D01*
X91943197Y-95992094D01*
X91847959Y-96039714D01*
X91800340Y-96087333D01*
X91752721Y-96182571D01*
X91752721Y-96420666D01*
X91800340Y-96515904D01*
X91847959Y-96563523D01*
X91943197Y-96611142D01*
X92133673Y-96611142D01*
X92228911Y-96563523D01*
X92276530Y-96515904D01*
X92324149Y-96420666D01*
X92609864Y-95992094D02*
X92943197Y-96992094D01*
X93276530Y-95992094D01*
X65419541Y-56275087D02*
X64657636Y-56275087D01*
X65038589Y-55894135D02*
X65038589Y-56656039D01*
X67959541Y-56275087D02*
X67197636Y-56275087D01*
X69682208Y-55575455D02*
X69872684Y-55575455D01*
X69967922Y-55623075D01*
X70063160Y-55718313D01*
X70110779Y-55908789D01*
X70110779Y-56242122D01*
X70063160Y-56432598D01*
X69967922Y-56527836D01*
X69872684Y-56575455D01*
X69682208Y-56575455D01*
X69586969Y-56527836D01*
X69491731Y-56432598D01*
X69444112Y-56242122D01*
X69444112Y-55908789D01*
X69491731Y-55718313D01*
X69586969Y-55623075D01*
X69682208Y-55575455D01*
X71015541Y-56575455D02*
X70539350Y-56575455D01*
X70539350Y-55575455D01*
X71348874Y-56051646D02*
X71682208Y-56051646D01*
X71825065Y-56575455D02*
X71348874Y-56575455D01*
X71348874Y-55575455D01*
X71825065Y-55575455D01*
X72253636Y-56575455D02*
X72253636Y-55575455D01*
X72491731Y-55575455D01*
X72634589Y-55623075D01*
X72729827Y-55718313D01*
X72777446Y-55813551D01*
X72825065Y-56004027D01*
X72825065Y-56146884D01*
X72777446Y-56337360D01*
X72729827Y-56432598D01*
X72634589Y-56527836D01*
X72491731Y-56575455D01*
X72253636Y-56575455D01*
X53189669Y-91086122D02*
X53189669Y-91848027D01*
X52808717Y-91467075D02*
X53570621Y-91467075D01*
X53189669Y-83466122D02*
X53189669Y-84228027D01*
X53411859Y-90442289D02*
X53459478Y-90299432D01*
X53459478Y-90061337D01*
X53411859Y-89966099D01*
X53364240Y-89918480D01*
X53269002Y-89870861D01*
X53173764Y-89870861D01*
X53078526Y-89918480D01*
X53030907Y-89966099D01*
X52983288Y-90061337D01*
X52935669Y-90251813D01*
X52888050Y-90347051D01*
X52840431Y-90394670D01*
X52745193Y-90442289D01*
X52649955Y-90442289D01*
X52554717Y-90394670D01*
X52507098Y-90347051D01*
X52459478Y-90251813D01*
X52459478Y-90013718D01*
X52507098Y-89870861D01*
X52935669Y-89442289D02*
X52935669Y-89108956D01*
X53459478Y-88966099D02*
X53459478Y-89442289D01*
X52459478Y-89442289D01*
X52459478Y-88966099D01*
X53459478Y-88537527D02*
X52459478Y-88537527D01*
X53459478Y-87966099D01*
X52459478Y-87966099D01*
X53411859Y-87537527D02*
X53459478Y-87394670D01*
X53459478Y-87156575D01*
X53411859Y-87061337D01*
X53364240Y-87013718D01*
X53269002Y-86966099D01*
X53173764Y-86966099D01*
X53078526Y-87013718D01*
X53030907Y-87061337D01*
X52983288Y-87156575D01*
X52935669Y-87347051D01*
X52888050Y-87442289D01*
X52840431Y-87489908D01*
X52745193Y-87537527D01*
X52649955Y-87537527D01*
X52554717Y-87489908D01*
X52507098Y-87442289D01*
X52459478Y-87347051D01*
X52459478Y-87108956D01*
X52507098Y-86966099D01*
X52459478Y-86347051D02*
X52459478Y-86156575D01*
X52507098Y-86061337D01*
X52602336Y-85966099D01*
X52792812Y-85918480D01*
X53126145Y-85918480D01*
X53316621Y-85966099D01*
X53411859Y-86061337D01*
X53459478Y-86156575D01*
X53459478Y-86347051D01*
X53411859Y-86442289D01*
X53316621Y-86537527D01*
X53126145Y-86585146D01*
X52792812Y-86585146D01*
X52602336Y-86537527D01*
X52507098Y-86442289D01*
X52459478Y-86347051D01*
X53459478Y-84918480D02*
X52983288Y-85251813D01*
X53459478Y-85489908D02*
X52459478Y-85489908D01*
X52459478Y-85108956D01*
X52507098Y-85013718D01*
X52554717Y-84966099D01*
X52649955Y-84918480D01*
X52792812Y-84918480D01*
X52888050Y-84966099D01*
X52935669Y-85013718D01*
X52983288Y-85108956D01*
X52983288Y-85489908D01*
D10*
X54367192Y-52282516D02*
X59367192Y-52282516D01*
X54367192Y-52282516D02*
X54367192Y-57282516D01*
D12*
X113522589Y-100067075D02*
X113522589Y-100567075D01*
X113522589Y-100067075D02*
X114022589Y-100067075D01*
X113522589Y-106667075D02*
X113522589Y-106167075D01*
X113522589Y-106667075D02*
X114022589Y-106667075D01*
X108254589Y-131823075D02*
X107754589Y-131823075D01*
X108254589Y-131823075D02*
X108254589Y-132323075D01*
X101654589Y-131823075D02*
X102154589Y-131823075D01*
X101654589Y-131823075D02*
X101654589Y-132323075D01*
D10*
X140682589Y-115921075D02*
X139182589Y-115921075D01*
X136682589Y-117171075D02*
X136682589Y-121671075D01*
X139182589Y-122921075D02*
X140682589Y-122921075D01*
X143182589Y-121671075D02*
X143182589Y-117171075D01*
D12*
X140503007Y-140503714D02*
X140503007Y-141003714D01*
X140503007Y-140503714D02*
X140003007Y-140503714D01*
X135363007Y-140483714D02*
X135363007Y-140983714D01*
X135363007Y-140483714D02*
X135863007Y-140483714D01*
X135363007Y-147083714D02*
X135363007Y-146583714D01*
X135363007Y-147083714D02*
X135863007Y-147083714D01*
X140513007Y-147073714D02*
X140513007Y-146573714D01*
X140513007Y-147073714D02*
X140013007Y-147073714D01*
D10*
X140682589Y-105253075D02*
X139182589Y-105253075D01*
X136682589Y-106503075D02*
X136682589Y-111003075D01*
X139182589Y-112253075D02*
X140682589Y-112253075D01*
X143182589Y-111003075D02*
X143182589Y-106503075D01*
X90898589Y-115921075D02*
X89398589Y-115921075D01*
X86898589Y-117171075D02*
X86898589Y-121671075D01*
X89398589Y-122921075D02*
X90898589Y-122921075D01*
X93398589Y-121671075D02*
X93398589Y-117171075D01*
D12*
G36*
X140734307Y-133075714D02*
G01*
X139134307Y-133075714D01*
X139134307Y-132075714D01*
X140734307Y-132075714D01*
X140734307Y-133075714D01*
G37*
X140734307Y-133075714D02*
X139134307Y-133075714D01*
X139134307Y-132075714D01*
X140734307Y-132075714D01*
X140734307Y-133075714D01*
D10*
X136402816Y-138575636D02*
X136402816Y-131575636D01*
X143402816Y-138575636D02*
X136402816Y-138575636D01*
X143402816Y-131575636D02*
X143402816Y-138575636D01*
X136402816Y-131575636D02*
X143402816Y-131575636D01*
D12*
G36*
X90950307Y-133075714D02*
G01*
X89350307Y-133075714D01*
X89350307Y-132075714D01*
X90950307Y-132075714D01*
X90950307Y-133075714D01*
G37*
X90950307Y-133075714D02*
X89350307Y-133075714D01*
X89350307Y-132075714D01*
X90950307Y-132075714D01*
X90950307Y-133075714D01*
D10*
X86618816Y-138575636D02*
X86618816Y-131575636D01*
X93618816Y-138575636D02*
X86618816Y-138575636D01*
X93618816Y-131575636D02*
X93618816Y-138575636D01*
X86618816Y-131575636D02*
X93618816Y-131575636D01*
D12*
X63738589Y-100067075D02*
X63738589Y-100567075D01*
X63738589Y-100067075D02*
X64238589Y-100067075D01*
X63738589Y-106667075D02*
X63738589Y-106167075D01*
X63738589Y-106667075D02*
X64238589Y-106667075D01*
D10*
X90898589Y-105253075D02*
X89398589Y-105253075D01*
X86898589Y-106503075D02*
X86898589Y-111003075D01*
X89398589Y-112253075D02*
X90898589Y-112253075D01*
X93398589Y-111003075D02*
X93398589Y-106503075D01*
D12*
X58470589Y-131823075D02*
X57970589Y-131823075D01*
X58470589Y-131823075D02*
X58470589Y-132323075D01*
X51870589Y-131823075D02*
X52370589Y-131823075D01*
X51870589Y-131823075D02*
X51870589Y-132323075D01*
X90719007Y-140503714D02*
X90719007Y-141003714D01*
X90719007Y-140503714D02*
X90219007Y-140503714D01*
X85579007Y-140483714D02*
X85579007Y-140983714D01*
X85579007Y-140483714D02*
X86079007Y-140483714D01*
X85579007Y-147083714D02*
X85579007Y-146583714D01*
X85579007Y-147083714D02*
X86079007Y-147083714D01*
X90729007Y-147073714D02*
X90729007Y-146573714D01*
X90729007Y-147073714D02*
X90229007Y-147073714D01*
D10*
X140682589Y-66645075D02*
X139182589Y-66645075D01*
X136682589Y-67895075D02*
X136682589Y-72395075D01*
X139182589Y-73645075D02*
X140682589Y-73645075D01*
X143182589Y-72395075D02*
X143182589Y-67895075D01*
D12*
G36*
X140734307Y-83799714D02*
G01*
X139134307Y-83799714D01*
X139134307Y-82799714D01*
X140734307Y-82799714D01*
X140734307Y-83799714D01*
G37*
X140734307Y-83799714D02*
X139134307Y-83799714D01*
X139134307Y-82799714D01*
X140734307Y-82799714D01*
X140734307Y-83799714D01*
D10*
X136402816Y-89299636D02*
X136402816Y-82299636D01*
X143402816Y-89299636D02*
X136402816Y-89299636D01*
X143402816Y-82299636D02*
X143402816Y-89299636D01*
X136402816Y-82299636D02*
X143402816Y-82299636D01*
D12*
X113522589Y-50791075D02*
X113522589Y-51291075D01*
X113522589Y-50791075D02*
X114022589Y-50791075D01*
X113522589Y-57391075D02*
X113522589Y-56891075D01*
X113522589Y-57391075D02*
X114022589Y-57391075D01*
D10*
X140682589Y-55977075D02*
X139182589Y-55977075D01*
X136682589Y-57227075D02*
X136682589Y-61727075D01*
X139182589Y-62977075D02*
X140682589Y-62977075D01*
X143182589Y-61727075D02*
X143182589Y-57227075D01*
D12*
X108254589Y-82547075D02*
X107754589Y-82547075D01*
X108254589Y-82547075D02*
X108254589Y-83047075D01*
X101654589Y-82547075D02*
X102154589Y-82547075D01*
X101654589Y-82547075D02*
X101654589Y-83047075D01*
X140503007Y-91227714D02*
X140503007Y-91727714D01*
X140503007Y-91227714D02*
X140003007Y-91227714D01*
X135363007Y-91207714D02*
X135363007Y-91707714D01*
X135363007Y-91207714D02*
X135863007Y-91207714D01*
X135363007Y-97807714D02*
X135363007Y-97307714D01*
X135363007Y-97807714D02*
X135863007Y-97807714D01*
X140513007Y-97797714D02*
X140513007Y-97297714D01*
X140513007Y-97797714D02*
X140013007Y-97797714D01*
G36*
X90950307Y-83799714D02*
G01*
X89350307Y-83799714D01*
X89350307Y-82799714D01*
X90950307Y-82799714D01*
X90950307Y-83799714D01*
G37*
X90950307Y-83799714D02*
X89350307Y-83799714D01*
X89350307Y-82799714D01*
X90950307Y-82799714D01*
X90950307Y-83799714D01*
D10*
X86618816Y-89299636D02*
X86618816Y-82299636D01*
X93618816Y-89299636D02*
X86618816Y-89299636D01*
X93618816Y-82299636D02*
X93618816Y-89299636D01*
X86618816Y-82299636D02*
X93618816Y-82299636D01*
D12*
X90719007Y-91227714D02*
X90719007Y-91727714D01*
X90719007Y-91227714D02*
X90219007Y-91227714D01*
X85579007Y-91207714D02*
X85579007Y-91707714D01*
X85579007Y-91207714D02*
X86079007Y-91207714D01*
X85579007Y-97807714D02*
X85579007Y-97307714D01*
X85579007Y-97807714D02*
X86079007Y-97807714D01*
X90729007Y-97797714D02*
X90729007Y-97297714D01*
X90729007Y-97797714D02*
X90229007Y-97797714D01*
X58470589Y-82547075D02*
X57970589Y-82547075D01*
X58470589Y-82547075D02*
X58470589Y-83047075D01*
X51870589Y-82547075D02*
X52370589Y-82547075D01*
X51870589Y-82547075D02*
X51870589Y-83047075D01*
X63738589Y-50791075D02*
X63738589Y-51291075D01*
X63738589Y-50791075D02*
X64238589Y-50791075D01*
X63738589Y-57391075D02*
X63738589Y-56891075D01*
X63738589Y-57391075D02*
X64238589Y-57391075D01*
D10*
X90898589Y-66645075D02*
X89398589Y-66645075D01*
X86898589Y-67895075D02*
X86898589Y-72395075D01*
X89398589Y-73645075D02*
X90898589Y-73645075D01*
X93398589Y-72395075D02*
X93398589Y-67895075D01*
X90898589Y-55977075D02*
X89398589Y-55977075D01*
X86898589Y-57227075D02*
X86898589Y-61727075D01*
X89398589Y-62977075D02*
X90898589Y-62977075D01*
X93398589Y-61727075D02*
X93398589Y-57227075D01*
D11*
X111949255Y-102819455D02*
X111949255Y-103533741D01*
X111901636Y-103676598D01*
X111806398Y-103771836D01*
X111663541Y-103819455D01*
X111568303Y-103819455D01*
X112377827Y-102914694D02*
X112425446Y-102867075D01*
X112520684Y-102819455D01*
X112758779Y-102819455D01*
X112854017Y-102867075D01*
X112901636Y-102914694D01*
X112949255Y-103009932D01*
X112949255Y-103105170D01*
X112901636Y-103248027D01*
X112330208Y-103819455D01*
X112949255Y-103819455D01*
X104406969Y-143616408D02*
X105121255Y-143616408D01*
X105264112Y-143664027D01*
X105359350Y-143759265D01*
X105406969Y-143902122D01*
X105406969Y-143997360D01*
X104406969Y-143235455D02*
X104406969Y-142616408D01*
X104787922Y-142949741D01*
X104787922Y-142806884D01*
X104835541Y-142711646D01*
X104883160Y-142664027D01*
X104978398Y-142616408D01*
X105216493Y-142616408D01*
X105311731Y-142664027D01*
X105359350Y-142711646D01*
X105406969Y-142806884D01*
X105406969Y-143092598D01*
X105359350Y-143187836D01*
X105311731Y-143235455D01*
X143910562Y-115960792D02*
X144053419Y-116008411D01*
X144291515Y-116008411D01*
X144386753Y-115960792D01*
X144434372Y-115913173D01*
X144481991Y-115817935D01*
X144481991Y-115722697D01*
X144434372Y-115627459D01*
X144386753Y-115579840D01*
X144291515Y-115532221D01*
X144101038Y-115484602D01*
X144005800Y-115436983D01*
X143958181Y-115389364D01*
X143910562Y-115294126D01*
X143910562Y-115198888D01*
X143958181Y-115103650D01*
X144005800Y-115056031D01*
X144101038Y-115008411D01*
X144339134Y-115008411D01*
X144481991Y-115056031D01*
X144815324Y-115008411D02*
X145053419Y-116008411D01*
X145243896Y-115294126D01*
X145434372Y-116008411D01*
X145672467Y-115008411D01*
X145958181Y-115008411D02*
X146577229Y-115008411D01*
X146243896Y-115389364D01*
X146386753Y-115389364D01*
X146481991Y-115436983D01*
X146529610Y-115484602D01*
X146577229Y-115579840D01*
X146577229Y-115817935D01*
X146529610Y-115913173D01*
X146481991Y-115960792D01*
X146386753Y-116008411D01*
X146101038Y-116008411D01*
X146005800Y-115960792D01*
X145958181Y-115913173D01*
X141917673Y-143236094D02*
X141917673Y-143950380D01*
X141870054Y-144093237D01*
X141774816Y-144188475D01*
X141631959Y-144236094D01*
X141536721Y-144236094D01*
X142917673Y-144236094D02*
X142346245Y-144236094D01*
X142631959Y-144236094D02*
X142631959Y-143236094D01*
X142536721Y-143378952D01*
X142441483Y-143474190D01*
X142346245Y-143521809D01*
X143910562Y-105292792D02*
X144053419Y-105340411D01*
X144291515Y-105340411D01*
X144386753Y-105292792D01*
X144434372Y-105245173D01*
X144481991Y-105149935D01*
X144481991Y-105054697D01*
X144434372Y-104959459D01*
X144386753Y-104911840D01*
X144291515Y-104864221D01*
X144101038Y-104816602D01*
X144005800Y-104768983D01*
X143958181Y-104721364D01*
X143910562Y-104626126D01*
X143910562Y-104530888D01*
X143958181Y-104435650D01*
X144005800Y-104388031D01*
X144101038Y-104340411D01*
X144339134Y-104340411D01*
X144481991Y-104388031D01*
X144815324Y-104340411D02*
X145053419Y-105340411D01*
X145243896Y-104626126D01*
X145434372Y-105340411D01*
X145672467Y-104340411D01*
X146005800Y-104435650D02*
X146053419Y-104388031D01*
X146148657Y-104340411D01*
X146386753Y-104340411D01*
X146481991Y-104388031D01*
X146529610Y-104435650D01*
X146577229Y-104530888D01*
X146577229Y-104626126D01*
X146529610Y-104768983D01*
X145958181Y-105340411D01*
X146577229Y-105340411D01*
X94126562Y-115960792D02*
X94269419Y-116008411D01*
X94507515Y-116008411D01*
X94602753Y-115960792D01*
X94650372Y-115913173D01*
X94697991Y-115817935D01*
X94697991Y-115722697D01*
X94650372Y-115627459D01*
X94602753Y-115579840D01*
X94507515Y-115532221D01*
X94317038Y-115484602D01*
X94221800Y-115436983D01*
X94174181Y-115389364D01*
X94126562Y-115294126D01*
X94126562Y-115198888D01*
X94174181Y-115103650D01*
X94221800Y-115056031D01*
X94317038Y-115008411D01*
X94555134Y-115008411D01*
X94697991Y-115056031D01*
X95031324Y-115008411D02*
X95269419Y-116008411D01*
X95459896Y-115294126D01*
X95650372Y-116008411D01*
X95888467Y-115008411D01*
X96174181Y-115008411D02*
X96793229Y-115008411D01*
X96459896Y-115389364D01*
X96602753Y-115389364D01*
X96697991Y-115436983D01*
X96745610Y-115484602D01*
X96793229Y-115579840D01*
X96793229Y-115817935D01*
X96745610Y-115913173D01*
X96697991Y-115960792D01*
X96602753Y-116008411D01*
X96317038Y-116008411D01*
X96221800Y-115960792D01*
X96174181Y-115913173D01*
X138678684Y-130322746D02*
X138821541Y-130370365D01*
X139059637Y-130370365D01*
X139154875Y-130322746D01*
X139202494Y-130275127D01*
X139250113Y-130179889D01*
X139250113Y-130084651D01*
X139202494Y-129989413D01*
X139154875Y-129941794D01*
X139059637Y-129894175D01*
X138869160Y-129846556D01*
X138773922Y-129798937D01*
X138726303Y-129751318D01*
X138678684Y-129656080D01*
X138678684Y-129560842D01*
X138726303Y-129465604D01*
X138773922Y-129417985D01*
X138869160Y-129370365D01*
X139107256Y-129370365D01*
X139250113Y-129417985D01*
X139583446Y-129370365D02*
X139821541Y-130370365D01*
X140012018Y-129656080D01*
X140202494Y-130370365D01*
X140440589Y-129370365D01*
X141345351Y-130370365D02*
X140773922Y-130370365D01*
X141059637Y-130370365D02*
X141059637Y-129370365D01*
X140964398Y-129513223D01*
X140869160Y-129608461D01*
X140773922Y-129656080D01*
X88894684Y-130322746D02*
X89037541Y-130370365D01*
X89275637Y-130370365D01*
X89370875Y-130322746D01*
X89418494Y-130275127D01*
X89466113Y-130179889D01*
X89466113Y-130084651D01*
X89418494Y-129989413D01*
X89370875Y-129941794D01*
X89275637Y-129894175D01*
X89085160Y-129846556D01*
X88989922Y-129798937D01*
X88942303Y-129751318D01*
X88894684Y-129656080D01*
X88894684Y-129560842D01*
X88942303Y-129465604D01*
X88989922Y-129417985D01*
X89085160Y-129370365D01*
X89323256Y-129370365D01*
X89466113Y-129417985D01*
X89799446Y-129370365D02*
X90037541Y-130370365D01*
X90228018Y-129656080D01*
X90418494Y-130370365D01*
X90656589Y-129370365D01*
X91561351Y-130370365D02*
X90989922Y-130370365D01*
X91275637Y-130370365D02*
X91275637Y-129370365D01*
X91180398Y-129513223D01*
X91085160Y-129608461D01*
X90989922Y-129656080D01*
X62165255Y-102819455D02*
X62165255Y-103533741D01*
X62117636Y-103676598D01*
X62022398Y-103771836D01*
X61879541Y-103819455D01*
X61784303Y-103819455D01*
X62593827Y-102914694D02*
X62641446Y-102867075D01*
X62736684Y-102819455D01*
X62974779Y-102819455D01*
X63070017Y-102867075D01*
X63117636Y-102914694D01*
X63165255Y-103009932D01*
X63165255Y-103105170D01*
X63117636Y-103248027D01*
X62546208Y-103819455D01*
X63165255Y-103819455D01*
X94126562Y-105292792D02*
X94269419Y-105340411D01*
X94507515Y-105340411D01*
X94602753Y-105292792D01*
X94650372Y-105245173D01*
X94697991Y-105149935D01*
X94697991Y-105054697D01*
X94650372Y-104959459D01*
X94602753Y-104911840D01*
X94507515Y-104864221D01*
X94317038Y-104816602D01*
X94221800Y-104768983D01*
X94174181Y-104721364D01*
X94126562Y-104626126D01*
X94126562Y-104530888D01*
X94174181Y-104435650D01*
X94221800Y-104388031D01*
X94317038Y-104340411D01*
X94555134Y-104340411D01*
X94697991Y-104388031D01*
X95031324Y-104340411D02*
X95269419Y-105340411D01*
X95459896Y-104626126D01*
X95650372Y-105340411D01*
X95888467Y-104340411D01*
X96221800Y-104435650D02*
X96269419Y-104388031D01*
X96364657Y-104340411D01*
X96602753Y-104340411D01*
X96697991Y-104388031D01*
X96745610Y-104435650D01*
X96793229Y-104530888D01*
X96793229Y-104626126D01*
X96745610Y-104768983D01*
X96174181Y-105340411D01*
X96793229Y-105340411D01*
X54622969Y-143616408D02*
X55337255Y-143616408D01*
X55480112Y-143664027D01*
X55575350Y-143759265D01*
X55622969Y-143902122D01*
X55622969Y-143997360D01*
X54622969Y-143235455D02*
X54622969Y-142616408D01*
X55003922Y-142949741D01*
X55003922Y-142806884D01*
X55051541Y-142711646D01*
X55099160Y-142664027D01*
X55194398Y-142616408D01*
X55432493Y-142616408D01*
X55527731Y-142664027D01*
X55575350Y-142711646D01*
X55622969Y-142806884D01*
X55622969Y-143092598D01*
X55575350Y-143187836D01*
X55527731Y-143235455D01*
X92133673Y-143236094D02*
X92133673Y-143950380D01*
X92086054Y-144093237D01*
X91990816Y-144188475D01*
X91847959Y-144236094D01*
X91752721Y-144236094D01*
X93133673Y-144236094D02*
X92562245Y-144236094D01*
X92847959Y-144236094D02*
X92847959Y-143236094D01*
X92752721Y-143378952D01*
X92657483Y-143474190D01*
X92562245Y-143521809D01*
X143910562Y-66684792D02*
X144053419Y-66732411D01*
X144291515Y-66732411D01*
X144386753Y-66684792D01*
X144434372Y-66637173D01*
X144481991Y-66541935D01*
X144481991Y-66446697D01*
X144434372Y-66351459D01*
X144386753Y-66303840D01*
X144291515Y-66256221D01*
X144101038Y-66208602D01*
X144005800Y-66160983D01*
X143958181Y-66113364D01*
X143910562Y-66018126D01*
X143910562Y-65922888D01*
X143958181Y-65827650D01*
X144005800Y-65780031D01*
X144101038Y-65732411D01*
X144339134Y-65732411D01*
X144481991Y-65780031D01*
X144815324Y-65732411D02*
X145053419Y-66732411D01*
X145243896Y-66018126D01*
X145434372Y-66732411D01*
X145672467Y-65732411D01*
X145958181Y-65732411D02*
X146577229Y-65732411D01*
X146243896Y-66113364D01*
X146386753Y-66113364D01*
X146481991Y-66160983D01*
X146529610Y-66208602D01*
X146577229Y-66303840D01*
X146577229Y-66541935D01*
X146529610Y-66637173D01*
X146481991Y-66684792D01*
X146386753Y-66732411D01*
X146101038Y-66732411D01*
X146005800Y-66684792D01*
X145958181Y-66637173D01*
X138678684Y-81046746D02*
X138821541Y-81094365D01*
X139059637Y-81094365D01*
X139154875Y-81046746D01*
X139202494Y-80999127D01*
X139250113Y-80903889D01*
X139250113Y-80808651D01*
X139202494Y-80713413D01*
X139154875Y-80665794D01*
X139059637Y-80618175D01*
X138869160Y-80570556D01*
X138773922Y-80522937D01*
X138726303Y-80475318D01*
X138678684Y-80380080D01*
X138678684Y-80284842D01*
X138726303Y-80189604D01*
X138773922Y-80141985D01*
X138869160Y-80094365D01*
X139107256Y-80094365D01*
X139250113Y-80141985D01*
X139583446Y-80094365D02*
X139821541Y-81094365D01*
X140012018Y-80380080D01*
X140202494Y-81094365D01*
X140440589Y-80094365D01*
X141345351Y-81094365D02*
X140773922Y-81094365D01*
X141059637Y-81094365D02*
X141059637Y-80094365D01*
X140964398Y-80237223D01*
X140869160Y-80332461D01*
X140773922Y-80380080D01*
X111949255Y-53543455D02*
X111949255Y-54257741D01*
X111901636Y-54400598D01*
X111806398Y-54495836D01*
X111663541Y-54543455D01*
X111568303Y-54543455D01*
X112377827Y-53638694D02*
X112425446Y-53591075D01*
X112520684Y-53543455D01*
X112758779Y-53543455D01*
X112854017Y-53591075D01*
X112901636Y-53638694D01*
X112949255Y-53733932D01*
X112949255Y-53829170D01*
X112901636Y-53972027D01*
X112330208Y-54543455D01*
X112949255Y-54543455D01*
X143910562Y-56016792D02*
X144053419Y-56064411D01*
X144291515Y-56064411D01*
X144386753Y-56016792D01*
X144434372Y-55969173D01*
X144481991Y-55873935D01*
X144481991Y-55778697D01*
X144434372Y-55683459D01*
X144386753Y-55635840D01*
X144291515Y-55588221D01*
X144101038Y-55540602D01*
X144005800Y-55492983D01*
X143958181Y-55445364D01*
X143910562Y-55350126D01*
X143910562Y-55254888D01*
X143958181Y-55159650D01*
X144005800Y-55112031D01*
X144101038Y-55064411D01*
X144339134Y-55064411D01*
X144481991Y-55112031D01*
X144815324Y-55064411D02*
X145053419Y-56064411D01*
X145243896Y-55350126D01*
X145434372Y-56064411D01*
X145672467Y-55064411D01*
X146005800Y-55159650D02*
X146053419Y-55112031D01*
X146148657Y-55064411D01*
X146386753Y-55064411D01*
X146481991Y-55112031D01*
X146529610Y-55159650D01*
X146577229Y-55254888D01*
X146577229Y-55350126D01*
X146529610Y-55492983D01*
X145958181Y-56064411D01*
X146577229Y-56064411D01*
X104406969Y-94340408D02*
X105121255Y-94340408D01*
X105264112Y-94388027D01*
X105359350Y-94483265D01*
X105406969Y-94626122D01*
X105406969Y-94721360D01*
X104406969Y-93959455D02*
X104406969Y-93340408D01*
X104787922Y-93673741D01*
X104787922Y-93530884D01*
X104835541Y-93435646D01*
X104883160Y-93388027D01*
X104978398Y-93340408D01*
X105216493Y-93340408D01*
X105311731Y-93388027D01*
X105359350Y-93435646D01*
X105406969Y-93530884D01*
X105406969Y-93816598D01*
X105359350Y-93911836D01*
X105311731Y-93959455D01*
X141917673Y-93960094D02*
X141917673Y-94674380D01*
X141870054Y-94817237D01*
X141774816Y-94912475D01*
X141631959Y-94960094D01*
X141536721Y-94960094D01*
X142917673Y-94960094D02*
X142346245Y-94960094D01*
X142631959Y-94960094D02*
X142631959Y-93960094D01*
X142536721Y-94102952D01*
X142441483Y-94198190D01*
X142346245Y-94245809D01*
X88894684Y-81046746D02*
X89037541Y-81094365D01*
X89275637Y-81094365D01*
X89370875Y-81046746D01*
X89418494Y-80999127D01*
X89466113Y-80903889D01*
X89466113Y-80808651D01*
X89418494Y-80713413D01*
X89370875Y-80665794D01*
X89275637Y-80618175D01*
X89085160Y-80570556D01*
X88989922Y-80522937D01*
X88942303Y-80475318D01*
X88894684Y-80380080D01*
X88894684Y-80284842D01*
X88942303Y-80189604D01*
X88989922Y-80141985D01*
X89085160Y-80094365D01*
X89323256Y-80094365D01*
X89466113Y-80141985D01*
X89799446Y-80094365D02*
X90037541Y-81094365D01*
X90228018Y-80380080D01*
X90418494Y-81094365D01*
X90656589Y-80094365D01*
X91561351Y-81094365D02*
X90989922Y-81094365D01*
X91275637Y-81094365D02*
X91275637Y-80094365D01*
X91180398Y-80237223D01*
X91085160Y-80332461D01*
X90989922Y-80380080D01*
X92133673Y-93960094D02*
X92133673Y-94674380D01*
X92086054Y-94817237D01*
X91990816Y-94912475D01*
X91847959Y-94960094D01*
X91752721Y-94960094D01*
X93133673Y-94960094D02*
X92562245Y-94960094D01*
X92847959Y-94960094D02*
X92847959Y-93960094D01*
X92752721Y-94102952D01*
X92657483Y-94198190D01*
X92562245Y-94245809D01*
X54622969Y-94340408D02*
X55337255Y-94340408D01*
X55480112Y-94388027D01*
X55575350Y-94483265D01*
X55622969Y-94626122D01*
X55622969Y-94721360D01*
X54622969Y-93959455D02*
X54622969Y-93340408D01*
X55003922Y-93673741D01*
X55003922Y-93530884D01*
X55051541Y-93435646D01*
X55099160Y-93388027D01*
X55194398Y-93340408D01*
X55432493Y-93340408D01*
X55527731Y-93388027D01*
X55575350Y-93435646D01*
X55622969Y-93530884D01*
X55622969Y-93816598D01*
X55575350Y-93911836D01*
X55527731Y-93959455D01*
X62165255Y-53543455D02*
X62165255Y-54257741D01*
X62117636Y-54400598D01*
X62022398Y-54495836D01*
X61879541Y-54543455D01*
X61784303Y-54543455D01*
X62593827Y-53638694D02*
X62641446Y-53591075D01*
X62736684Y-53543455D01*
X62974779Y-53543455D01*
X63070017Y-53591075D01*
X63117636Y-53638694D01*
X63165255Y-53733932D01*
X63165255Y-53829170D01*
X63117636Y-53972027D01*
X62546208Y-54543455D01*
X63165255Y-54543455D01*
X94126562Y-66684792D02*
X94269419Y-66732411D01*
X94507515Y-66732411D01*
X94602753Y-66684792D01*
X94650372Y-66637173D01*
X94697991Y-66541935D01*
X94697991Y-66446697D01*
X94650372Y-66351459D01*
X94602753Y-66303840D01*
X94507515Y-66256221D01*
X94317038Y-66208602D01*
X94221800Y-66160983D01*
X94174181Y-66113364D01*
X94126562Y-66018126D01*
X94126562Y-65922888D01*
X94174181Y-65827650D01*
X94221800Y-65780031D01*
X94317038Y-65732411D01*
X94555134Y-65732411D01*
X94697991Y-65780031D01*
X95031324Y-65732411D02*
X95269419Y-66732411D01*
X95459896Y-66018126D01*
X95650372Y-66732411D01*
X95888467Y-65732411D01*
X96174181Y-65732411D02*
X96793229Y-65732411D01*
X96459896Y-66113364D01*
X96602753Y-66113364D01*
X96697991Y-66160983D01*
X96745610Y-66208602D01*
X96793229Y-66303840D01*
X96793229Y-66541935D01*
X96745610Y-66637173D01*
X96697991Y-66684792D01*
X96602753Y-66732411D01*
X96317038Y-66732411D01*
X96221800Y-66684792D01*
X96174181Y-66637173D01*
X94126562Y-56016792D02*
X94269419Y-56064411D01*
X94507515Y-56064411D01*
X94602753Y-56016792D01*
X94650372Y-55969173D01*
X94697991Y-55873935D01*
X94697991Y-55778697D01*
X94650372Y-55683459D01*
X94602753Y-55635840D01*
X94507515Y-55588221D01*
X94317038Y-55540602D01*
X94221800Y-55492983D01*
X94174181Y-55445364D01*
X94126562Y-55350126D01*
X94126562Y-55254888D01*
X94174181Y-55159650D01*
X94221800Y-55112031D01*
X94317038Y-55064411D01*
X94555134Y-55064411D01*
X94697991Y-55112031D01*
X95031324Y-55064411D02*
X95269419Y-56064411D01*
X95459896Y-55350126D01*
X95650372Y-56064411D01*
X95888467Y-55064411D01*
X96221800Y-55159650D02*
X96269419Y-55112031D01*
X96364657Y-55064411D01*
X96602753Y-55064411D01*
X96697991Y-55112031D01*
X96745610Y-55159650D01*
X96793229Y-55254888D01*
X96793229Y-55350126D01*
X96745610Y-55492983D01*
X96174181Y-56064411D01*
X96793229Y-56064411D01*
M02*
