G04 #@! TF.GenerationSoftware,KiCad,Pcbnew,5.1.5-52549c5~84~ubuntu18.04.1*
G04 #@! TF.CreationDate,2020-01-31T17:12:17+01:00*
G04 #@! TF.ProjectId,main-board,6d61696e-2d62-46f6-9172-642e6b696361,rev?*
G04 #@! TF.SameCoordinates,Original*
G04 #@! TF.FileFunction,Legend,Top*
G04 #@! TF.FilePolarity,Positive*
%FSLAX46Y46*%
G04 Gerber Fmt 4.6, Leading zero omitted, Abs format (unit mm)*
G04 Created by KiCad (PCBNEW 5.1.5-52549c5~84~ubuntu18.04.1) date 2020-01-31 17:12:17*
%MOMM*%
%LPD*%
G04 APERTURE LIST*
%ADD10C,0.120000*%
%ADD11C,0.150000*%
G04 APERTURE END LIST*
D10*
X170180000Y-100584000D02*
X198120000Y-100584000D01*
D11*
X192000714Y-97059047D02*
X192810238Y-97059047D01*
X192905476Y-97106666D01*
X192953095Y-97154285D01*
X193000714Y-97249523D01*
X193000714Y-97392380D01*
X192953095Y-97487619D01*
X192619761Y-97059047D02*
X192667380Y-97154285D01*
X192667380Y-97344761D01*
X192619761Y-97440000D01*
X192572142Y-97487619D01*
X192476904Y-97535238D01*
X192191190Y-97535238D01*
X192095952Y-97487619D01*
X192048333Y-97440000D01*
X192000714Y-97344761D01*
X192000714Y-97154285D01*
X192048333Y-97059047D01*
X192667380Y-96154285D02*
X192143571Y-96154285D01*
X192048333Y-96201904D01*
X192000714Y-96297142D01*
X192000714Y-96487619D01*
X192048333Y-96582857D01*
X192619761Y-96154285D02*
X192667380Y-96249523D01*
X192667380Y-96487619D01*
X192619761Y-96582857D01*
X192524523Y-96630476D01*
X192429285Y-96630476D01*
X192334047Y-96582857D01*
X192286428Y-96487619D01*
X192286428Y-96249523D01*
X192238809Y-96154285D01*
X192619761Y-95725714D02*
X192667380Y-95630476D01*
X192667380Y-95440000D01*
X192619761Y-95344761D01*
X192524523Y-95297142D01*
X192476904Y-95297142D01*
X192381666Y-95344761D01*
X192334047Y-95440000D01*
X192334047Y-95582857D01*
X192286428Y-95678095D01*
X192191190Y-95725714D01*
X192143571Y-95725714D01*
X192048333Y-95678095D01*
X192000714Y-95582857D01*
X192000714Y-95440000D01*
X192048333Y-95344761D01*
X192286428Y-94868571D02*
X192286428Y-94106666D01*
X192000714Y-93773333D02*
X192000714Y-93392380D01*
X191667380Y-93630476D02*
X192524523Y-93630476D01*
X192619761Y-93582857D01*
X192667380Y-93487619D01*
X192667380Y-93392380D01*
X192667380Y-92630476D02*
X192143571Y-92630476D01*
X192048333Y-92678095D01*
X192000714Y-92773333D01*
X192000714Y-92963809D01*
X192048333Y-93059047D01*
X192619761Y-92630476D02*
X192667380Y-92725714D01*
X192667380Y-92963809D01*
X192619761Y-93059047D01*
X192524523Y-93106666D01*
X192429285Y-93106666D01*
X192334047Y-93059047D01*
X192286428Y-92963809D01*
X192286428Y-92725714D01*
X192238809Y-92630476D01*
X192000714Y-92154285D02*
X192667380Y-92154285D01*
X192095952Y-92154285D02*
X192048333Y-92106666D01*
X192000714Y-92011428D01*
X192000714Y-91868571D01*
X192048333Y-91773333D01*
X192143571Y-91725714D01*
X192667380Y-91725714D01*
X192667380Y-91249523D02*
X191667380Y-91249523D01*
X192286428Y-91154285D02*
X192667380Y-90868571D01*
X192000714Y-90868571D02*
X192381666Y-91249523D01*
X192286428Y-90440000D02*
X192286428Y-89678095D01*
X192667380Y-89059047D02*
X192619761Y-89154285D01*
X192524523Y-89201904D01*
X191667380Y-89201904D01*
X192619761Y-88297142D02*
X192667380Y-88392380D01*
X192667380Y-88582857D01*
X192619761Y-88678095D01*
X192524523Y-88725714D01*
X192143571Y-88725714D01*
X192048333Y-88678095D01*
X192000714Y-88582857D01*
X192000714Y-88392380D01*
X192048333Y-88297142D01*
X192143571Y-88249523D01*
X192238809Y-88249523D01*
X192334047Y-88725714D01*
X192000714Y-87916190D02*
X192667380Y-87678095D01*
X192000714Y-87440000D01*
X192619761Y-86678095D02*
X192667380Y-86773333D01*
X192667380Y-86963809D01*
X192619761Y-87059047D01*
X192524523Y-87106666D01*
X192143571Y-87106666D01*
X192048333Y-87059047D01*
X192000714Y-86963809D01*
X192000714Y-86773333D01*
X192048333Y-86678095D01*
X192143571Y-86630476D01*
X192238809Y-86630476D01*
X192334047Y-87106666D01*
X192667380Y-86059047D02*
X192619761Y-86154285D01*
X192524523Y-86201904D01*
X191667380Y-86201904D01*
X193650714Y-94440000D02*
X194317380Y-94201904D01*
X193650714Y-93963809D01*
X194317380Y-93059047D02*
X194317380Y-93630476D01*
X194317380Y-93344761D02*
X193317380Y-93344761D01*
X193460238Y-93440000D01*
X193555476Y-93535238D01*
X193603095Y-93630476D01*
X193317380Y-91678095D02*
X193317380Y-91582857D01*
X193365000Y-91487619D01*
X193412619Y-91440000D01*
X193507857Y-91392380D01*
X193698333Y-91344761D01*
X193936428Y-91344761D01*
X194126904Y-91392380D01*
X194222142Y-91440000D01*
X194269761Y-91487619D01*
X194317380Y-91582857D01*
X194317380Y-91678095D01*
X194269761Y-91773333D01*
X194222142Y-91820952D01*
X194126904Y-91868571D01*
X193936428Y-91916190D01*
X193698333Y-91916190D01*
X193507857Y-91868571D01*
X193412619Y-91820952D01*
X193365000Y-91773333D01*
X193317380Y-91678095D01*
X193317380Y-90440000D02*
X193317380Y-90916190D01*
X193793571Y-90963809D01*
X193745952Y-90916190D01*
X193698333Y-90820952D01*
X193698333Y-90582857D01*
X193745952Y-90487619D01*
X193793571Y-90440000D01*
X193888809Y-90392380D01*
X194126904Y-90392380D01*
X194222142Y-90440000D01*
X194269761Y-90487619D01*
X194317380Y-90582857D01*
X194317380Y-90820952D01*
X194269761Y-90916190D01*
X194222142Y-90963809D01*
X193412619Y-90011428D02*
X193365000Y-89963809D01*
X193317380Y-89868571D01*
X193317380Y-89630476D01*
X193365000Y-89535238D01*
X193412619Y-89487619D01*
X193507857Y-89440000D01*
X193603095Y-89440000D01*
X193745952Y-89487619D01*
X194317380Y-90059047D01*
X194317380Y-89440000D01*
X193317380Y-88820952D02*
X193317380Y-88725714D01*
X193365000Y-88630476D01*
X193412619Y-88582857D01*
X193507857Y-88535238D01*
X193698333Y-88487619D01*
X193936428Y-88487619D01*
X194126904Y-88535238D01*
X194222142Y-88582857D01*
X194269761Y-88630476D01*
X194317380Y-88725714D01*
X194317380Y-88820952D01*
X194269761Y-88916190D01*
X194222142Y-88963809D01*
X194126904Y-89011428D01*
X193936428Y-89059047D01*
X193698333Y-89059047D01*
X193507857Y-89011428D01*
X193412619Y-88963809D01*
X193365000Y-88916190D01*
X193317380Y-88820952D01*
X192000714Y-147859047D02*
X192810238Y-147859047D01*
X192905476Y-147906666D01*
X192953095Y-147954285D01*
X193000714Y-148049523D01*
X193000714Y-148192380D01*
X192953095Y-148287619D01*
X192619761Y-147859047D02*
X192667380Y-147954285D01*
X192667380Y-148144761D01*
X192619761Y-148240000D01*
X192572142Y-148287619D01*
X192476904Y-148335238D01*
X192191190Y-148335238D01*
X192095952Y-148287619D01*
X192048333Y-148240000D01*
X192000714Y-148144761D01*
X192000714Y-147954285D01*
X192048333Y-147859047D01*
X192667380Y-146954285D02*
X192143571Y-146954285D01*
X192048333Y-147001904D01*
X192000714Y-147097142D01*
X192000714Y-147287619D01*
X192048333Y-147382857D01*
X192619761Y-146954285D02*
X192667380Y-147049523D01*
X192667380Y-147287619D01*
X192619761Y-147382857D01*
X192524523Y-147430476D01*
X192429285Y-147430476D01*
X192334047Y-147382857D01*
X192286428Y-147287619D01*
X192286428Y-147049523D01*
X192238809Y-146954285D01*
X192619761Y-146525714D02*
X192667380Y-146430476D01*
X192667380Y-146240000D01*
X192619761Y-146144761D01*
X192524523Y-146097142D01*
X192476904Y-146097142D01*
X192381666Y-146144761D01*
X192334047Y-146240000D01*
X192334047Y-146382857D01*
X192286428Y-146478095D01*
X192191190Y-146525714D01*
X192143571Y-146525714D01*
X192048333Y-146478095D01*
X192000714Y-146382857D01*
X192000714Y-146240000D01*
X192048333Y-146144761D01*
X192286428Y-145668571D02*
X192286428Y-144906666D01*
X192000714Y-144573333D02*
X192000714Y-144192380D01*
X191667380Y-144430476D02*
X192524523Y-144430476D01*
X192619761Y-144382857D01*
X192667380Y-144287619D01*
X192667380Y-144192380D01*
X192667380Y-143430476D02*
X192143571Y-143430476D01*
X192048333Y-143478095D01*
X192000714Y-143573333D01*
X192000714Y-143763809D01*
X192048333Y-143859047D01*
X192619761Y-143430476D02*
X192667380Y-143525714D01*
X192667380Y-143763809D01*
X192619761Y-143859047D01*
X192524523Y-143906666D01*
X192429285Y-143906666D01*
X192334047Y-143859047D01*
X192286428Y-143763809D01*
X192286428Y-143525714D01*
X192238809Y-143430476D01*
X192000714Y-142954285D02*
X192667380Y-142954285D01*
X192095952Y-142954285D02*
X192048333Y-142906666D01*
X192000714Y-142811428D01*
X192000714Y-142668571D01*
X192048333Y-142573333D01*
X192143571Y-142525714D01*
X192667380Y-142525714D01*
X192667380Y-142049523D02*
X191667380Y-142049523D01*
X192286428Y-141954285D02*
X192667380Y-141668571D01*
X192000714Y-141668571D02*
X192381666Y-142049523D01*
X192286428Y-141240000D02*
X192286428Y-140478095D01*
X192667380Y-139859047D02*
X192619761Y-139954285D01*
X192524523Y-140001904D01*
X191667380Y-140001904D01*
X192619761Y-139097142D02*
X192667380Y-139192380D01*
X192667380Y-139382857D01*
X192619761Y-139478095D01*
X192524523Y-139525714D01*
X192143571Y-139525714D01*
X192048333Y-139478095D01*
X192000714Y-139382857D01*
X192000714Y-139192380D01*
X192048333Y-139097142D01*
X192143571Y-139049523D01*
X192238809Y-139049523D01*
X192334047Y-139525714D01*
X192000714Y-138716190D02*
X192667380Y-138478095D01*
X192000714Y-138240000D01*
X192619761Y-137478095D02*
X192667380Y-137573333D01*
X192667380Y-137763809D01*
X192619761Y-137859047D01*
X192524523Y-137906666D01*
X192143571Y-137906666D01*
X192048333Y-137859047D01*
X192000714Y-137763809D01*
X192000714Y-137573333D01*
X192048333Y-137478095D01*
X192143571Y-137430476D01*
X192238809Y-137430476D01*
X192334047Y-137906666D01*
X192667380Y-136859047D02*
X192619761Y-136954285D01*
X192524523Y-137001904D01*
X191667380Y-137001904D01*
X193650714Y-145240000D02*
X194317380Y-145001904D01*
X193650714Y-144763809D01*
X194317380Y-143859047D02*
X194317380Y-144430476D01*
X194317380Y-144144761D02*
X193317380Y-144144761D01*
X193460238Y-144240000D01*
X193555476Y-144335238D01*
X193603095Y-144430476D01*
X193317380Y-142478095D02*
X193317380Y-142382857D01*
X193365000Y-142287619D01*
X193412619Y-142240000D01*
X193507857Y-142192380D01*
X193698333Y-142144761D01*
X193936428Y-142144761D01*
X194126904Y-142192380D01*
X194222142Y-142240000D01*
X194269761Y-142287619D01*
X194317380Y-142382857D01*
X194317380Y-142478095D01*
X194269761Y-142573333D01*
X194222142Y-142620952D01*
X194126904Y-142668571D01*
X193936428Y-142716190D01*
X193698333Y-142716190D01*
X193507857Y-142668571D01*
X193412619Y-142620952D01*
X193365000Y-142573333D01*
X193317380Y-142478095D01*
X193317380Y-141240000D02*
X193317380Y-141716190D01*
X193793571Y-141763809D01*
X193745952Y-141716190D01*
X193698333Y-141620952D01*
X193698333Y-141382857D01*
X193745952Y-141287619D01*
X193793571Y-141240000D01*
X193888809Y-141192380D01*
X194126904Y-141192380D01*
X194222142Y-141240000D01*
X194269761Y-141287619D01*
X194317380Y-141382857D01*
X194317380Y-141620952D01*
X194269761Y-141716190D01*
X194222142Y-141763809D01*
X193412619Y-140811428D02*
X193365000Y-140763809D01*
X193317380Y-140668571D01*
X193317380Y-140430476D01*
X193365000Y-140335238D01*
X193412619Y-140287619D01*
X193507857Y-140240000D01*
X193603095Y-140240000D01*
X193745952Y-140287619D01*
X194317380Y-140859047D01*
X194317380Y-140240000D01*
X193317380Y-139620952D02*
X193317380Y-139525714D01*
X193365000Y-139430476D01*
X193412619Y-139382857D01*
X193507857Y-139335238D01*
X193698333Y-139287619D01*
X193936428Y-139287619D01*
X194126904Y-139335238D01*
X194222142Y-139382857D01*
X194269761Y-139430476D01*
X194317380Y-139525714D01*
X194317380Y-139620952D01*
X194269761Y-139716190D01*
X194222142Y-139763809D01*
X194126904Y-139811428D01*
X193936428Y-139859047D01*
X193698333Y-139859047D01*
X193507857Y-139811428D01*
X193412619Y-139763809D01*
X193365000Y-139716190D01*
X193317380Y-139620952D01*
X111220952Y-141200714D02*
X111220952Y-142010238D01*
X111173333Y-142105476D01*
X111125714Y-142153095D01*
X111030476Y-142200714D01*
X110887619Y-142200714D01*
X110792380Y-142153095D01*
X111220952Y-141819761D02*
X111125714Y-141867380D01*
X110935238Y-141867380D01*
X110840000Y-141819761D01*
X110792380Y-141772142D01*
X110744761Y-141676904D01*
X110744761Y-141391190D01*
X110792380Y-141295952D01*
X110840000Y-141248333D01*
X110935238Y-141200714D01*
X111125714Y-141200714D01*
X111220952Y-141248333D01*
X112125714Y-141867380D02*
X112125714Y-141343571D01*
X112078095Y-141248333D01*
X111982857Y-141200714D01*
X111792380Y-141200714D01*
X111697142Y-141248333D01*
X112125714Y-141819761D02*
X112030476Y-141867380D01*
X111792380Y-141867380D01*
X111697142Y-141819761D01*
X111649523Y-141724523D01*
X111649523Y-141629285D01*
X111697142Y-141534047D01*
X111792380Y-141486428D01*
X112030476Y-141486428D01*
X112125714Y-141438809D01*
X112554285Y-141819761D02*
X112649523Y-141867380D01*
X112840000Y-141867380D01*
X112935238Y-141819761D01*
X112982857Y-141724523D01*
X112982857Y-141676904D01*
X112935238Y-141581666D01*
X112840000Y-141534047D01*
X112697142Y-141534047D01*
X112601904Y-141486428D01*
X112554285Y-141391190D01*
X112554285Y-141343571D01*
X112601904Y-141248333D01*
X112697142Y-141200714D01*
X112840000Y-141200714D01*
X112935238Y-141248333D01*
X113411428Y-141486428D02*
X114173333Y-141486428D01*
X114506666Y-141200714D02*
X114887619Y-141200714D01*
X114649523Y-140867380D02*
X114649523Y-141724523D01*
X114697142Y-141819761D01*
X114792380Y-141867380D01*
X114887619Y-141867380D01*
X115649523Y-141867380D02*
X115649523Y-141343571D01*
X115601904Y-141248333D01*
X115506666Y-141200714D01*
X115316190Y-141200714D01*
X115220952Y-141248333D01*
X115649523Y-141819761D02*
X115554285Y-141867380D01*
X115316190Y-141867380D01*
X115220952Y-141819761D01*
X115173333Y-141724523D01*
X115173333Y-141629285D01*
X115220952Y-141534047D01*
X115316190Y-141486428D01*
X115554285Y-141486428D01*
X115649523Y-141438809D01*
X116125714Y-141200714D02*
X116125714Y-141867380D01*
X116125714Y-141295952D02*
X116173333Y-141248333D01*
X116268571Y-141200714D01*
X116411428Y-141200714D01*
X116506666Y-141248333D01*
X116554285Y-141343571D01*
X116554285Y-141867380D01*
X117030476Y-141867380D02*
X117030476Y-140867380D01*
X117125714Y-141486428D02*
X117411428Y-141867380D01*
X117411428Y-141200714D02*
X117030476Y-141581666D01*
X117840000Y-141486428D02*
X118601904Y-141486428D01*
X119220952Y-141867380D02*
X119125714Y-141819761D01*
X119078095Y-141724523D01*
X119078095Y-140867380D01*
X119982857Y-141819761D02*
X119887619Y-141867380D01*
X119697142Y-141867380D01*
X119601904Y-141819761D01*
X119554285Y-141724523D01*
X119554285Y-141343571D01*
X119601904Y-141248333D01*
X119697142Y-141200714D01*
X119887619Y-141200714D01*
X119982857Y-141248333D01*
X120030476Y-141343571D01*
X120030476Y-141438809D01*
X119554285Y-141534047D01*
X120363809Y-141200714D02*
X120601904Y-141867380D01*
X120840000Y-141200714D01*
X121601904Y-141819761D02*
X121506666Y-141867380D01*
X121316190Y-141867380D01*
X121220952Y-141819761D01*
X121173333Y-141724523D01*
X121173333Y-141343571D01*
X121220952Y-141248333D01*
X121316190Y-141200714D01*
X121506666Y-141200714D01*
X121601904Y-141248333D01*
X121649523Y-141343571D01*
X121649523Y-141438809D01*
X121173333Y-141534047D01*
X122220952Y-141867380D02*
X122125714Y-141819761D01*
X122078095Y-141724523D01*
X122078095Y-140867380D01*
X113840000Y-142850714D02*
X114078095Y-143517380D01*
X114316190Y-142850714D01*
X115220952Y-143517380D02*
X114649523Y-143517380D01*
X114935238Y-143517380D02*
X114935238Y-142517380D01*
X114840000Y-142660238D01*
X114744761Y-142755476D01*
X114649523Y-142803095D01*
X116601904Y-142517380D02*
X116697142Y-142517380D01*
X116792380Y-142565000D01*
X116840000Y-142612619D01*
X116887619Y-142707857D01*
X116935238Y-142898333D01*
X116935238Y-143136428D01*
X116887619Y-143326904D01*
X116840000Y-143422142D01*
X116792380Y-143469761D01*
X116697142Y-143517380D01*
X116601904Y-143517380D01*
X116506666Y-143469761D01*
X116459047Y-143422142D01*
X116411428Y-143326904D01*
X116363809Y-143136428D01*
X116363809Y-142898333D01*
X116411428Y-142707857D01*
X116459047Y-142612619D01*
X116506666Y-142565000D01*
X116601904Y-142517380D01*
X117840000Y-142517380D02*
X117363809Y-142517380D01*
X117316190Y-142993571D01*
X117363809Y-142945952D01*
X117459047Y-142898333D01*
X117697142Y-142898333D01*
X117792380Y-142945952D01*
X117840000Y-142993571D01*
X117887619Y-143088809D01*
X117887619Y-143326904D01*
X117840000Y-143422142D01*
X117792380Y-143469761D01*
X117697142Y-143517380D01*
X117459047Y-143517380D01*
X117363809Y-143469761D01*
X117316190Y-143422142D01*
X118268571Y-142612619D02*
X118316190Y-142565000D01*
X118411428Y-142517380D01*
X118649523Y-142517380D01*
X118744761Y-142565000D01*
X118792380Y-142612619D01*
X118840000Y-142707857D01*
X118840000Y-142803095D01*
X118792380Y-142945952D01*
X118220952Y-143517380D01*
X118840000Y-143517380D01*
X119459047Y-142517380D02*
X119554285Y-142517380D01*
X119649523Y-142565000D01*
X119697142Y-142612619D01*
X119744761Y-142707857D01*
X119792380Y-142898333D01*
X119792380Y-143136428D01*
X119744761Y-143326904D01*
X119697142Y-143422142D01*
X119649523Y-143469761D01*
X119554285Y-143517380D01*
X119459047Y-143517380D01*
X119363809Y-143469761D01*
X119316190Y-143422142D01*
X119268571Y-143326904D01*
X119220952Y-143136428D01*
X119220952Y-142898333D01*
X119268571Y-142707857D01*
X119316190Y-142612619D01*
X119363809Y-142565000D01*
X119459047Y-142517380D01*
X111220952Y-108180714D02*
X111220952Y-108990238D01*
X111173333Y-109085476D01*
X111125714Y-109133095D01*
X111030476Y-109180714D01*
X110887619Y-109180714D01*
X110792380Y-109133095D01*
X111220952Y-108799761D02*
X111125714Y-108847380D01*
X110935238Y-108847380D01*
X110840000Y-108799761D01*
X110792380Y-108752142D01*
X110744761Y-108656904D01*
X110744761Y-108371190D01*
X110792380Y-108275952D01*
X110840000Y-108228333D01*
X110935238Y-108180714D01*
X111125714Y-108180714D01*
X111220952Y-108228333D01*
X112125714Y-108847380D02*
X112125714Y-108323571D01*
X112078095Y-108228333D01*
X111982857Y-108180714D01*
X111792380Y-108180714D01*
X111697142Y-108228333D01*
X112125714Y-108799761D02*
X112030476Y-108847380D01*
X111792380Y-108847380D01*
X111697142Y-108799761D01*
X111649523Y-108704523D01*
X111649523Y-108609285D01*
X111697142Y-108514047D01*
X111792380Y-108466428D01*
X112030476Y-108466428D01*
X112125714Y-108418809D01*
X112554285Y-108799761D02*
X112649523Y-108847380D01*
X112840000Y-108847380D01*
X112935238Y-108799761D01*
X112982857Y-108704523D01*
X112982857Y-108656904D01*
X112935238Y-108561666D01*
X112840000Y-108514047D01*
X112697142Y-108514047D01*
X112601904Y-108466428D01*
X112554285Y-108371190D01*
X112554285Y-108323571D01*
X112601904Y-108228333D01*
X112697142Y-108180714D01*
X112840000Y-108180714D01*
X112935238Y-108228333D01*
X113411428Y-108466428D02*
X114173333Y-108466428D01*
X114506666Y-108180714D02*
X114887619Y-108180714D01*
X114649523Y-107847380D02*
X114649523Y-108704523D01*
X114697142Y-108799761D01*
X114792380Y-108847380D01*
X114887619Y-108847380D01*
X115649523Y-108847380D02*
X115649523Y-108323571D01*
X115601904Y-108228333D01*
X115506666Y-108180714D01*
X115316190Y-108180714D01*
X115220952Y-108228333D01*
X115649523Y-108799761D02*
X115554285Y-108847380D01*
X115316190Y-108847380D01*
X115220952Y-108799761D01*
X115173333Y-108704523D01*
X115173333Y-108609285D01*
X115220952Y-108514047D01*
X115316190Y-108466428D01*
X115554285Y-108466428D01*
X115649523Y-108418809D01*
X116125714Y-108180714D02*
X116125714Y-108847380D01*
X116125714Y-108275952D02*
X116173333Y-108228333D01*
X116268571Y-108180714D01*
X116411428Y-108180714D01*
X116506666Y-108228333D01*
X116554285Y-108323571D01*
X116554285Y-108847380D01*
X117030476Y-108847380D02*
X117030476Y-107847380D01*
X117125714Y-108466428D02*
X117411428Y-108847380D01*
X117411428Y-108180714D02*
X117030476Y-108561666D01*
X117840000Y-108466428D02*
X118601904Y-108466428D01*
X119220952Y-108847380D02*
X119125714Y-108799761D01*
X119078095Y-108704523D01*
X119078095Y-107847380D01*
X119982857Y-108799761D02*
X119887619Y-108847380D01*
X119697142Y-108847380D01*
X119601904Y-108799761D01*
X119554285Y-108704523D01*
X119554285Y-108323571D01*
X119601904Y-108228333D01*
X119697142Y-108180714D01*
X119887619Y-108180714D01*
X119982857Y-108228333D01*
X120030476Y-108323571D01*
X120030476Y-108418809D01*
X119554285Y-108514047D01*
X120363809Y-108180714D02*
X120601904Y-108847380D01*
X120840000Y-108180714D01*
X121601904Y-108799761D02*
X121506666Y-108847380D01*
X121316190Y-108847380D01*
X121220952Y-108799761D01*
X121173333Y-108704523D01*
X121173333Y-108323571D01*
X121220952Y-108228333D01*
X121316190Y-108180714D01*
X121506666Y-108180714D01*
X121601904Y-108228333D01*
X121649523Y-108323571D01*
X121649523Y-108418809D01*
X121173333Y-108514047D01*
X122220952Y-108847380D02*
X122125714Y-108799761D01*
X122078095Y-108704523D01*
X122078095Y-107847380D01*
X113840000Y-109830714D02*
X114078095Y-110497380D01*
X114316190Y-109830714D01*
X115220952Y-110497380D02*
X114649523Y-110497380D01*
X114935238Y-110497380D02*
X114935238Y-109497380D01*
X114840000Y-109640238D01*
X114744761Y-109735476D01*
X114649523Y-109783095D01*
X116601904Y-109497380D02*
X116697142Y-109497380D01*
X116792380Y-109545000D01*
X116840000Y-109592619D01*
X116887619Y-109687857D01*
X116935238Y-109878333D01*
X116935238Y-110116428D01*
X116887619Y-110306904D01*
X116840000Y-110402142D01*
X116792380Y-110449761D01*
X116697142Y-110497380D01*
X116601904Y-110497380D01*
X116506666Y-110449761D01*
X116459047Y-110402142D01*
X116411428Y-110306904D01*
X116363809Y-110116428D01*
X116363809Y-109878333D01*
X116411428Y-109687857D01*
X116459047Y-109592619D01*
X116506666Y-109545000D01*
X116601904Y-109497380D01*
X117840000Y-109497380D02*
X117363809Y-109497380D01*
X117316190Y-109973571D01*
X117363809Y-109925952D01*
X117459047Y-109878333D01*
X117697142Y-109878333D01*
X117792380Y-109925952D01*
X117840000Y-109973571D01*
X117887619Y-110068809D01*
X117887619Y-110306904D01*
X117840000Y-110402142D01*
X117792380Y-110449761D01*
X117697142Y-110497380D01*
X117459047Y-110497380D01*
X117363809Y-110449761D01*
X117316190Y-110402142D01*
X118268571Y-109592619D02*
X118316190Y-109545000D01*
X118411428Y-109497380D01*
X118649523Y-109497380D01*
X118744761Y-109545000D01*
X118792380Y-109592619D01*
X118840000Y-109687857D01*
X118840000Y-109783095D01*
X118792380Y-109925952D01*
X118220952Y-110497380D01*
X118840000Y-110497380D01*
X119459047Y-109497380D02*
X119554285Y-109497380D01*
X119649523Y-109545000D01*
X119697142Y-109592619D01*
X119744761Y-109687857D01*
X119792380Y-109878333D01*
X119792380Y-110116428D01*
X119744761Y-110306904D01*
X119697142Y-110402142D01*
X119649523Y-110449761D01*
X119554285Y-110497380D01*
X119459047Y-110497380D01*
X119363809Y-110449761D01*
X119316190Y-110402142D01*
X119268571Y-110306904D01*
X119220952Y-110116428D01*
X119220952Y-109878333D01*
X119268571Y-109687857D01*
X119316190Y-109592619D01*
X119363809Y-109545000D01*
X119459047Y-109497380D01*
X111220952Y-75160714D02*
X111220952Y-75970238D01*
X111173333Y-76065476D01*
X111125714Y-76113095D01*
X111030476Y-76160714D01*
X110887619Y-76160714D01*
X110792380Y-76113095D01*
X111220952Y-75779761D02*
X111125714Y-75827380D01*
X110935238Y-75827380D01*
X110840000Y-75779761D01*
X110792380Y-75732142D01*
X110744761Y-75636904D01*
X110744761Y-75351190D01*
X110792380Y-75255952D01*
X110840000Y-75208333D01*
X110935238Y-75160714D01*
X111125714Y-75160714D01*
X111220952Y-75208333D01*
X112125714Y-75827380D02*
X112125714Y-75303571D01*
X112078095Y-75208333D01*
X111982857Y-75160714D01*
X111792380Y-75160714D01*
X111697142Y-75208333D01*
X112125714Y-75779761D02*
X112030476Y-75827380D01*
X111792380Y-75827380D01*
X111697142Y-75779761D01*
X111649523Y-75684523D01*
X111649523Y-75589285D01*
X111697142Y-75494047D01*
X111792380Y-75446428D01*
X112030476Y-75446428D01*
X112125714Y-75398809D01*
X112554285Y-75779761D02*
X112649523Y-75827380D01*
X112840000Y-75827380D01*
X112935238Y-75779761D01*
X112982857Y-75684523D01*
X112982857Y-75636904D01*
X112935238Y-75541666D01*
X112840000Y-75494047D01*
X112697142Y-75494047D01*
X112601904Y-75446428D01*
X112554285Y-75351190D01*
X112554285Y-75303571D01*
X112601904Y-75208333D01*
X112697142Y-75160714D01*
X112840000Y-75160714D01*
X112935238Y-75208333D01*
X113411428Y-75446428D02*
X114173333Y-75446428D01*
X114506666Y-75160714D02*
X114887619Y-75160714D01*
X114649523Y-74827380D02*
X114649523Y-75684523D01*
X114697142Y-75779761D01*
X114792380Y-75827380D01*
X114887619Y-75827380D01*
X115649523Y-75827380D02*
X115649523Y-75303571D01*
X115601904Y-75208333D01*
X115506666Y-75160714D01*
X115316190Y-75160714D01*
X115220952Y-75208333D01*
X115649523Y-75779761D02*
X115554285Y-75827380D01*
X115316190Y-75827380D01*
X115220952Y-75779761D01*
X115173333Y-75684523D01*
X115173333Y-75589285D01*
X115220952Y-75494047D01*
X115316190Y-75446428D01*
X115554285Y-75446428D01*
X115649523Y-75398809D01*
X116125714Y-75160714D02*
X116125714Y-75827380D01*
X116125714Y-75255952D02*
X116173333Y-75208333D01*
X116268571Y-75160714D01*
X116411428Y-75160714D01*
X116506666Y-75208333D01*
X116554285Y-75303571D01*
X116554285Y-75827380D01*
X117030476Y-75827380D02*
X117030476Y-74827380D01*
X117125714Y-75446428D02*
X117411428Y-75827380D01*
X117411428Y-75160714D02*
X117030476Y-75541666D01*
X117840000Y-75446428D02*
X118601904Y-75446428D01*
X119220952Y-75827380D02*
X119125714Y-75779761D01*
X119078095Y-75684523D01*
X119078095Y-74827380D01*
X119982857Y-75779761D02*
X119887619Y-75827380D01*
X119697142Y-75827380D01*
X119601904Y-75779761D01*
X119554285Y-75684523D01*
X119554285Y-75303571D01*
X119601904Y-75208333D01*
X119697142Y-75160714D01*
X119887619Y-75160714D01*
X119982857Y-75208333D01*
X120030476Y-75303571D01*
X120030476Y-75398809D01*
X119554285Y-75494047D01*
X120363809Y-75160714D02*
X120601904Y-75827380D01*
X120840000Y-75160714D01*
X121601904Y-75779761D02*
X121506666Y-75827380D01*
X121316190Y-75827380D01*
X121220952Y-75779761D01*
X121173333Y-75684523D01*
X121173333Y-75303571D01*
X121220952Y-75208333D01*
X121316190Y-75160714D01*
X121506666Y-75160714D01*
X121601904Y-75208333D01*
X121649523Y-75303571D01*
X121649523Y-75398809D01*
X121173333Y-75494047D01*
X122220952Y-75827380D02*
X122125714Y-75779761D01*
X122078095Y-75684523D01*
X122078095Y-74827380D01*
X113840000Y-76810714D02*
X114078095Y-77477380D01*
X114316190Y-76810714D01*
X115220952Y-77477380D02*
X114649523Y-77477380D01*
X114935238Y-77477380D02*
X114935238Y-76477380D01*
X114840000Y-76620238D01*
X114744761Y-76715476D01*
X114649523Y-76763095D01*
X116601904Y-76477380D02*
X116697142Y-76477380D01*
X116792380Y-76525000D01*
X116840000Y-76572619D01*
X116887619Y-76667857D01*
X116935238Y-76858333D01*
X116935238Y-77096428D01*
X116887619Y-77286904D01*
X116840000Y-77382142D01*
X116792380Y-77429761D01*
X116697142Y-77477380D01*
X116601904Y-77477380D01*
X116506666Y-77429761D01*
X116459047Y-77382142D01*
X116411428Y-77286904D01*
X116363809Y-77096428D01*
X116363809Y-76858333D01*
X116411428Y-76667857D01*
X116459047Y-76572619D01*
X116506666Y-76525000D01*
X116601904Y-76477380D01*
X117840000Y-76477380D02*
X117363809Y-76477380D01*
X117316190Y-76953571D01*
X117363809Y-76905952D01*
X117459047Y-76858333D01*
X117697142Y-76858333D01*
X117792380Y-76905952D01*
X117840000Y-76953571D01*
X117887619Y-77048809D01*
X117887619Y-77286904D01*
X117840000Y-77382142D01*
X117792380Y-77429761D01*
X117697142Y-77477380D01*
X117459047Y-77477380D01*
X117363809Y-77429761D01*
X117316190Y-77382142D01*
X118268571Y-76572619D02*
X118316190Y-76525000D01*
X118411428Y-76477380D01*
X118649523Y-76477380D01*
X118744761Y-76525000D01*
X118792380Y-76572619D01*
X118840000Y-76667857D01*
X118840000Y-76763095D01*
X118792380Y-76905952D01*
X118220952Y-77477380D01*
X118840000Y-77477380D01*
X119459047Y-76477380D02*
X119554285Y-76477380D01*
X119649523Y-76525000D01*
X119697142Y-76572619D01*
X119744761Y-76667857D01*
X119792380Y-76858333D01*
X119792380Y-77096428D01*
X119744761Y-77286904D01*
X119697142Y-77382142D01*
X119649523Y-77429761D01*
X119554285Y-77477380D01*
X119459047Y-77477380D01*
X119363809Y-77429761D01*
X119316190Y-77382142D01*
X119268571Y-77286904D01*
X119220952Y-77096428D01*
X119220952Y-76858333D01*
X119268571Y-76667857D01*
X119316190Y-76572619D01*
X119363809Y-76525000D01*
X119459047Y-76477380D01*
X196048380Y-122356380D02*
X196048380Y-122165904D01*
X196096000Y-122070666D01*
X196191238Y-121975428D01*
X196381714Y-121927809D01*
X196715047Y-121927809D01*
X196905523Y-121975428D01*
X197000761Y-122070666D01*
X197048380Y-122165904D01*
X197048380Y-122356380D01*
X197000761Y-122451619D01*
X196905523Y-122546857D01*
X196715047Y-122594476D01*
X196381714Y-122594476D01*
X196191238Y-122546857D01*
X196096000Y-122451619D01*
X196048380Y-122356380D01*
X197048380Y-121023047D02*
X197048380Y-121499238D01*
X196048380Y-121499238D01*
X196524571Y-120689714D02*
X196524571Y-120356380D01*
X197048380Y-120213523D02*
X197048380Y-120689714D01*
X196048380Y-120689714D01*
X196048380Y-120213523D01*
X197048380Y-119784952D02*
X196048380Y-119784952D01*
X196048380Y-119546857D01*
X196096000Y-119404000D01*
X196191238Y-119308761D01*
X196286476Y-119261142D01*
X196476952Y-119213523D01*
X196619809Y-119213523D01*
X196810285Y-119261142D01*
X196905523Y-119308761D01*
X197000761Y-119404000D01*
X197048380Y-119546857D01*
X197048380Y-119784952D01*
X195064181Y-117227225D02*
X195064181Y-116465320D01*
X195064181Y-129927225D02*
X195064181Y-129165320D01*
X195064181Y-104527225D02*
X195064181Y-103765320D01*
X197000761Y-134841904D02*
X197048380Y-134699047D01*
X197048380Y-134460952D01*
X197000761Y-134365714D01*
X196953142Y-134318095D01*
X196857904Y-134270476D01*
X196762666Y-134270476D01*
X196667428Y-134318095D01*
X196619809Y-134365714D01*
X196572190Y-134460952D01*
X196524571Y-134651428D01*
X196476952Y-134746666D01*
X196429333Y-134794285D01*
X196334095Y-134841904D01*
X196238857Y-134841904D01*
X196143619Y-134794285D01*
X196096000Y-134746666D01*
X196048380Y-134651428D01*
X196048380Y-134413333D01*
X196096000Y-134270476D01*
X196524571Y-133841904D02*
X196524571Y-133508571D01*
X197048380Y-133365714D02*
X197048380Y-133841904D01*
X196048380Y-133841904D01*
X196048380Y-133365714D01*
X197048380Y-132937142D02*
X196048380Y-132937142D01*
X197048380Y-132365714D01*
X196048380Y-132365714D01*
X197000761Y-131937142D02*
X197048380Y-131794285D01*
X197048380Y-131556190D01*
X197000761Y-131460952D01*
X196953142Y-131413333D01*
X196857904Y-131365714D01*
X196762666Y-131365714D01*
X196667428Y-131413333D01*
X196619809Y-131460952D01*
X196572190Y-131556190D01*
X196524571Y-131746666D01*
X196476952Y-131841904D01*
X196429333Y-131889523D01*
X196334095Y-131937142D01*
X196238857Y-131937142D01*
X196143619Y-131889523D01*
X196096000Y-131841904D01*
X196048380Y-131746666D01*
X196048380Y-131508571D01*
X196096000Y-131365714D01*
X196048380Y-130746666D02*
X196048380Y-130556190D01*
X196096000Y-130460952D01*
X196191238Y-130365714D01*
X196381714Y-130318095D01*
X196715047Y-130318095D01*
X196905523Y-130365714D01*
X197000761Y-130460952D01*
X197048380Y-130556190D01*
X197048380Y-130746666D01*
X197000761Y-130841904D01*
X196905523Y-130937142D01*
X196715047Y-130984761D01*
X196381714Y-130984761D01*
X196191238Y-130937142D01*
X196096000Y-130841904D01*
X196048380Y-130746666D01*
X197048380Y-129318095D02*
X196572190Y-129651428D01*
X197048380Y-129889523D02*
X196048380Y-129889523D01*
X196048380Y-129508571D01*
X196096000Y-129413333D01*
X196143619Y-129365714D01*
X196238857Y-129318095D01*
X196381714Y-129318095D01*
X196476952Y-129365714D01*
X196524571Y-129413333D01*
X196572190Y-129508571D01*
X196572190Y-129889523D01*
X195064181Y-107067225D02*
X195064181Y-106305320D01*
X195445133Y-106686273D02*
X194683229Y-106686273D01*
X195064181Y-132467225D02*
X195064181Y-131705320D01*
X195445133Y-132086273D02*
X194683229Y-132086273D01*
X197048380Y-105775047D02*
X197048380Y-105584571D01*
X197000761Y-105489333D01*
X196953142Y-105441714D01*
X196810285Y-105346476D01*
X196619809Y-105298857D01*
X196238857Y-105298857D01*
X196143619Y-105346476D01*
X196096000Y-105394095D01*
X196048380Y-105489333D01*
X196048380Y-105679809D01*
X196096000Y-105775047D01*
X196143619Y-105822666D01*
X196238857Y-105870285D01*
X196476952Y-105870285D01*
X196572190Y-105822666D01*
X196619809Y-105775047D01*
X196667428Y-105679809D01*
X196667428Y-105489333D01*
X196619809Y-105394095D01*
X196572190Y-105346476D01*
X196476952Y-105298857D01*
X196048380Y-105013142D02*
X197048380Y-104679809D01*
X196048380Y-104346476D01*
X195064181Y-119767225D02*
X195064181Y-119005320D01*
X195445133Y-119386273D02*
X194683229Y-119386273D01*
D10*
X167640000Y-53340000D02*
X167640000Y-147320000D01*
X104140000Y-116840000D02*
X165100000Y-116840000D01*
X104140000Y-83820000D02*
X165100000Y-83820000D01*
D11*
X197048380Y-54975047D02*
X197048380Y-54784571D01*
X197000761Y-54689333D01*
X196953142Y-54641714D01*
X196810285Y-54546476D01*
X196619809Y-54498857D01*
X196238857Y-54498857D01*
X196143619Y-54546476D01*
X196096000Y-54594095D01*
X196048380Y-54689333D01*
X196048380Y-54879809D01*
X196096000Y-54975047D01*
X196143619Y-55022666D01*
X196238857Y-55070285D01*
X196476952Y-55070285D01*
X196572190Y-55022666D01*
X196619809Y-54975047D01*
X196667428Y-54879809D01*
X196667428Y-54689333D01*
X196619809Y-54594095D01*
X196572190Y-54546476D01*
X196476952Y-54498857D01*
X196048380Y-54213142D02*
X197048380Y-53879809D01*
X196048380Y-53546476D01*
X195064181Y-53727225D02*
X195064181Y-52965320D01*
X195064181Y-66427225D02*
X195064181Y-65665320D01*
X197000761Y-84041904D02*
X197048380Y-83899047D01*
X197048380Y-83660952D01*
X197000761Y-83565714D01*
X196953142Y-83518095D01*
X196857904Y-83470476D01*
X196762666Y-83470476D01*
X196667428Y-83518095D01*
X196619809Y-83565714D01*
X196572190Y-83660952D01*
X196524571Y-83851428D01*
X196476952Y-83946666D01*
X196429333Y-83994285D01*
X196334095Y-84041904D01*
X196238857Y-84041904D01*
X196143619Y-83994285D01*
X196096000Y-83946666D01*
X196048380Y-83851428D01*
X196048380Y-83613333D01*
X196096000Y-83470476D01*
X196524571Y-83041904D02*
X196524571Y-82708571D01*
X197048380Y-82565714D02*
X197048380Y-83041904D01*
X196048380Y-83041904D01*
X196048380Y-82565714D01*
X197048380Y-82137142D02*
X196048380Y-82137142D01*
X197048380Y-81565714D01*
X196048380Y-81565714D01*
X197000761Y-81137142D02*
X197048380Y-80994285D01*
X197048380Y-80756190D01*
X197000761Y-80660952D01*
X196953142Y-80613333D01*
X196857904Y-80565714D01*
X196762666Y-80565714D01*
X196667428Y-80613333D01*
X196619809Y-80660952D01*
X196572190Y-80756190D01*
X196524571Y-80946666D01*
X196476952Y-81041904D01*
X196429333Y-81089523D01*
X196334095Y-81137142D01*
X196238857Y-81137142D01*
X196143619Y-81089523D01*
X196096000Y-81041904D01*
X196048380Y-80946666D01*
X196048380Y-80708571D01*
X196096000Y-80565714D01*
X196048380Y-79946666D02*
X196048380Y-79756190D01*
X196096000Y-79660952D01*
X196191238Y-79565714D01*
X196381714Y-79518095D01*
X196715047Y-79518095D01*
X196905523Y-79565714D01*
X197000761Y-79660952D01*
X197048380Y-79756190D01*
X197048380Y-79946666D01*
X197000761Y-80041904D01*
X196905523Y-80137142D01*
X196715047Y-80184761D01*
X196381714Y-80184761D01*
X196191238Y-80137142D01*
X196096000Y-80041904D01*
X196048380Y-79946666D01*
X197048380Y-78518095D02*
X196572190Y-78851428D01*
X197048380Y-79089523D02*
X196048380Y-79089523D01*
X196048380Y-78708571D01*
X196096000Y-78613333D01*
X196143619Y-78565714D01*
X196238857Y-78518095D01*
X196381714Y-78518095D01*
X196476952Y-78565714D01*
X196524571Y-78613333D01*
X196572190Y-78708571D01*
X196572190Y-79089523D01*
X195064181Y-81667225D02*
X195064181Y-80905320D01*
X195445133Y-81286273D02*
X194683229Y-81286273D01*
X195064181Y-56267225D02*
X195064181Y-55505320D01*
X195445133Y-55886273D02*
X194683229Y-55886273D01*
X195064181Y-79127225D02*
X195064181Y-78365320D01*
X196048380Y-71556380D02*
X196048380Y-71365904D01*
X196096000Y-71270666D01*
X196191238Y-71175428D01*
X196381714Y-71127809D01*
X196715047Y-71127809D01*
X196905523Y-71175428D01*
X197000761Y-71270666D01*
X197048380Y-71365904D01*
X197048380Y-71556380D01*
X197000761Y-71651619D01*
X196905523Y-71746857D01*
X196715047Y-71794476D01*
X196381714Y-71794476D01*
X196191238Y-71746857D01*
X196096000Y-71651619D01*
X196048380Y-71556380D01*
X197048380Y-70223047D02*
X197048380Y-70699238D01*
X196048380Y-70699238D01*
X196524571Y-69889714D02*
X196524571Y-69556380D01*
X197048380Y-69413523D02*
X197048380Y-69889714D01*
X196048380Y-69889714D01*
X196048380Y-69413523D01*
X197048380Y-68984952D02*
X196048380Y-68984952D01*
X196048380Y-68746857D01*
X196096000Y-68604000D01*
X196191238Y-68508761D01*
X196286476Y-68461142D01*
X196476952Y-68413523D01*
X196619809Y-68413523D01*
X196810285Y-68461142D01*
X196905523Y-68508761D01*
X197000761Y-68604000D01*
X197048380Y-68746857D01*
X197048380Y-68984952D01*
X195064181Y-68967225D02*
X195064181Y-68205320D01*
X195445133Y-68586273D02*
X194683229Y-68586273D01*
X129152774Y-144264181D02*
X129914679Y-144264181D01*
X136723619Y-145248380D02*
X136914095Y-145248380D01*
X137009333Y-145296000D01*
X137104571Y-145391238D01*
X137152190Y-145581714D01*
X137152190Y-145915047D01*
X137104571Y-146105523D01*
X137009333Y-146200761D01*
X136914095Y-146248380D01*
X136723619Y-146248380D01*
X136628380Y-146200761D01*
X136533142Y-146105523D01*
X136485523Y-145915047D01*
X136485523Y-145581714D01*
X136533142Y-145391238D01*
X136628380Y-145296000D01*
X136723619Y-145248380D01*
X138056952Y-146248380D02*
X137580761Y-146248380D01*
X137580761Y-145248380D01*
X138390285Y-145724571D02*
X138723619Y-145724571D01*
X138866476Y-146248380D02*
X138390285Y-146248380D01*
X138390285Y-145248380D01*
X138866476Y-145248380D01*
X139295047Y-146248380D02*
X139295047Y-145248380D01*
X139533142Y-145248380D01*
X139676000Y-145296000D01*
X139771238Y-145391238D01*
X139818857Y-145486476D01*
X139866476Y-145676952D01*
X139866476Y-145819809D01*
X139818857Y-146010285D01*
X139771238Y-146105523D01*
X139676000Y-146200761D01*
X139533142Y-146248380D01*
X139295047Y-146248380D01*
X153304952Y-146248380D02*
X153495428Y-146248380D01*
X153590666Y-146200761D01*
X153638285Y-146153142D01*
X153733523Y-146010285D01*
X153781142Y-145819809D01*
X153781142Y-145438857D01*
X153733523Y-145343619D01*
X153685904Y-145296000D01*
X153590666Y-145248380D01*
X153400190Y-145248380D01*
X153304952Y-145296000D01*
X153257333Y-145343619D01*
X153209714Y-145438857D01*
X153209714Y-145676952D01*
X153257333Y-145772190D01*
X153304952Y-145819809D01*
X153400190Y-145867428D01*
X153590666Y-145867428D01*
X153685904Y-145819809D01*
X153733523Y-145772190D01*
X153781142Y-145676952D01*
X154066857Y-145248380D02*
X154400190Y-146248380D01*
X154733523Y-145248380D01*
X154552774Y-144264181D02*
X155314679Y-144264181D01*
X126612774Y-144264181D02*
X127374679Y-144264181D01*
X126993727Y-144645133D02*
X126993727Y-143883229D01*
X139312774Y-144264181D02*
X140074679Y-144264181D01*
X139693727Y-144645133D02*
X139693727Y-143883229D01*
X124238095Y-146200761D02*
X124380952Y-146248380D01*
X124619047Y-146248380D01*
X124714285Y-146200761D01*
X124761904Y-146153142D01*
X124809523Y-146057904D01*
X124809523Y-145962666D01*
X124761904Y-145867428D01*
X124714285Y-145819809D01*
X124619047Y-145772190D01*
X124428571Y-145724571D01*
X124333333Y-145676952D01*
X124285714Y-145629333D01*
X124238095Y-145534095D01*
X124238095Y-145438857D01*
X124285714Y-145343619D01*
X124333333Y-145296000D01*
X124428571Y-145248380D01*
X124666666Y-145248380D01*
X124809523Y-145296000D01*
X125238095Y-145724571D02*
X125571428Y-145724571D01*
X125714285Y-146248380D02*
X125238095Y-146248380D01*
X125238095Y-145248380D01*
X125714285Y-145248380D01*
X126142857Y-146248380D02*
X126142857Y-145248380D01*
X126714285Y-146248380D01*
X126714285Y-145248380D01*
X127142857Y-146200761D02*
X127285714Y-146248380D01*
X127523809Y-146248380D01*
X127619047Y-146200761D01*
X127666666Y-146153142D01*
X127714285Y-146057904D01*
X127714285Y-145962666D01*
X127666666Y-145867428D01*
X127619047Y-145819809D01*
X127523809Y-145772190D01*
X127333333Y-145724571D01*
X127238095Y-145676952D01*
X127190476Y-145629333D01*
X127142857Y-145534095D01*
X127142857Y-145438857D01*
X127190476Y-145343619D01*
X127238095Y-145296000D01*
X127333333Y-145248380D01*
X127571428Y-145248380D01*
X127714285Y-145296000D01*
X128333333Y-145248380D02*
X128523809Y-145248380D01*
X128619047Y-145296000D01*
X128714285Y-145391238D01*
X128761904Y-145581714D01*
X128761904Y-145915047D01*
X128714285Y-146105523D01*
X128619047Y-146200761D01*
X128523809Y-146248380D01*
X128333333Y-146248380D01*
X128238095Y-146200761D01*
X128142857Y-146105523D01*
X128095238Y-145915047D01*
X128095238Y-145581714D01*
X128142857Y-145391238D01*
X128238095Y-145296000D01*
X128333333Y-145248380D01*
X129761904Y-146248380D02*
X129428571Y-145772190D01*
X129190476Y-146248380D02*
X129190476Y-145248380D01*
X129571428Y-145248380D01*
X129666666Y-145296000D01*
X129714285Y-145343619D01*
X129761904Y-145438857D01*
X129761904Y-145581714D01*
X129714285Y-145676952D01*
X129666666Y-145724571D01*
X129571428Y-145772190D01*
X129190476Y-145772190D01*
X152012774Y-144264181D02*
X152774679Y-144264181D01*
X152393727Y-144645133D02*
X152393727Y-143883229D01*
X141852774Y-144264181D02*
X142614679Y-144264181D01*
X126612774Y-111244181D02*
X127374679Y-111244181D01*
X126993727Y-111625133D02*
X126993727Y-110863229D01*
X129152774Y-111244181D02*
X129914679Y-111244181D01*
X152012774Y-111244181D02*
X152774679Y-111244181D01*
X152393727Y-111625133D02*
X152393727Y-110863229D01*
X154552774Y-111244181D02*
X155314679Y-111244181D01*
X153304952Y-113228380D02*
X153495428Y-113228380D01*
X153590666Y-113180761D01*
X153638285Y-113133142D01*
X153733523Y-112990285D01*
X153781142Y-112799809D01*
X153781142Y-112418857D01*
X153733523Y-112323619D01*
X153685904Y-112276000D01*
X153590666Y-112228380D01*
X153400190Y-112228380D01*
X153304952Y-112276000D01*
X153257333Y-112323619D01*
X153209714Y-112418857D01*
X153209714Y-112656952D01*
X153257333Y-112752190D01*
X153304952Y-112799809D01*
X153400190Y-112847428D01*
X153590666Y-112847428D01*
X153685904Y-112799809D01*
X153733523Y-112752190D01*
X153781142Y-112656952D01*
X154066857Y-112228380D02*
X154400190Y-113228380D01*
X154733523Y-112228380D01*
X136723619Y-112228380D02*
X136914095Y-112228380D01*
X137009333Y-112276000D01*
X137104571Y-112371238D01*
X137152190Y-112561714D01*
X137152190Y-112895047D01*
X137104571Y-113085523D01*
X137009333Y-113180761D01*
X136914095Y-113228380D01*
X136723619Y-113228380D01*
X136628380Y-113180761D01*
X136533142Y-113085523D01*
X136485523Y-112895047D01*
X136485523Y-112561714D01*
X136533142Y-112371238D01*
X136628380Y-112276000D01*
X136723619Y-112228380D01*
X138056952Y-113228380D02*
X137580761Y-113228380D01*
X137580761Y-112228380D01*
X138390285Y-112704571D02*
X138723619Y-112704571D01*
X138866476Y-113228380D02*
X138390285Y-113228380D01*
X138390285Y-112228380D01*
X138866476Y-112228380D01*
X139295047Y-113228380D02*
X139295047Y-112228380D01*
X139533142Y-112228380D01*
X139676000Y-112276000D01*
X139771238Y-112371238D01*
X139818857Y-112466476D01*
X139866476Y-112656952D01*
X139866476Y-112799809D01*
X139818857Y-112990285D01*
X139771238Y-113085523D01*
X139676000Y-113180761D01*
X139533142Y-113228380D01*
X139295047Y-113228380D01*
X139312774Y-111244181D02*
X140074679Y-111244181D01*
X139693727Y-111625133D02*
X139693727Y-110863229D01*
X141852774Y-111244181D02*
X142614679Y-111244181D01*
X124238095Y-113180761D02*
X124380952Y-113228380D01*
X124619047Y-113228380D01*
X124714285Y-113180761D01*
X124761904Y-113133142D01*
X124809523Y-113037904D01*
X124809523Y-112942666D01*
X124761904Y-112847428D01*
X124714285Y-112799809D01*
X124619047Y-112752190D01*
X124428571Y-112704571D01*
X124333333Y-112656952D01*
X124285714Y-112609333D01*
X124238095Y-112514095D01*
X124238095Y-112418857D01*
X124285714Y-112323619D01*
X124333333Y-112276000D01*
X124428571Y-112228380D01*
X124666666Y-112228380D01*
X124809523Y-112276000D01*
X125238095Y-112704571D02*
X125571428Y-112704571D01*
X125714285Y-113228380D02*
X125238095Y-113228380D01*
X125238095Y-112228380D01*
X125714285Y-112228380D01*
X126142857Y-113228380D02*
X126142857Y-112228380D01*
X126714285Y-113228380D01*
X126714285Y-112228380D01*
X127142857Y-113180761D02*
X127285714Y-113228380D01*
X127523809Y-113228380D01*
X127619047Y-113180761D01*
X127666666Y-113133142D01*
X127714285Y-113037904D01*
X127714285Y-112942666D01*
X127666666Y-112847428D01*
X127619047Y-112799809D01*
X127523809Y-112752190D01*
X127333333Y-112704571D01*
X127238095Y-112656952D01*
X127190476Y-112609333D01*
X127142857Y-112514095D01*
X127142857Y-112418857D01*
X127190476Y-112323619D01*
X127238095Y-112276000D01*
X127333333Y-112228380D01*
X127571428Y-112228380D01*
X127714285Y-112276000D01*
X128333333Y-112228380D02*
X128523809Y-112228380D01*
X128619047Y-112276000D01*
X128714285Y-112371238D01*
X128761904Y-112561714D01*
X128761904Y-112895047D01*
X128714285Y-113085523D01*
X128619047Y-113180761D01*
X128523809Y-113228380D01*
X128333333Y-113228380D01*
X128238095Y-113180761D01*
X128142857Y-113085523D01*
X128095238Y-112895047D01*
X128095238Y-112561714D01*
X128142857Y-112371238D01*
X128238095Y-112276000D01*
X128333333Y-112228380D01*
X129761904Y-113228380D02*
X129428571Y-112752190D01*
X129190476Y-113228380D02*
X129190476Y-112228380D01*
X129571428Y-112228380D01*
X129666666Y-112276000D01*
X129714285Y-112323619D01*
X129761904Y-112418857D01*
X129761904Y-112561714D01*
X129714285Y-112656952D01*
X129666666Y-112704571D01*
X129571428Y-112752190D01*
X129190476Y-112752190D01*
X126612774Y-78224181D02*
X127374679Y-78224181D01*
X126993727Y-78605133D02*
X126993727Y-77843229D01*
X129152774Y-78224181D02*
X129914679Y-78224181D01*
X124238095Y-80160761D02*
X124380952Y-80208380D01*
X124619047Y-80208380D01*
X124714285Y-80160761D01*
X124761904Y-80113142D01*
X124809523Y-80017904D01*
X124809523Y-79922666D01*
X124761904Y-79827428D01*
X124714285Y-79779809D01*
X124619047Y-79732190D01*
X124428571Y-79684571D01*
X124333333Y-79636952D01*
X124285714Y-79589333D01*
X124238095Y-79494095D01*
X124238095Y-79398857D01*
X124285714Y-79303619D01*
X124333333Y-79256000D01*
X124428571Y-79208380D01*
X124666666Y-79208380D01*
X124809523Y-79256000D01*
X125238095Y-79684571D02*
X125571428Y-79684571D01*
X125714285Y-80208380D02*
X125238095Y-80208380D01*
X125238095Y-79208380D01*
X125714285Y-79208380D01*
X126142857Y-80208380D02*
X126142857Y-79208380D01*
X126714285Y-80208380D01*
X126714285Y-79208380D01*
X127142857Y-80160761D02*
X127285714Y-80208380D01*
X127523809Y-80208380D01*
X127619047Y-80160761D01*
X127666666Y-80113142D01*
X127714285Y-80017904D01*
X127714285Y-79922666D01*
X127666666Y-79827428D01*
X127619047Y-79779809D01*
X127523809Y-79732190D01*
X127333333Y-79684571D01*
X127238095Y-79636952D01*
X127190476Y-79589333D01*
X127142857Y-79494095D01*
X127142857Y-79398857D01*
X127190476Y-79303619D01*
X127238095Y-79256000D01*
X127333333Y-79208380D01*
X127571428Y-79208380D01*
X127714285Y-79256000D01*
X128333333Y-79208380D02*
X128523809Y-79208380D01*
X128619047Y-79256000D01*
X128714285Y-79351238D01*
X128761904Y-79541714D01*
X128761904Y-79875047D01*
X128714285Y-80065523D01*
X128619047Y-80160761D01*
X128523809Y-80208380D01*
X128333333Y-80208380D01*
X128238095Y-80160761D01*
X128142857Y-80065523D01*
X128095238Y-79875047D01*
X128095238Y-79541714D01*
X128142857Y-79351238D01*
X128238095Y-79256000D01*
X128333333Y-79208380D01*
X129761904Y-80208380D02*
X129428571Y-79732190D01*
X129190476Y-80208380D02*
X129190476Y-79208380D01*
X129571428Y-79208380D01*
X129666666Y-79256000D01*
X129714285Y-79303619D01*
X129761904Y-79398857D01*
X129761904Y-79541714D01*
X129714285Y-79636952D01*
X129666666Y-79684571D01*
X129571428Y-79732190D01*
X129190476Y-79732190D01*
X141852774Y-78224181D02*
X142614679Y-78224181D01*
X139312774Y-78224181D02*
X140074679Y-78224181D01*
X139693727Y-78605133D02*
X139693727Y-77843229D01*
X136723619Y-79208380D02*
X136914095Y-79208380D01*
X137009333Y-79256000D01*
X137104571Y-79351238D01*
X137152190Y-79541714D01*
X137152190Y-79875047D01*
X137104571Y-80065523D01*
X137009333Y-80160761D01*
X136914095Y-80208380D01*
X136723619Y-80208380D01*
X136628380Y-80160761D01*
X136533142Y-80065523D01*
X136485523Y-79875047D01*
X136485523Y-79541714D01*
X136533142Y-79351238D01*
X136628380Y-79256000D01*
X136723619Y-79208380D01*
X138056952Y-80208380D02*
X137580761Y-80208380D01*
X137580761Y-79208380D01*
X138390285Y-79684571D02*
X138723619Y-79684571D01*
X138866476Y-80208380D02*
X138390285Y-80208380D01*
X138390285Y-79208380D01*
X138866476Y-79208380D01*
X139295047Y-80208380D02*
X139295047Y-79208380D01*
X139533142Y-79208380D01*
X139676000Y-79256000D01*
X139771238Y-79351238D01*
X139818857Y-79446476D01*
X139866476Y-79636952D01*
X139866476Y-79779809D01*
X139818857Y-79970285D01*
X139771238Y-80065523D01*
X139676000Y-80160761D01*
X139533142Y-80208380D01*
X139295047Y-80208380D01*
X153304952Y-80208380D02*
X153495428Y-80208380D01*
X153590666Y-80160761D01*
X153638285Y-80113142D01*
X153733523Y-79970285D01*
X153781142Y-79779809D01*
X153781142Y-79398857D01*
X153733523Y-79303619D01*
X153685904Y-79256000D01*
X153590666Y-79208380D01*
X153400190Y-79208380D01*
X153304952Y-79256000D01*
X153257333Y-79303619D01*
X153209714Y-79398857D01*
X153209714Y-79636952D01*
X153257333Y-79732190D01*
X153304952Y-79779809D01*
X153400190Y-79827428D01*
X153590666Y-79827428D01*
X153685904Y-79779809D01*
X153733523Y-79732190D01*
X153781142Y-79636952D01*
X154066857Y-79208380D02*
X154400190Y-80208380D01*
X154733523Y-79208380D01*
X154552774Y-78224181D02*
X155314679Y-78224181D01*
X152012774Y-78224181D02*
X152774679Y-78224181D01*
X152393727Y-78605133D02*
X152393727Y-77843229D01*
D10*
X173990000Y-107950000D02*
X173990000Y-105410000D01*
X173990000Y-105410000D02*
X171320000Y-105410000D01*
X171320000Y-107950000D02*
X171320000Y-146180000D01*
X171320000Y-102740000D02*
X171320000Y-105410000D01*
X186690000Y-105410000D02*
X189360000Y-105410000D01*
X186690000Y-105410000D02*
X186690000Y-143510000D01*
X186690000Y-143510000D02*
X189360000Y-143510000D01*
X173990000Y-107950000D02*
X171320000Y-107950000D01*
X173990000Y-107950000D02*
X173990000Y-143510000D01*
X173990000Y-143510000D02*
X171320000Y-143510000D01*
X171320000Y-146180000D02*
X189360000Y-146180000D01*
X189360000Y-146180000D02*
X189360000Y-102740000D01*
X189360000Y-102740000D02*
X171320000Y-102740000D01*
X184600000Y-116030000D02*
X181160000Y-116030000D01*
X181160000Y-116030000D02*
X181160000Y-125270000D01*
X181160000Y-125270000D02*
X184600000Y-125270000D01*
X184600000Y-125270000D02*
X184600000Y-116030000D01*
X182880000Y-115340000D02*
X182880000Y-116030000D01*
X182880000Y-125960000D02*
X182880000Y-125270000D01*
X191710000Y-130810000D02*
X194370000Y-130810000D01*
X191710000Y-130810000D02*
X191710000Y-135950000D01*
X191710000Y-135950000D02*
X194370000Y-135950000D01*
X194370000Y-130810000D02*
X194370000Y-135950000D01*
X194370000Y-128210000D02*
X194370000Y-129540000D01*
X193040000Y-128210000D02*
X194370000Y-128210000D01*
X191710000Y-118110000D02*
X194370000Y-118110000D01*
X191710000Y-118110000D02*
X191710000Y-125790000D01*
X191710000Y-125790000D02*
X194370000Y-125790000D01*
X194370000Y-118110000D02*
X194370000Y-125790000D01*
X194370000Y-115510000D02*
X194370000Y-116840000D01*
X193040000Y-115510000D02*
X194370000Y-115510000D01*
X177800000Y-125960000D02*
X177800000Y-125270000D01*
X177800000Y-115340000D02*
X177800000Y-116030000D01*
X179520000Y-125270000D02*
X179520000Y-116030000D01*
X176080000Y-125270000D02*
X179520000Y-125270000D01*
X176080000Y-116030000D02*
X176080000Y-125270000D01*
X179520000Y-116030000D02*
X176080000Y-116030000D01*
X193040000Y-102810000D02*
X194370000Y-102810000D01*
X194370000Y-102810000D02*
X194370000Y-104140000D01*
X194370000Y-105410000D02*
X194370000Y-108010000D01*
X191710000Y-108010000D02*
X194370000Y-108010000D01*
X191710000Y-105410000D02*
X191710000Y-108010000D01*
X191710000Y-105410000D02*
X194370000Y-105410000D01*
X193040000Y-77410000D02*
X194370000Y-77410000D01*
X194370000Y-77410000D02*
X194370000Y-78740000D01*
X194370000Y-80010000D02*
X194370000Y-85150000D01*
X191710000Y-85150000D02*
X194370000Y-85150000D01*
X191710000Y-80010000D02*
X191710000Y-85150000D01*
X191710000Y-80010000D02*
X194370000Y-80010000D01*
X193040000Y-64710000D02*
X194370000Y-64710000D01*
X194370000Y-64710000D02*
X194370000Y-66040000D01*
X194370000Y-67310000D02*
X194370000Y-74990000D01*
X191710000Y-74990000D02*
X194370000Y-74990000D01*
X191710000Y-67310000D02*
X191710000Y-74990000D01*
X191710000Y-67310000D02*
X194370000Y-67310000D01*
X191710000Y-54610000D02*
X194370000Y-54610000D01*
X191710000Y-54610000D02*
X191710000Y-57210000D01*
X191710000Y-57210000D02*
X194370000Y-57210000D01*
X194370000Y-54610000D02*
X194370000Y-57210000D01*
X194370000Y-52010000D02*
X194370000Y-53340000D01*
X193040000Y-52010000D02*
X194370000Y-52010000D01*
X189360000Y-51940000D02*
X171320000Y-51940000D01*
X189360000Y-95380000D02*
X189360000Y-51940000D01*
X171320000Y-95380000D02*
X189360000Y-95380000D01*
X173990000Y-92710000D02*
X171320000Y-92710000D01*
X173990000Y-57150000D02*
X173990000Y-92710000D01*
X173990000Y-57150000D02*
X171320000Y-57150000D01*
X186690000Y-92710000D02*
X189360000Y-92710000D01*
X186690000Y-54610000D02*
X186690000Y-92710000D01*
X186690000Y-54610000D02*
X189360000Y-54610000D01*
X171320000Y-51940000D02*
X171320000Y-54610000D01*
X171320000Y-57150000D02*
X171320000Y-95380000D01*
X173990000Y-54610000D02*
X171320000Y-54610000D01*
X173990000Y-57150000D02*
X173990000Y-54610000D01*
X179520000Y-65230000D02*
X176080000Y-65230000D01*
X176080000Y-65230000D02*
X176080000Y-74470000D01*
X176080000Y-74470000D02*
X179520000Y-74470000D01*
X179520000Y-74470000D02*
X179520000Y-65230000D01*
X177800000Y-64540000D02*
X177800000Y-65230000D01*
X177800000Y-75160000D02*
X177800000Y-74470000D01*
X182880000Y-75160000D02*
X182880000Y-74470000D01*
X182880000Y-64540000D02*
X182880000Y-65230000D01*
X184600000Y-74470000D02*
X184600000Y-65230000D01*
X181160000Y-74470000D02*
X184600000Y-74470000D01*
X181160000Y-65230000D02*
X181160000Y-74470000D01*
X184600000Y-65230000D02*
X181160000Y-65230000D01*
X156270000Y-142240000D02*
X156270000Y-143570000D01*
X156270000Y-143570000D02*
X154940000Y-143570000D01*
X153670000Y-143570000D02*
X151070000Y-143570000D01*
X151070000Y-140910000D02*
X151070000Y-143570000D01*
X153670000Y-140910000D02*
X151070000Y-140910000D01*
X153670000Y-140910000D02*
X153670000Y-143570000D01*
X128270000Y-140910000D02*
X128270000Y-143570000D01*
X128270000Y-140910000D02*
X123130000Y-140910000D01*
X123130000Y-140910000D02*
X123130000Y-143570000D01*
X128270000Y-143570000D02*
X123130000Y-143570000D01*
X130870000Y-143570000D02*
X129540000Y-143570000D01*
X130870000Y-142240000D02*
X130870000Y-143570000D01*
X143050000Y-133800000D02*
X143050000Y-130360000D01*
X143050000Y-130360000D02*
X133810000Y-130360000D01*
X133810000Y-130360000D02*
X133810000Y-133800000D01*
X133810000Y-133800000D02*
X143050000Y-133800000D01*
X143740000Y-132080000D02*
X143050000Y-132080000D01*
X133120000Y-132080000D02*
X133810000Y-132080000D01*
X151130000Y-123190000D02*
X153670000Y-123190000D01*
X153670000Y-123190000D02*
X153670000Y-120520000D01*
X151130000Y-120520000D02*
X112900000Y-120520000D01*
X156340000Y-120520000D02*
X153670000Y-120520000D01*
X153670000Y-135890000D02*
X153670000Y-138560000D01*
X153670000Y-135890000D02*
X115570000Y-135890000D01*
X115570000Y-135890000D02*
X115570000Y-138560000D01*
X151130000Y-123190000D02*
X151130000Y-120520000D01*
X151130000Y-123190000D02*
X115570000Y-123190000D01*
X115570000Y-123190000D02*
X115570000Y-120520000D01*
X112900000Y-120520000D02*
X112900000Y-138560000D01*
X112900000Y-138560000D02*
X156340000Y-138560000D01*
X156340000Y-138560000D02*
X156340000Y-120520000D01*
X133120000Y-127000000D02*
X133810000Y-127000000D01*
X143740000Y-127000000D02*
X143050000Y-127000000D01*
X133810000Y-128720000D02*
X143050000Y-128720000D01*
X133810000Y-125280000D02*
X133810000Y-128720000D01*
X143050000Y-125280000D02*
X133810000Y-125280000D01*
X143050000Y-128720000D02*
X143050000Y-125280000D01*
X140970000Y-140910000D02*
X140970000Y-143570000D01*
X140970000Y-140910000D02*
X133290000Y-140910000D01*
X133290000Y-140910000D02*
X133290000Y-143570000D01*
X140970000Y-143570000D02*
X133290000Y-143570000D01*
X143570000Y-143570000D02*
X142240000Y-143570000D01*
X143570000Y-142240000D02*
X143570000Y-143570000D01*
X153670000Y-107890000D02*
X153670000Y-110550000D01*
X153670000Y-107890000D02*
X151070000Y-107890000D01*
X151070000Y-107890000D02*
X151070000Y-110550000D01*
X153670000Y-110550000D02*
X151070000Y-110550000D01*
X156270000Y-110550000D02*
X154940000Y-110550000D01*
X156270000Y-109220000D02*
X156270000Y-110550000D01*
X156340000Y-105540000D02*
X156340000Y-87500000D01*
X112900000Y-105540000D02*
X156340000Y-105540000D01*
X112900000Y-87500000D02*
X112900000Y-105540000D01*
X115570000Y-90170000D02*
X115570000Y-87500000D01*
X151130000Y-90170000D02*
X115570000Y-90170000D01*
X151130000Y-90170000D02*
X151130000Y-87500000D01*
X115570000Y-102870000D02*
X115570000Y-105540000D01*
X153670000Y-102870000D02*
X115570000Y-102870000D01*
X153670000Y-102870000D02*
X153670000Y-105540000D01*
X156340000Y-87500000D02*
X153670000Y-87500000D01*
X151130000Y-87500000D02*
X112900000Y-87500000D01*
X153670000Y-90170000D02*
X153670000Y-87500000D01*
X151130000Y-90170000D02*
X153670000Y-90170000D01*
X133120000Y-99060000D02*
X133810000Y-99060000D01*
X143740000Y-99060000D02*
X143050000Y-99060000D01*
X133810000Y-100780000D02*
X143050000Y-100780000D01*
X133810000Y-97340000D02*
X133810000Y-100780000D01*
X143050000Y-97340000D02*
X133810000Y-97340000D01*
X143050000Y-100780000D02*
X143050000Y-97340000D01*
X130870000Y-109220000D02*
X130870000Y-110550000D01*
X130870000Y-110550000D02*
X129540000Y-110550000D01*
X128270000Y-110550000D02*
X123130000Y-110550000D01*
X123130000Y-107890000D02*
X123130000Y-110550000D01*
X128270000Y-107890000D02*
X123130000Y-107890000D01*
X128270000Y-107890000D02*
X128270000Y-110550000D01*
X143050000Y-95700000D02*
X143050000Y-92260000D01*
X143050000Y-92260000D02*
X133810000Y-92260000D01*
X133810000Y-92260000D02*
X133810000Y-95700000D01*
X133810000Y-95700000D02*
X143050000Y-95700000D01*
X143740000Y-93980000D02*
X143050000Y-93980000D01*
X133120000Y-93980000D02*
X133810000Y-93980000D01*
X143570000Y-109220000D02*
X143570000Y-110550000D01*
X143570000Y-110550000D02*
X142240000Y-110550000D01*
X140970000Y-110550000D02*
X133290000Y-110550000D01*
X133290000Y-107890000D02*
X133290000Y-110550000D01*
X140970000Y-107890000D02*
X133290000Y-107890000D01*
X140970000Y-107890000D02*
X140970000Y-110550000D01*
X156270000Y-76200000D02*
X156270000Y-77530000D01*
X156270000Y-77530000D02*
X154940000Y-77530000D01*
X153670000Y-77530000D02*
X151070000Y-77530000D01*
X151070000Y-74870000D02*
X151070000Y-77530000D01*
X153670000Y-74870000D02*
X151070000Y-74870000D01*
X153670000Y-74870000D02*
X153670000Y-77530000D01*
X151130000Y-57150000D02*
X153670000Y-57150000D01*
X153670000Y-57150000D02*
X153670000Y-54480000D01*
X151130000Y-54480000D02*
X112900000Y-54480000D01*
X156340000Y-54480000D02*
X153670000Y-54480000D01*
X153670000Y-69850000D02*
X153670000Y-72520000D01*
X153670000Y-69850000D02*
X115570000Y-69850000D01*
X115570000Y-69850000D02*
X115570000Y-72520000D01*
X151130000Y-57150000D02*
X151130000Y-54480000D01*
X151130000Y-57150000D02*
X115570000Y-57150000D01*
X115570000Y-57150000D02*
X115570000Y-54480000D01*
X112900000Y-54480000D02*
X112900000Y-72520000D01*
X112900000Y-72520000D02*
X156340000Y-72520000D01*
X156340000Y-72520000D02*
X156340000Y-54480000D01*
X128270000Y-74870000D02*
X128270000Y-77530000D01*
X128270000Y-74870000D02*
X123130000Y-74870000D01*
X123130000Y-74870000D02*
X123130000Y-77530000D01*
X128270000Y-77530000D02*
X123130000Y-77530000D01*
X130870000Y-77530000D02*
X129540000Y-77530000D01*
X130870000Y-76200000D02*
X130870000Y-77530000D01*
X140970000Y-74870000D02*
X140970000Y-77530000D01*
X140970000Y-74870000D02*
X133290000Y-74870000D01*
X133290000Y-74870000D02*
X133290000Y-77530000D01*
X140970000Y-77530000D02*
X133290000Y-77530000D01*
X143570000Y-77530000D02*
X142240000Y-77530000D01*
X143570000Y-76200000D02*
X143570000Y-77530000D01*
X143050000Y-67760000D02*
X143050000Y-64320000D01*
X143050000Y-64320000D02*
X133810000Y-64320000D01*
X133810000Y-64320000D02*
X133810000Y-67760000D01*
X133810000Y-67760000D02*
X143050000Y-67760000D01*
X143740000Y-66040000D02*
X143050000Y-66040000D01*
X133120000Y-66040000D02*
X133810000Y-66040000D01*
X133120000Y-60960000D02*
X133810000Y-60960000D01*
X143740000Y-60960000D02*
X143050000Y-60960000D01*
X133810000Y-62680000D02*
X143050000Y-62680000D01*
X133810000Y-59240000D02*
X133810000Y-62680000D01*
X143050000Y-59240000D02*
X133810000Y-59240000D01*
X143050000Y-62680000D02*
X143050000Y-59240000D01*
D11*
X180173333Y-136445714D02*
X180173333Y-136921904D01*
X179887619Y-136350476D02*
X180887619Y-136683809D01*
X179887619Y-137017142D01*
X179887619Y-137874285D02*
X179887619Y-137302857D01*
X179887619Y-137588571D02*
X180887619Y-137588571D01*
X180744761Y-137493333D01*
X180649523Y-137398095D01*
X180601904Y-137302857D01*
X186052380Y-120816666D02*
X185576190Y-121150000D01*
X186052380Y-121388095D02*
X185052380Y-121388095D01*
X185052380Y-121007142D01*
X185100000Y-120911904D01*
X185147619Y-120864285D01*
X185242857Y-120816666D01*
X185385714Y-120816666D01*
X185480952Y-120864285D01*
X185528571Y-120911904D01*
X185576190Y-121007142D01*
X185576190Y-121388095D01*
X186052380Y-119864285D02*
X186052380Y-120435714D01*
X186052380Y-120150000D02*
X185052380Y-120150000D01*
X185195238Y-120245238D01*
X185290476Y-120340476D01*
X185338095Y-120435714D01*
X191047619Y-131746666D02*
X190333333Y-131746666D01*
X190190476Y-131699047D01*
X190095238Y-131603809D01*
X190047619Y-131460952D01*
X190047619Y-131365714D01*
X191047619Y-132127619D02*
X191047619Y-132746666D01*
X190666666Y-132413333D01*
X190666666Y-132556190D01*
X190619047Y-132651428D01*
X190571428Y-132699047D01*
X190476190Y-132746666D01*
X190238095Y-132746666D01*
X190142857Y-132699047D01*
X190095238Y-132651428D01*
X190047619Y-132556190D01*
X190047619Y-132270476D01*
X190095238Y-132175238D01*
X190142857Y-132127619D01*
X191047619Y-120062666D02*
X190333333Y-120062666D01*
X190190476Y-120015047D01*
X190095238Y-119919809D01*
X190047619Y-119776952D01*
X190047619Y-119681714D01*
X190952380Y-120491238D02*
X191000000Y-120538857D01*
X191047619Y-120634095D01*
X191047619Y-120872190D01*
X191000000Y-120967428D01*
X190952380Y-121015047D01*
X190857142Y-121062666D01*
X190761904Y-121062666D01*
X190619047Y-121015047D01*
X190047619Y-120443619D01*
X190047619Y-121062666D01*
X180972380Y-120816666D02*
X180496190Y-121150000D01*
X180972380Y-121388095D02*
X179972380Y-121388095D01*
X179972380Y-121007142D01*
X180020000Y-120911904D01*
X180067619Y-120864285D01*
X180162857Y-120816666D01*
X180305714Y-120816666D01*
X180400952Y-120864285D01*
X180448571Y-120911904D01*
X180496190Y-121007142D01*
X180496190Y-121388095D01*
X180067619Y-120435714D02*
X180020000Y-120388095D01*
X179972380Y-120292857D01*
X179972380Y-120054761D01*
X180020000Y-119959523D01*
X180067619Y-119911904D01*
X180162857Y-119864285D01*
X180258095Y-119864285D01*
X180400952Y-119911904D01*
X180972380Y-120483333D01*
X180972380Y-119864285D01*
X191047619Y-104822666D02*
X190333333Y-104822666D01*
X190190476Y-104775047D01*
X190095238Y-104679809D01*
X190047619Y-104536952D01*
X190047619Y-104441714D01*
X190047619Y-105822666D02*
X190047619Y-105251238D01*
X190047619Y-105536952D02*
X191047619Y-105536952D01*
X190904761Y-105441714D01*
X190809523Y-105346476D01*
X190761904Y-105251238D01*
X191047619Y-80946666D02*
X190333333Y-80946666D01*
X190190476Y-80899047D01*
X190095238Y-80803809D01*
X190047619Y-80660952D01*
X190047619Y-80565714D01*
X191047619Y-81327619D02*
X191047619Y-81946666D01*
X190666666Y-81613333D01*
X190666666Y-81756190D01*
X190619047Y-81851428D01*
X190571428Y-81899047D01*
X190476190Y-81946666D01*
X190238095Y-81946666D01*
X190142857Y-81899047D01*
X190095238Y-81851428D01*
X190047619Y-81756190D01*
X190047619Y-81470476D01*
X190095238Y-81375238D01*
X190142857Y-81327619D01*
X191047619Y-69262666D02*
X190333333Y-69262666D01*
X190190476Y-69215047D01*
X190095238Y-69119809D01*
X190047619Y-68976952D01*
X190047619Y-68881714D01*
X190952380Y-69691238D02*
X191000000Y-69738857D01*
X191047619Y-69834095D01*
X191047619Y-70072190D01*
X191000000Y-70167428D01*
X190952380Y-70215047D01*
X190857142Y-70262666D01*
X190761904Y-70262666D01*
X190619047Y-70215047D01*
X190047619Y-69643619D01*
X190047619Y-70262666D01*
X191047619Y-54022666D02*
X190333333Y-54022666D01*
X190190476Y-53975047D01*
X190095238Y-53879809D01*
X190047619Y-53736952D01*
X190047619Y-53641714D01*
X190047619Y-55022666D02*
X190047619Y-54451238D01*
X190047619Y-54736952D02*
X191047619Y-54736952D01*
X190904761Y-54641714D01*
X190809523Y-54546476D01*
X190761904Y-54451238D01*
X180173333Y-85645714D02*
X180173333Y-86121904D01*
X179887619Y-85550476D02*
X180887619Y-85883809D01*
X179887619Y-86217142D01*
X179887619Y-87074285D02*
X179887619Y-86502857D01*
X179887619Y-86788571D02*
X180887619Y-86788571D01*
X180744761Y-86693333D01*
X180649523Y-86598095D01*
X180601904Y-86502857D01*
X180972380Y-70016666D02*
X180496190Y-70350000D01*
X180972380Y-70588095D02*
X179972380Y-70588095D01*
X179972380Y-70207142D01*
X180020000Y-70111904D01*
X180067619Y-70064285D01*
X180162857Y-70016666D01*
X180305714Y-70016666D01*
X180400952Y-70064285D01*
X180448571Y-70111904D01*
X180496190Y-70207142D01*
X180496190Y-70588095D01*
X180067619Y-69635714D02*
X180020000Y-69588095D01*
X179972380Y-69492857D01*
X179972380Y-69254761D01*
X180020000Y-69159523D01*
X180067619Y-69111904D01*
X180162857Y-69064285D01*
X180258095Y-69064285D01*
X180400952Y-69111904D01*
X180972380Y-69683333D01*
X180972380Y-69064285D01*
X186052380Y-70016666D02*
X185576190Y-70350000D01*
X186052380Y-70588095D02*
X185052380Y-70588095D01*
X185052380Y-70207142D01*
X185100000Y-70111904D01*
X185147619Y-70064285D01*
X185242857Y-70016666D01*
X185385714Y-70016666D01*
X185480952Y-70064285D01*
X185528571Y-70111904D01*
X185576190Y-70207142D01*
X185576190Y-70588095D01*
X186052380Y-69064285D02*
X186052380Y-69635714D01*
X186052380Y-69350000D02*
X185052380Y-69350000D01*
X185195238Y-69445238D01*
X185290476Y-69540476D01*
X185338095Y-69635714D01*
X153590666Y-139152380D02*
X153590666Y-139866666D01*
X153543047Y-140009523D01*
X153447809Y-140104761D01*
X153304952Y-140152380D01*
X153209714Y-140152380D01*
X154590666Y-140152380D02*
X154019238Y-140152380D01*
X154304952Y-140152380D02*
X154304952Y-139152380D01*
X154209714Y-139295238D01*
X154114476Y-139390476D01*
X154019238Y-139438095D01*
X126666666Y-139152380D02*
X126666666Y-139866666D01*
X126619047Y-140009523D01*
X126523809Y-140104761D01*
X126380952Y-140152380D01*
X126285714Y-140152380D01*
X127047619Y-139152380D02*
X127666666Y-139152380D01*
X127333333Y-139533333D01*
X127476190Y-139533333D01*
X127571428Y-139580952D01*
X127619047Y-139628571D01*
X127666666Y-139723809D01*
X127666666Y-139961904D01*
X127619047Y-140057142D01*
X127571428Y-140104761D01*
X127476190Y-140152380D01*
X127190476Y-140152380D01*
X127095238Y-140104761D01*
X127047619Y-140057142D01*
X138263333Y-135252380D02*
X137930000Y-134776190D01*
X137691904Y-135252380D02*
X137691904Y-134252380D01*
X138072857Y-134252380D01*
X138168095Y-134300000D01*
X138215714Y-134347619D01*
X138263333Y-134442857D01*
X138263333Y-134585714D01*
X138215714Y-134680952D01*
X138168095Y-134728571D01*
X138072857Y-134776190D01*
X137691904Y-134776190D01*
X139215714Y-135252380D02*
X138644285Y-135252380D01*
X138930000Y-135252380D02*
X138930000Y-134252380D01*
X138834761Y-134395238D01*
X138739523Y-134490476D01*
X138644285Y-134538095D01*
X121205714Y-129706666D02*
X121681904Y-129706666D01*
X121110476Y-129992380D02*
X121443809Y-128992380D01*
X121777142Y-129992380D01*
X122634285Y-129992380D02*
X122062857Y-129992380D01*
X122348571Y-129992380D02*
X122348571Y-128992380D01*
X122253333Y-129135238D01*
X122158095Y-129230476D01*
X122062857Y-129278095D01*
X138263333Y-130172380D02*
X137930000Y-129696190D01*
X137691904Y-130172380D02*
X137691904Y-129172380D01*
X138072857Y-129172380D01*
X138168095Y-129220000D01*
X138215714Y-129267619D01*
X138263333Y-129362857D01*
X138263333Y-129505714D01*
X138215714Y-129600952D01*
X138168095Y-129648571D01*
X138072857Y-129696190D01*
X137691904Y-129696190D01*
X138644285Y-129267619D02*
X138691904Y-129220000D01*
X138787142Y-129172380D01*
X139025238Y-129172380D01*
X139120476Y-129220000D01*
X139168095Y-129267619D01*
X139215714Y-129362857D01*
X139215714Y-129458095D01*
X139168095Y-129600952D01*
X138596666Y-130172380D01*
X139215714Y-130172380D01*
X138350666Y-139152380D02*
X138350666Y-139866666D01*
X138303047Y-140009523D01*
X138207809Y-140104761D01*
X138064952Y-140152380D01*
X137969714Y-140152380D01*
X138779238Y-139247619D02*
X138826857Y-139200000D01*
X138922095Y-139152380D01*
X139160190Y-139152380D01*
X139255428Y-139200000D01*
X139303047Y-139247619D01*
X139350666Y-139342857D01*
X139350666Y-139438095D01*
X139303047Y-139580952D01*
X138731619Y-140152380D01*
X139350666Y-140152380D01*
X153590666Y-106132380D02*
X153590666Y-106846666D01*
X153543047Y-106989523D01*
X153447809Y-107084761D01*
X153304952Y-107132380D01*
X153209714Y-107132380D01*
X154590666Y-107132380D02*
X154019238Y-107132380D01*
X154304952Y-107132380D02*
X154304952Y-106132380D01*
X154209714Y-106275238D01*
X154114476Y-106370476D01*
X154019238Y-106418095D01*
X121205714Y-96686666D02*
X121681904Y-96686666D01*
X121110476Y-96972380D02*
X121443809Y-95972380D01*
X121777142Y-96972380D01*
X122634285Y-96972380D02*
X122062857Y-96972380D01*
X122348571Y-96972380D02*
X122348571Y-95972380D01*
X122253333Y-96115238D01*
X122158095Y-96210476D01*
X122062857Y-96258095D01*
X138263333Y-102232380D02*
X137930000Y-101756190D01*
X137691904Y-102232380D02*
X137691904Y-101232380D01*
X138072857Y-101232380D01*
X138168095Y-101280000D01*
X138215714Y-101327619D01*
X138263333Y-101422857D01*
X138263333Y-101565714D01*
X138215714Y-101660952D01*
X138168095Y-101708571D01*
X138072857Y-101756190D01*
X137691904Y-101756190D01*
X139215714Y-102232380D02*
X138644285Y-102232380D01*
X138930000Y-102232380D02*
X138930000Y-101232380D01*
X138834761Y-101375238D01*
X138739523Y-101470476D01*
X138644285Y-101518095D01*
X126666666Y-106132380D02*
X126666666Y-106846666D01*
X126619047Y-106989523D01*
X126523809Y-107084761D01*
X126380952Y-107132380D01*
X126285714Y-107132380D01*
X127047619Y-106132380D02*
X127666666Y-106132380D01*
X127333333Y-106513333D01*
X127476190Y-106513333D01*
X127571428Y-106560952D01*
X127619047Y-106608571D01*
X127666666Y-106703809D01*
X127666666Y-106941904D01*
X127619047Y-107037142D01*
X127571428Y-107084761D01*
X127476190Y-107132380D01*
X127190476Y-107132380D01*
X127095238Y-107084761D01*
X127047619Y-107037142D01*
X138263333Y-97152380D02*
X137930000Y-96676190D01*
X137691904Y-97152380D02*
X137691904Y-96152380D01*
X138072857Y-96152380D01*
X138168095Y-96200000D01*
X138215714Y-96247619D01*
X138263333Y-96342857D01*
X138263333Y-96485714D01*
X138215714Y-96580952D01*
X138168095Y-96628571D01*
X138072857Y-96676190D01*
X137691904Y-96676190D01*
X138644285Y-96247619D02*
X138691904Y-96200000D01*
X138787142Y-96152380D01*
X139025238Y-96152380D01*
X139120476Y-96200000D01*
X139168095Y-96247619D01*
X139215714Y-96342857D01*
X139215714Y-96438095D01*
X139168095Y-96580952D01*
X138596666Y-97152380D01*
X139215714Y-97152380D01*
X138350666Y-106132380D02*
X138350666Y-106846666D01*
X138303047Y-106989523D01*
X138207809Y-107084761D01*
X138064952Y-107132380D01*
X137969714Y-107132380D01*
X138779238Y-106227619D02*
X138826857Y-106180000D01*
X138922095Y-106132380D01*
X139160190Y-106132380D01*
X139255428Y-106180000D01*
X139303047Y-106227619D01*
X139350666Y-106322857D01*
X139350666Y-106418095D01*
X139303047Y-106560952D01*
X138731619Y-107132380D01*
X139350666Y-107132380D01*
X153590666Y-73112380D02*
X153590666Y-73826666D01*
X153543047Y-73969523D01*
X153447809Y-74064761D01*
X153304952Y-74112380D01*
X153209714Y-74112380D01*
X154590666Y-74112380D02*
X154019238Y-74112380D01*
X154304952Y-74112380D02*
X154304952Y-73112380D01*
X154209714Y-73255238D01*
X154114476Y-73350476D01*
X154019238Y-73398095D01*
X121205714Y-63666666D02*
X121681904Y-63666666D01*
X121110476Y-63952380D02*
X121443809Y-62952380D01*
X121777142Y-63952380D01*
X122634285Y-63952380D02*
X122062857Y-63952380D01*
X122348571Y-63952380D02*
X122348571Y-62952380D01*
X122253333Y-63095238D01*
X122158095Y-63190476D01*
X122062857Y-63238095D01*
X126666666Y-73112380D02*
X126666666Y-73826666D01*
X126619047Y-73969523D01*
X126523809Y-74064761D01*
X126380952Y-74112380D01*
X126285714Y-74112380D01*
X127047619Y-73112380D02*
X127666666Y-73112380D01*
X127333333Y-73493333D01*
X127476190Y-73493333D01*
X127571428Y-73540952D01*
X127619047Y-73588571D01*
X127666666Y-73683809D01*
X127666666Y-73921904D01*
X127619047Y-74017142D01*
X127571428Y-74064761D01*
X127476190Y-74112380D01*
X127190476Y-74112380D01*
X127095238Y-74064761D01*
X127047619Y-74017142D01*
X138350666Y-73112380D02*
X138350666Y-73826666D01*
X138303047Y-73969523D01*
X138207809Y-74064761D01*
X138064952Y-74112380D01*
X137969714Y-74112380D01*
X138779238Y-73207619D02*
X138826857Y-73160000D01*
X138922095Y-73112380D01*
X139160190Y-73112380D01*
X139255428Y-73160000D01*
X139303047Y-73207619D01*
X139350666Y-73302857D01*
X139350666Y-73398095D01*
X139303047Y-73540952D01*
X138731619Y-74112380D01*
X139350666Y-74112380D01*
X138263333Y-69212380D02*
X137930000Y-68736190D01*
X137691904Y-69212380D02*
X137691904Y-68212380D01*
X138072857Y-68212380D01*
X138168095Y-68260000D01*
X138215714Y-68307619D01*
X138263333Y-68402857D01*
X138263333Y-68545714D01*
X138215714Y-68640952D01*
X138168095Y-68688571D01*
X138072857Y-68736190D01*
X137691904Y-68736190D01*
X139215714Y-69212380D02*
X138644285Y-69212380D01*
X138930000Y-69212380D02*
X138930000Y-68212380D01*
X138834761Y-68355238D01*
X138739523Y-68450476D01*
X138644285Y-68498095D01*
X138263333Y-64132380D02*
X137930000Y-63656190D01*
X137691904Y-64132380D02*
X137691904Y-63132380D01*
X138072857Y-63132380D01*
X138168095Y-63180000D01*
X138215714Y-63227619D01*
X138263333Y-63322857D01*
X138263333Y-63465714D01*
X138215714Y-63560952D01*
X138168095Y-63608571D01*
X138072857Y-63656190D01*
X137691904Y-63656190D01*
X138644285Y-63227619D02*
X138691904Y-63180000D01*
X138787142Y-63132380D01*
X139025238Y-63132380D01*
X139120476Y-63180000D01*
X139168095Y-63227619D01*
X139215714Y-63322857D01*
X139215714Y-63418095D01*
X139168095Y-63560952D01*
X138596666Y-64132380D01*
X139215714Y-64132380D01*
M02*
