M48
; DRILL file {KiCad 5.1.5-52549c5~84~ubuntu18.04.1} date vie 31 ene 2020 17:12:22 CET
; FORMAT={-:-/ absolute / metric / decimal}
; #@! TF.CreationDate,2020-01-31T17:12:22+01:00
; #@! TF.GenerationSoftware,Kicad,Pcbnew,5.1.5-52549c5~84~ubuntu18.04.1
FMAT,2
METRIC
T1C0.800
T2C1.000
%
G90
G05
T1
X182.88Y-114.3
X182.88Y-127.0
X177.8Y-63.5
X177.8Y-76.2
X132.08Y-127.0
X144.78Y-127.0
X132.08Y-93.98
X144.78Y-93.98
X177.8Y-114.3
X177.8Y-127.0
X132.08Y-99.06
X144.78Y-99.06
X182.88Y-63.5
X182.88Y-76.2
X172.72Y-106.68
X172.72Y-109.22
X172.72Y-111.76
X172.72Y-114.3
X172.72Y-116.84
X172.72Y-119.38
X172.72Y-121.92
X172.72Y-124.46
X172.72Y-127.0
X172.72Y-129.54
X172.72Y-132.08
X172.72Y-134.62
X172.72Y-137.16
X172.72Y-139.7
X172.72Y-142.24
X187.96Y-106.68
X187.96Y-109.22
X187.96Y-111.76
X187.96Y-114.3
X187.96Y-116.84
X187.96Y-119.38
X187.96Y-121.92
X187.96Y-124.46
X187.96Y-127.0
X187.96Y-129.54
X187.96Y-132.08
X187.96Y-134.62
X187.96Y-137.16
X187.96Y-139.7
X187.96Y-142.24
X116.84Y-121.92
X116.84Y-137.16
X119.38Y-121.92
X119.38Y-137.16
X121.92Y-121.92
X121.92Y-137.16
X124.46Y-121.92
X124.46Y-137.16
X127.0Y-121.92
X127.0Y-137.16
X129.54Y-121.92
X129.54Y-137.16
X132.08Y-121.92
X132.08Y-137.16
X134.62Y-121.92
X134.62Y-137.16
X137.16Y-121.92
X137.16Y-137.16
X139.7Y-121.92
X139.7Y-137.16
X142.24Y-121.92
X142.24Y-137.16
X144.78Y-121.92
X144.78Y-137.16
X147.32Y-121.92
X147.32Y-137.16
X149.86Y-121.92
X149.86Y-137.16
X152.4Y-121.92
X152.4Y-137.16
X116.84Y-88.9
X116.84Y-104.14
X119.38Y-88.9
X119.38Y-104.14
X121.92Y-88.9
X121.92Y-104.14
X124.46Y-88.9
X124.46Y-104.14
X127.0Y-88.9
X127.0Y-104.14
X129.54Y-88.9
X129.54Y-104.14
X132.08Y-88.9
X132.08Y-104.14
X134.62Y-88.9
X134.62Y-104.14
X137.16Y-88.9
X137.16Y-104.14
X139.7Y-88.9
X139.7Y-104.14
X142.24Y-88.9
X142.24Y-104.14
X144.78Y-88.9
X144.78Y-104.14
X147.32Y-88.9
X147.32Y-104.14
X149.86Y-88.9
X149.86Y-104.14
X152.4Y-88.9
X152.4Y-104.14
X116.84Y-55.88
X116.84Y-71.12
X119.38Y-55.88
X119.38Y-71.12
X121.92Y-55.88
X121.92Y-71.12
X124.46Y-55.88
X124.46Y-71.12
X127.0Y-55.88
X127.0Y-71.12
X129.54Y-55.88
X129.54Y-71.12
X132.08Y-55.88
X132.08Y-71.12
X134.62Y-55.88
X134.62Y-71.12
X137.16Y-55.88
X137.16Y-71.12
X139.7Y-55.88
X139.7Y-71.12
X142.24Y-55.88
X142.24Y-71.12
X144.78Y-55.88
X144.78Y-71.12
X147.32Y-55.88
X147.32Y-71.12
X149.86Y-55.88
X149.86Y-71.12
X152.4Y-55.88
X152.4Y-71.12
X132.08Y-60.96
X144.78Y-60.96
X132.08Y-66.04
X144.78Y-66.04
X172.72Y-55.88
X172.72Y-58.42
X172.72Y-60.96
X172.72Y-63.5
X172.72Y-66.04
X172.72Y-68.58
X172.72Y-71.12
X172.72Y-73.66
X172.72Y-76.2
X172.72Y-78.74
X172.72Y-81.28
X172.72Y-83.82
X172.72Y-86.36
X172.72Y-88.9
X172.72Y-91.44
X187.96Y-55.88
X187.96Y-58.42
X187.96Y-60.96
X187.96Y-63.5
X187.96Y-66.04
X187.96Y-68.58
X187.96Y-71.12
X187.96Y-73.66
X187.96Y-76.2
X187.96Y-78.74
X187.96Y-81.28
X187.96Y-83.82
X187.96Y-86.36
X187.96Y-88.9
X187.96Y-91.44
X132.08Y-132.08
X144.78Y-132.08
T2
X193.04Y-116.84
X193.04Y-119.38
X193.04Y-121.92
X193.04Y-124.46
X124.46Y-76.2
X127.0Y-76.2
X129.54Y-76.2
X134.62Y-109.22
X137.16Y-109.22
X139.7Y-109.22
X142.24Y-109.22
X124.46Y-109.22
X127.0Y-109.22
X129.54Y-109.22
X152.4Y-142.24
X154.94Y-142.24
X152.4Y-109.22
X154.94Y-109.22
X193.04Y-129.54
X193.04Y-132.08
X193.04Y-134.62
X193.04Y-53.34
X193.04Y-55.88
X152.4Y-76.2
X154.94Y-76.2
X193.04Y-66.04
X193.04Y-68.58
X193.04Y-71.12
X193.04Y-73.66
X134.62Y-76.2
X137.16Y-76.2
X139.7Y-76.2
X142.24Y-76.2
X124.46Y-142.24
X127.0Y-142.24
X129.54Y-142.24
X134.62Y-142.24
X137.16Y-142.24
X139.7Y-142.24
X142.24Y-142.24
X193.04Y-104.14
X193.04Y-106.68
X193.04Y-78.74
X193.04Y-81.28
X193.04Y-83.82
T0
M30
