M48
; DRILL file {KiCad 5.1.7-a382d34a8~88~ubuntu18.04.1} date Thu Dec 31 00:38:01 2020
; FORMAT={-:-/ absolute / inch / decimal}
; #@! TF.CreationDate,2020-12-31T00:38:01+01:00
; #@! TF.GenerationSoftware,Kicad,Pcbnew,5.1.7-a382d34a8~88~ubuntu18.04.1
; #@! TF.FileFunction,Plated,1,2,PTH
FMAT,2
INCH
T1C0.0300
T2C0.0315
T3C0.0402
T4C0.0433
%
G90
G05
T1
X5.4104Y-3.3008
X5.4104Y-3.3795
X5.4104Y-3.4583
X5.6073Y-3.3008
X5.6073Y-3.3795
X5.6073Y-3.4583
X3.4504Y-3.3008
X3.4504Y-3.3795
X3.4504Y-3.4583
X3.6473Y-3.3008
X3.6473Y-3.3795
X3.6473Y-3.4583
X3.4504Y-5.2408
X3.4504Y-5.3195
X3.4504Y-5.3983
X3.6473Y-5.2408
X3.6473Y-5.3195
X3.6473Y-5.3983
X5.4104Y-5.2408
X5.4104Y-5.3195
X5.4104Y-5.3983
X5.6073Y-5.2408
X5.6073Y-5.3195
X5.6073Y-5.3983
T2
X3.2204Y-3.3096
X3.2204Y-3.8096
X5.1804Y-3.3096
X5.1804Y-3.8096
X5.0121Y-4.1211
X5.0121Y-4.6211
X5.1804Y-5.2496
X5.1804Y-5.7496
X4.2606Y-4.3411
X4.2606Y-4.4411
X4.2606Y-4.5411
X4.2606Y-4.6411
X4.2606Y-4.7411
X4.2606Y-4.8411
X4.2606Y-4.9411
X4.2606Y-5.0411
X4.2606Y-5.1411
X4.2606Y-5.2411
X4.2606Y-5.3411
X4.2606Y-5.4411
X4.2606Y-5.5411
X4.2606Y-5.6411
X4.2606Y-5.7411
X4.8606Y-4.3411
X4.8606Y-4.4411
X4.8606Y-4.5411
X4.8606Y-4.6411
X4.8606Y-4.7411
X4.8606Y-4.8411
X4.8606Y-4.9411
X4.8606Y-5.0411
X4.8606Y-5.1411
X4.8606Y-5.2411
X4.8606Y-5.3411
X4.8606Y-5.4411
X4.8606Y-5.5411
X4.8606Y-5.6411
X4.8606Y-5.7411
X2.3006Y-4.3411
X2.3006Y-4.4411
X2.3006Y-4.5411
X2.3006Y-4.6411
X2.3006Y-4.7411
X2.3006Y-4.8411
X2.3006Y-4.9411
X2.3006Y-5.0411
X2.3006Y-5.1411
X2.3006Y-5.2411
X2.3006Y-5.3411
X2.3006Y-5.4411
X2.3006Y-5.5411
X2.3006Y-5.6411
X2.3006Y-5.7411
X2.9006Y-4.3411
X2.9006Y-4.4411
X2.9006Y-4.5411
X2.9006Y-4.6411
X2.9006Y-4.7411
X2.9006Y-4.8411
X2.9006Y-4.9411
X2.9006Y-5.0411
X2.9006Y-5.1411
X2.9006Y-5.2411
X2.9006Y-5.3411
X2.9006Y-5.4411
X2.9006Y-5.5411
X2.9006Y-5.6411
X2.9006Y-5.7411
X3.2006Y-4.1211
X3.2006Y-4.6211
X3.2006Y-2.1811
X3.2006Y-2.6811
X5.0121Y-2.1811
X5.0121Y-2.6811
X3.0521Y-3.3096
X3.0521Y-3.8096
X5.1606Y-4.1211
X5.1606Y-4.6211
X3.0521Y-4.1211
X3.0521Y-4.6211
X4.2606Y-2.4011
X4.2606Y-2.5011
X4.2606Y-2.6011
X4.2606Y-2.7011
X4.2606Y-2.8011
X4.2606Y-2.9011
X4.2606Y-3.0011
X4.2606Y-3.1011
X4.2606Y-3.2011
X4.2606Y-3.3011
X4.2606Y-3.4011
X4.2606Y-3.5011
X4.2606Y-3.6011
X4.2606Y-3.7011
X4.2606Y-3.8011
X4.8606Y-2.4011
X4.8606Y-2.5011
X4.8606Y-2.6011
X4.8606Y-2.7011
X4.8606Y-2.8011
X4.8606Y-2.9011
X4.8606Y-3.0011
X4.8606Y-3.1011
X4.8606Y-3.2011
X4.8606Y-3.3011
X4.8606Y-3.4011
X4.8606Y-3.5011
X4.8606Y-3.6011
X4.8606Y-3.7011
X4.8606Y-3.8011
X3.2204Y-5.2496
X3.2204Y-5.7496
X5.1606Y-2.1811
X5.1606Y-2.6811
X2.3006Y-2.4011
X2.3006Y-2.5011
X2.3006Y-2.6011
X2.3006Y-2.7011
X2.3006Y-2.8011
X2.3006Y-2.9011
X2.3006Y-3.0011
X2.3006Y-3.1011
X2.3006Y-3.2011
X2.3006Y-3.3011
X2.3006Y-3.4011
X2.3006Y-3.5011
X2.3006Y-3.6011
X2.3006Y-3.7011
X2.3006Y-3.8011
X2.9006Y-2.4011
X2.9006Y-2.5011
X2.9006Y-2.6011
X2.9006Y-2.7011
X2.9006Y-2.8011
X2.9006Y-2.9011
X2.9006Y-3.0011
X2.9006Y-3.1011
X2.9006Y-3.2011
X2.9006Y-3.3011
X2.9006Y-3.4011
X2.9006Y-3.5011
X2.9006Y-3.6011
X2.9006Y-3.7011
X2.9006Y-3.8011
X3.0521Y-2.1811
X3.0521Y-2.6811
X5.0121Y-5.2496
X5.0121Y-5.7496
X5.0121Y-3.3096
X5.0121Y-3.8096
X3.0521Y-5.2496
X3.0521Y-5.7496
T3
X2.1721Y-5.2411
X2.1721Y-5.3411
X2.1721Y-5.4411
X2.1721Y-5.5411
X4.5206Y-2.1296
X4.6206Y-2.1296
X4.7206Y-2.1296
X4.8206Y-2.1296
X2.5606Y-2.1296
X2.6606Y-2.1296
X2.7606Y-2.1296
X2.8606Y-2.1296
X3.4204Y-3.7208
X3.5204Y-3.7208
X5.3804Y-5.6608
X5.4804Y-5.6608
X4.1321Y-3.3011
X4.1321Y-3.4011
X4.1321Y-3.5011
X4.1321Y-3.6011
X3.4204Y-5.6608
X3.5204Y-5.6608
X4.1321Y-5.2411
X4.1321Y-5.3411
X4.1321Y-5.4411
X4.1321Y-5.5411
X2.5606Y-4.0696
X2.6606Y-4.0696
X2.7606Y-4.0696
X2.8606Y-4.0696
X2.1721Y-3.3011
X2.1721Y-3.4011
X2.1721Y-3.5011
X2.1721Y-3.6011
X4.5206Y-4.0696
X4.6206Y-4.0696
X4.7206Y-4.0696
X4.8206Y-4.0696
X5.3804Y-3.7208
X5.4804Y-3.7208
T4
X3.4606Y-4.1537
X3.4606Y-4.4096
X3.6377Y-4.1537
X3.6377Y-4.4096
X5.4206Y-4.1537
X5.4206Y-4.4096
X5.5977Y-4.1537
X5.5977Y-4.4096
X3.4606Y-2.2137
X3.4606Y-2.4696
X3.6377Y-2.2137
X3.6377Y-2.4696
X5.4206Y-2.6337
X5.4206Y-2.8896
X5.5977Y-2.6337
X5.5977Y-2.8896
X5.4206Y-2.2137
X5.4206Y-2.4696
X5.5977Y-2.2137
X5.5977Y-2.4696
X3.4606Y-2.6337
X3.4606Y-2.8896
X3.6377Y-2.6337
X3.6377Y-2.8896
X5.4206Y-4.5737
X5.4206Y-4.8296
X5.5977Y-4.5737
X5.5977Y-4.8296
X3.4606Y-4.5737
X3.4606Y-4.8296
X3.6377Y-4.5737
X3.6377Y-4.8296
T0
M30
